SplineFontDB: 3.2
FontName: AcariSans-Medium
FullName: Acari Sans Medium
FamilyName: Acari Sans Medium
Weight: Medium
Copyright: Copyright (c)2015, HK Grotesk Latin by Alfredo Marco Pradil (ammpradil@gmail.com) and HK Grotesk Cyrillic by Stefan Peev (http://www.contextbg.net/). HK Grotesk is a trademark of Alfredo Marco Pradil. Copyright (c) 2018-2023 The Acari Sans Project Authors (https://github.com/cssobral2013/acari-sans)
Version: 1.063; ttfautohint (v1.8.3)
ItalicAngle: 0
UnderlinePosition: -250
UnderlineWidth: 100
Ascent: 1600
Descent: 400
InvalidEm: 0
sfntRevision: 0x00011020
LayerCount: 2
Layer: 0 1 "Back" 1
Layer: 1 1 "Fore" 0
XUID: [1021 467 -1401554168 5477328]
StyleMap: 0x0040
FSType: 0
OS2Version: 4
OS2_WeightWidthSlopeOnly: 0
OS2_UseTypoMetrics: 1
CreationTime: 1480856841
ModificationTime: 1687305237
PfmFamily: 81
TTFWeight: 500
TTFWidth: 5
LineGap: 26
VLineGap: 0
Panose: 0 0 0 0 0 0 0 0 0 0
OS2TypoAscent: 1900
OS2TypoAOffset: 0
OS2TypoDescent: -487
OS2TypoDOffset: 0
OS2TypoLinegap: 26
OS2WinAscent: 1913
OS2WinAOffset: 0
OS2WinDescent: 500
OS2WinDOffset: 0
HheadAscent: 1900
HheadAOffset: 0
HheadDescent: -487
HheadDOffset: 0
OS2SubXSize: 1331
OS2SubYSize: 1228
OS2SubXOff: 0
OS2SubYOff: 153
OS2SupXSize: 1331
OS2SupYSize: 1228
OS2SupXOff: 0
OS2SupYOff: 716
OS2StrikeYSize: 82
OS2StrikeYPos: 599
OS2CapHeight: 1413
OS2XHeight: 1039
OS2Vendor: 'AMSP'
OS2CodePages: 20000197.00000000
OS2UnicodeRanges: 2000020f.00000001.00000000.00000000
Lookup: 1 0 0 "'locl' Localized Forms in Latin lookup 23" { "'locl' Localized Forms in Latin lookup 23-1"  } ['locl' ('latn' <'AZE ' 'CRT ' 'KAZ ' 'TAT ' 'TRK ' > ) ]
Lookup: 1 0 0 "'aalt' Access All Alternates lookup 0" { "'aalt' Access All Alternates lookup 0 subtable"  } ['aalt' ('DFLT' <'dflt' > 'cyrl' <'BGR ' 'MKD ' 'RUS ' 'SRB ' 'dflt' > 'latn' <'AZE ' 'CRT ' 'KAZ ' 'MOL ' 'ROM ' 'TAT ' 'TRK ' 'dflt' > ) ]

StartChar: .notdef
Encoding: 65536 -1 0
Width: 728
GlyphClass: 1
Flags: W
LayerCount: 2
Fore
SplineSet
596 0 m 1,0,-1
 66 0 l 1,1,-1
 66 1333 l 1,2,-1
 596 1333 l 1,3,-1
 596 0 l 1,0,-1
530 66 m 1,4,-1
 530 1267 l 1,5,-1
 132 1267 l 1,6,-1
 132 66 l 1,7,-1
 530 66 l 1,4,-1
EndSplineSet
EndChar

StartChar: exclam
Encoding: 33 33 4
Width: 632
GlyphClass: 1
Flags: W
LayerCount: 2
Fore
SplineSet
390 403 m 1,0,-1
 243 403 l 1,1,-1
 214 1434 l 1,2,-1
 418 1434 l 1,3,-1
 390 403 l 1,0,-1
431 0 m 1,4,-1
 202 0 l 1,5,-1
 202 227 l 1,6,-1
 431 227 l 1,7,-1
 431 0 l 1,4,-1
EndSplineSet
EndChar

StartChar: quotedbl
Encoding: 34 34 5
Width: 931
GlyphClass: 1
Flags: W
LayerCount: 2
Fore
SplineSet
388 929 m 1,0,-1
 220 929 l 1,1,-1
 220 1413 l 1,2,-1
 388 1413 l 1,3,-1
 388 929 l 1,0,-1
711 929 m 1,4,-1
 543 929 l 1,5,-1
 543 1413 l 1,6,-1
 711 1413 l 1,7,-1
 711 929 l 1,4,-1
EndSplineSet
EndChar

StartChar: numbersign
Encoding: 35 35 6
Width: 1375
GlyphClass: 1
Flags: W
LayerCount: 2
Fore
SplineSet
832 0 m 1,0,-1
 679 0 l 1,1,-1
 771 436 l 1,2,-1
 483 436 l 1,3,-1
 393 0 l 1,4,-1
 240 0 l 1,5,-1
 330 427 l 1,6,-1
 93 427 l 1,7,-1
 93 567 l 1,8,-1
 360 567 l 1,9,-1
 421 867 l 1,10,-1
 175 867 l 1,11,-1
 175 1010 l 1,12,-1
 450 1010 l 1,13,-1
 545 1434 l 1,14,-1
 699 1434 l 1,15,-1
 603 997 l 1,16,-1
 891 997 l 1,17,-1
 983 1434 l 1,18,-1
 1137 1434 l 1,19,-1
 1044 1007 l 1,20,-1
 1281 1007 l 1,21,-1
 1281 867 l 1,22,-1
 1015 867 l 1,23,-1
 954 567 l 1,24,-1
 1199 567 l 1,25,-1
 1199 425 l 1,26,-1
 924 425 l 1,27,-1
 832 0 l 1,0,-1
801 567 m 1,28,-1
 861 867 l 1,29,-1
 574 867 l 1,30,-1
 513 567 l 1,31,-1
 801 567 l 1,28,-1
EndSplineSet
EndChar

StartChar: dollar
Encoding: 36 36 7
Width: 1122
GlyphClass: 1
Flags: W
LayerCount: 2
Fore
SplineSet
636 -246 m 1,0,-1
 485 -246 l 1,1,-1
 485 -12 l 1,2,3
 332 9 332 9 214 105 c 128,-1,4
 96 201 96 201 65 375 c 1,5,-1
 261 423 l 1,6,7
 279 296 279 296 367 232.5 c 128,-1,8
 455 169 455 169 578 169 c 0,9,10
 656 169 656 169 715 192 c 128,-1,11
 774 215 774 215 806.5 264.5 c 128,-1,12
 839 314 839 314 839 392 c 0,13,14
 839 460 839 460 800 508 c 0,15,16
 764 552 764 552 704.5 586.5 c 128,-1,17
 645 621 645 621 541 664 c 0,18,19
 417 717 417 717 341.5 761 c 128,-1,20
 266 805 266 805 212.5 879.5 c 128,-1,21
 159 954 159 954 159 1064 c 0,22,23
 159 1164 159 1164 202.5 1240 c 128,-1,24
 246 1316 246 1316 319.5 1364 c 128,-1,25
 393 1412 393 1412 485 1428 c 1,26,-1
 485 1659 l 1,27,-1
 636 1659 l 1,28,-1
 636 1432 l 1,29,30
 870 1403 870 1403 977 1205 c 1,31,-1
 816 1105 l 1,32,33
 774 1183 774 1183 707.5 1219.5 c 128,-1,34
 641 1256 641 1256 566 1256 c 0,35,36
 512 1256 512 1256 465.5 1234.5 c 128,-1,37
 419 1213 419 1213 390.5 1172.5 c 128,-1,38
 362 1132 362 1132 362 1077 c 0,39,40
 362 1013 362 1013 399 969 c 128,-1,41
 436 925 436 925 492 895.5 c 128,-1,42
 548 866 548 866 646 825 c 0,43,44
 772 772 772 772 851 726 c 128,-1,45
 930 680 930 680 986 600 c 128,-1,46
 1042 520 1042 520 1042 401 c 0,47,48
 1042 279 1042 279 987.5 188.5 c 128,-1,49
 933 98 933 98 841.5 45.5 c 128,-1,50
 750 -7 750 -7 636 -16 c 1,51,-1
 636 -246 l 1,0,-1
EndSplineSet
EndChar

StartChar: percent
Encoding: 37 37 8
Width: 1559
GlyphClass: 1
Flags: W
LayerCount: 2
Fore
SplineSet
370 787 m 0,0,1
 275 787 275 787 214.5 839.5 c 128,-1,2
 154 892 154 892 129 966 c 128,-1,3
 104 1040 104 1040 104 1111 c 0,4,5
 104 1167 104 1167 118 1224 c 128,-1,6
 132 1281 132 1281 162.5 1329 c 128,-1,7
 193 1377 193 1377 242.5 1406.5 c 128,-1,8
 292 1436 292 1436 364 1436 c 0,9,10
 453 1436 453 1436 511.5 1388 c 128,-1,11
 570 1340 570 1340 599 1265 c 128,-1,12
 628 1190 628 1190 628 1109 c 0,13,14
 628 1033 628 1033 601 959 c 128,-1,15
 574 885 574 885 517 836 c 128,-1,16
 460 787 460 787 370 787 c 0,0,1
472 -8 m 1,17,-1
 303 -8 l 1,18,-1
 1074 1429 l 1,19,-1
 1243 1429 l 1,20,-1
 472 -8 l 1,17,-1
367 921 m 0,21,22
 406 921 406 921 432 948 c 128,-1,23
 458 975 458 975 471.5 1018.5 c 128,-1,24
 485 1062 485 1062 485 1111 c 0,25,26
 485 1162 485 1162 471.5 1205 c 128,-1,27
 458 1248 458 1248 431 1274 c 128,-1,28
 404 1300 404 1300 364 1300 c 0,29,30
 323 1300 323 1300 296 1274 c 128,-1,31
 269 1248 269 1248 256 1205 c 128,-1,32
 243 1162 243 1162 243 1111 c 256,33,34
 243 1060 243 1060 256.5 1017 c 128,-1,35
 270 974 270 974 297.5 947.5 c 128,-1,36
 325 921 325 921 367 921 c 0,21,22
1197 -3 m 0,37,38
 1102 -3 1102 -3 1042 50 c 128,-1,39
 982 103 982 103 957 177 c 128,-1,40
 932 251 932 251 932 322 c 0,41,42
 932 377 932 377 945.5 434.5 c 128,-1,43
 959 492 959 492 989 540 c 128,-1,44
 1019 588 1019 588 1069 618 c 128,-1,45
 1119 648 1119 648 1191 648 c 0,46,47
 1280 648 1280 648 1339 599.5 c 128,-1,48
 1398 551 1398 551 1427 476 c 128,-1,49
 1456 401 1456 401 1456 321 c 0,50,51
 1456 243 1456 243 1428.5 168.5 c 128,-1,52
 1401 94 1401 94 1343.5 45.5 c 128,-1,53
 1286 -3 1286 -3 1197 -3 c 0,37,38
1195 130 m 0,54,55
 1251 130 1251 130 1282 188 c 128,-1,56
 1313 246 1313 246 1313 323 c 0,57,58
 1313 374 1313 374 1299.5 417 c 128,-1,59
 1286 460 1286 460 1259 486.5 c 128,-1,60
 1232 513 1232 513 1191 513 c 0,61,62
 1152 513 1152 513 1125 486.5 c 128,-1,63
 1098 460 1098 460 1084.5 416.5 c 128,-1,64
 1071 373 1071 373 1071 322 c 256,65,66
 1071 271 1071 271 1084.5 227 c 128,-1,67
 1098 183 1098 183 1125.5 156.5 c 128,-1,68
 1153 130 1153 130 1195 130 c 0,54,55
EndSplineSet
EndChar

StartChar: ampersand
Encoding: 38 38 9
Width: 1379
GlyphClass: 1
Flags: W
LayerCount: 2
Fore
SplineSet
1164 -64 m 1,0,-1
 974 157 l 1,1,2
 893 75 893 75 783 26.5 c 128,-1,3
 673 -22 673 -22 537 -22 c 0,4,5
 422 -22 422 -22 323.5 15 c 128,-1,6
 225 52 225 52 165 126.5 c 128,-1,7
 105 201 105 201 105 315 c 0,8,9
 105 498 105 498 267 638 c 0,10,11
 338 700 338 700 443 764 c 1,12,13
 367 851 367 851 316 935.5 c 128,-1,14
 265 1020 265 1020 265 1111 c 0,15,16
 265 1211 265 1211 317.5 1282.5 c 128,-1,17
 370 1354 370 1354 453.5 1392 c 128,-1,18
 537 1430 537 1430 630 1430 c 0,19,20
 730 1430 730 1430 808 1386.5 c 128,-1,21
 886 1343 886 1343 930 1270.5 c 128,-1,22
 974 1198 974 1198 974 1112 c 0,23,24
 974 994 974 994 903 905.5 c 128,-1,25
 832 817 832 817 705 732 c 1,26,-1
 956 444 l 1,27,28
 1002 556 1002 556 1010 694 c 1,29,-1
 1192 674 l 1,30,31
 1178 466 1178 466 1082 299 c 1,32,-1
 1297 53 l 1,33,-1
 1164 -64 l 1,0,-1
586 850 m 1,34,35
 692 917 692 917 748 976.5 c 128,-1,36
 804 1036 804 1036 804 1110 c 0,37,38
 804 1183 804 1183 753.5 1229 c 128,-1,39
 703 1275 703 1275 632 1275 c 0,40,41
 583 1275 583 1275 540.5 1255.5 c 128,-1,42
 498 1236 498 1236 471.5 1199 c 128,-1,43
 445 1162 445 1162 445 1108 c 0,44,45
 445 1012 445 1012 586 850 c 1,34,35
535 146 m 0,46,47
 737 146 737 146 861 288 c 1,48,-1
 559 639 l 1,49,50
 427 558 427 558 356 483.5 c 128,-1,51
 285 409 285 409 285 314 c 0,52,53
 285 256 285 256 318 218.5 c 128,-1,54
 351 181 351 181 407.5 163.5 c 128,-1,55
 464 146 464 146 535 146 c 0,46,47
EndSplineSet
EndChar

StartChar: quotesingle
Encoding: 39 39 10
Width: 608
GlyphClass: 1
Flags: W
LayerCount: 2
Fore
SplineSet
388 958 m 1,0,-1
 220 958 l 1,1,-1
 220 1442 l 1,2,-1
 388 1442 l 1,3,-1
 388 958 l 1,0,-1
EndSplineSet
EndChar

StartChar: parenleft
Encoding: 40 40 11
Width: 566
GlyphClass: 1
Flags: W
LayerCount: 2
Fore
SplineSet
523 -75 m 1,0,-1
 357 -75 l 1,1,2
 242 56 242 56 178.5 281.5 c 128,-1,3
 115 507 115 507 115 706 c 0,4,5
 115 934 115 934 174.5 1138.5 c 128,-1,6
 234 1343 234 1343 354 1485 c 1,7,-1
 525 1485 l 1,8,9
 270 1158 270 1158 270 702 c 0,10,11
 270 480 270 480 329.5 290 c 128,-1,12
 389 100 389 100 523 -75 c 1,0,-1
EndSplineSet
EndChar

StartChar: parenright
Encoding: 41 41 12
Width: 566
GlyphClass: 1
Flags: W
LayerCount: 2
Fore
SplineSet
209 -75 m 1,0,-1
 43 -75 l 1,1,2
 174 96 174 96 235 287.5 c 128,-1,3
 296 479 296 479 296 703 c 0,4,5
 296 916 296 916 233 1117 c 128,-1,6
 170 1318 170 1318 41 1485 c 1,7,-1
 211 1485 l 1,8,9
 325 1353 325 1353 388 1153 c 128,-1,10
 451 953 451 953 451 707 c 0,11,12
 451 507 451 507 387.5 281 c 128,-1,13
 324 55 324 55 209 -75 c 1,0,-1
EndSplineSet
EndChar

StartChar: asterisk
Encoding: 42 42 13
Width: 884
GlyphClass: 1
Flags: W
LayerCount: 2
Fore
SplineSet
559 842 m 1,0,-1
 441 1063 l 1,1,-1
 324 842 l 1,2,-1
 201 926 l 1,3,-1
 367 1106 l 1,4,-1
 128 1142 l 1,5,-1
 176 1280 l 1,6,-1
 396 1189 l 1,7,-1
 366 1413 l 1,8,-1
 518 1413 l 1,9,-1
 488 1189 l 1,10,-1
 708 1280 l 1,11,-1
 755 1142 l 1,12,-1
 516 1106 l 1,13,-1
 682 926 l 1,14,-1
 559 842 l 1,0,-1
EndSplineSet
EndChar

StartChar: plus
Encoding: 43 43 14
Width: 1259
GlyphClass: 1
Flags: W
LayerCount: 2
Fore
SplineSet
703 106 m 1,0,-1
 556 106 l 1,1,-1
 556 552 l 1,2,-1
 100 552 l 1,3,-1
 100 699 l 1,4,-1
 556 699 l 1,5,-1
 556 1143 l 1,6,-1
 703 1143 l 1,7,-1
 703 699 l 1,8,-1
 1160 699 l 1,9,-1
 1160 552 l 1,10,-1
 703 552 l 1,11,-1
 703 106 l 1,0,-1
EndSplineSet
EndChar

StartChar: comma
Encoding: 44 44 15
Width: 600
GlyphClass: 1
Flags: W
LayerCount: 2
Fore
SplineSet
243 -315 m 1,0,-1
 118 -315 l 1,1,-1
 257 264 l 1,2,-1
 492 264 l 1,3,-1
 243 -315 l 1,0,-1
EndSplineSet
EndChar

StartChar: hyphen
Encoding: 45 45 16
Width: 850
GlyphClass: 1
Flags: W
LayerCount: 2
Fore
SplineSet
698 545 m 1,0,-1
 152 545 l 1,1,-1
 152 692 l 1,2,-1
 698 692 l 1,3,-1
 698 545 l 1,0,-1
EndSplineSet
EndChar

StartChar: period
Encoding: 46 46 17
Width: 600
GlyphClass: 1
Flags: W
LayerCount: 2
Fore
SplineSet
410 0 m 1,0,-1
 189 0 l 1,1,-1
 189 227 l 1,2,-1
 410 227 l 1,3,-1
 410 0 l 1,0,-1
EndSplineSet
EndChar

StartChar: slash
Encoding: 47 47 18
Width: 930
GlyphClass: 1
Flags: W
LayerCount: 2
Fore
SplineSet
177 -430 m 1,0,-1
 -12 -430 l 1,1,-1
 755 1516 l 1,2,-1
 942 1516 l 1,3,-1
 177 -430 l 1,0,-1
EndSplineSet
EndChar

StartChar: zero
Encoding: 48 48 19
Width: 1200
GlyphClass: 1
Flags: W
LayerCount: 2
Fore
SplineSet
607 -20 m 0,0,1
 514 -20 514 -20 439 10 c 128,-1,2
 364 40 364 40 306 92 c 128,-1,3
 248 144 248 144 206.5 214.5 c 128,-1,4
 165 285 165 285 138 366 c 128,-1,5
 111 447 111 447 98.5 534 c 128,-1,6
 86 621 86 621 86 707 c 0,7,8
 86 784 86 784 97 868 c 128,-1,9
 108 952 108 952 132.5 1033 c 128,-1,10
 157 1114 157 1114 196 1187 c 128,-1,11
 235 1260 235 1260 291.5 1315.5 c 128,-1,12
 348 1371 348 1371 423 1403.5 c 128,-1,13
 498 1436 498 1436 594 1436 c 0,14,15
 680 1436 680 1436 752 1406.5 c 128,-1,16
 824 1377 824 1377 882 1326 c 128,-1,17
 940 1275 940 1275 983 1205 c 128,-1,18
 1026 1135 1026 1135 1055 1053.5 c 128,-1,19
 1084 972 1084 972 1098.5 883 c 128,-1,20
 1113 794 1113 794 1113 704 c 0,21,22
 1113 622 1113 622 1100 536.5 c 128,-1,23
 1087 451 1087 451 1060 371 c 128,-1,24
 1033 291 1033 291 992 219.5 c 128,-1,25
 951 148 951 148 895 95 c 128,-1,26
 839 42 839 42 767 11 c 128,-1,27
 695 -20 695 -20 607 -20 c 0,0,1
601 164 m 2,28,29
 676 164 676 164 732.5 204.5 c 128,-1,30
 789 245 789 245 828 320 c 0,31,32
 851 362 851 362 867 411 c 128,-1,33
 883 460 883 460 893 512 c 128,-1,34
 903 564 903 564 907.5 616.5 c 128,-1,35
 912 669 912 669 912 718 c 0,36,37
 912 770 912 770 905 829 c 128,-1,38
 898 888 898 888 883 947 c 128,-1,39
 868 1006 868 1006 843.5 1060 c 128,-1,40
 819 1114 819 1114 783 1155.5 c 128,-1,41
 747 1197 747 1197 699.5 1222 c 128,-1,42
 652 1247 652 1247 591 1247 c 0,43,44
 507 1247 507 1247 447 1197.5 c 128,-1,45
 387 1148 387 1148 348 1069 c 128,-1,46
 309 990 309 990 291 893 c 128,-1,47
 273 796 273 796 273 700 c 0,48,49
 273 608 273 608 290 518 c 128,-1,50
 307 428 307 428 344 349 c 0,51,52
 384 263 384 263 447 213.5 c 128,-1,53
 510 164 510 164 597 164 c 2,54,-1
 601 164 l 2,28,29
EndSplineSet
Substitution2: "'subs' Subscript lookup 22 subtable" uni2080
Substitution2: "'sinf' Scientific Inferiors lookup 21 subtable" uni2080
Substitution2: "'sups' Superscript lookup 19 subtable" uni2070
Substitution2: "'aalt' Access All Alternates lookup 0 subtable" uni2070
EndChar

StartChar: one
Encoding: 49 49 20
Width: 1200
GlyphClass: 1
Flags: W
LayerCount: 2
Fore
SplineSet
785 0 m 1,0,-1
 584 0 l 1,1,-1
 584 1060 l 1,2,-1
 209 1060 l 1,3,-1
 209 1217 l 1,4,-1
 432 1217 l 2,5,6
 514 1217 514 1217 555 1262.5 c 128,-1,7
 596 1308 596 1308 596 1380 c 2,8,-1
 596 1413 l 1,9,-1
 785 1413 l 1,10,-1
 785 0 l 1,0,-1
EndSplineSet
Substitution2: "'subs' Subscript lookup 22 subtable" uni2081
Substitution2: "'sinf' Scientific Inferiors lookup 21 subtable" uni2081
Substitution2: "'sups' Superscript lookup 19 subtable" onesuperior
Substitution2: "'aalt' Access All Alternates lookup 0 subtable" onesuperior
EndChar

StartChar: two
Encoding: 50 50 21
Width: 1200
GlyphClass: 1
Flags: W
LayerCount: 2
Fore
SplineSet
1100 0 m 1,0,-1
 80 0 l 1,1,-1
 80 169 l 1,2,3
 374 358 374 358 576 557 c 0,4,5
 702 686 702 686 763 794.5 c 128,-1,6
 824 903 824 903 824 1012 c 0,7,8
 824 1117 824 1117 767.5 1183.5 c 128,-1,9
 711 1250 711 1250 601 1250 c 0,10,11
 473 1250 473 1250 407 1160 c 128,-1,12
 341 1070 341 1070 334 926 c 1,13,-1
 135 942 l 1,14,15
 135 1078 135 1078 189.5 1189.5 c 128,-1,16
 244 1301 244 1301 347.5 1366.5 c 128,-1,17
 451 1432 451 1432 597 1432 c 0,18,19
 732 1432 732 1432 829 1377.5 c 128,-1,20
 926 1323 926 1323 978.5 1230 c 128,-1,21
 1031 1137 1031 1137 1031 1022 c 0,22,23
 1031 870 1031 870 944.5 726.5 c 128,-1,24
 858 583 858 583 701 428 c 0,25,26
 531 262 531 262 391 179 c 1,27,-1
 1100 179 l 1,28,-1
 1100 0 l 1,0,-1
EndSplineSet
Substitution2: "'subs' Subscript lookup 22 subtable" uni2082
Substitution2: "'sinf' Scientific Inferiors lookup 21 subtable" uni2082
Substitution2: "'sups' Superscript lookup 19 subtable" twosuperior
Substitution2: "'aalt' Access All Alternates lookup 0 subtable" twosuperior
EndChar

StartChar: three
Encoding: 51 51 22
Width: 1200
GlyphClass: 1
Flags: W
LayerCount: 2
Fore
SplineSet
581 -20 m 0,0,1
 448 -20 448 -20 333.5 27.5 c 128,-1,2
 219 75 219 75 148 179 c 0,3,4
 81 278 81 278 81 421 c 1,5,-1
 271 436 l 1,6,7
 271 347 271 347 313.5 286 c 128,-1,8
 356 225 356 225 427 194 c 128,-1,9
 498 163 498 163 582 163 c 0,10,11
 661 163 661 163 731 191.5 c 128,-1,12
 801 220 801 220 844.5 277 c 128,-1,13
 888 334 888 334 888 421 c 0,14,15
 888 500 888 500 852 554 c 128,-1,16
 816 608 816 608 753 635.5 c 128,-1,17
 690 663 690 663 610 663 c 2,18,-1
 480 663 l 1,19,-1
 480 836 l 1,20,-1
 610 836 l 2,21,22
 710 836 710 836 760 891.5 c 128,-1,23
 810 947 810 947 810 1034 c 0,24,25
 810 1104 810 1104 778 1152 c 128,-1,26
 746 1200 746 1200 693.5 1224.5 c 128,-1,27
 641 1249 641 1249 578 1249 c 0,28,29
 477 1249 477 1249 409 1189.5 c 128,-1,30
 341 1130 341 1130 337 1023 c 1,31,-1
 149 1040 l 1,32,33
 149 1167 149 1167 207.5 1255 c 128,-1,34
 266 1343 266 1343 363.5 1388.5 c 128,-1,35
 461 1434 461 1434 576 1434 c 0,36,37
 686 1434 686 1434 784 1390.5 c 128,-1,38
 882 1347 882 1347 944 1258 c 0,39,40
 1002 1173 1002 1173 1002 1059 c 0,41,42
 1002 972 1002 972 965 894.5 c 128,-1,43
 928 817 928 817 857 765 c 1,44,45
 970 713 970 713 1023 620 c 128,-1,46
 1076 527 1076 527 1078 411 c 0,47,48
 1078 269 1078 269 1010.5 173 c 128,-1,49
 943 77 943 77 830 28.5 c 128,-1,50
 717 -20 717 -20 581 -20 c 0,0,1
EndSplineSet
Substitution2: "'subs' Subscript lookup 22 subtable" uni2083
Substitution2: "'sinf' Scientific Inferiors lookup 21 subtable" uni2083
Substitution2: "'sups' Superscript lookup 19 subtable" threesuperior
Substitution2: "'aalt' Access All Alternates lookup 0 subtable" threesuperior
EndChar

StartChar: four
Encoding: 52 52 23
Width: 1200
GlyphClass: 1
Flags: W
LayerCount: 2
Fore
SplineSet
891 0 m 1,0,-1
 696 0 l 1,1,-1
 696 360 l 1,2,-1
 58 360 l 1,3,-1
 58 472 l 1,4,-1
 718 1413 l 1,5,-1
 891 1413 l 1,6,-1
 891 535 l 1,7,-1
 1111 535 l 1,8,-1
 1111 360 l 1,9,-1
 891 360 l 1,10,-1
 891 0 l 1,0,-1
696 535 m 1,11,-1
 696 1101 l 1,12,-1
 300 535 l 1,13,-1
 696 535 l 1,11,-1
EndSplineSet
Substitution2: "'subs' Subscript lookup 22 subtable" uni2084
Substitution2: "'sinf' Scientific Inferiors lookup 21 subtable" uni2084
Substitution2: "'sups' Superscript lookup 19 subtable" uni2074
Substitution2: "'aalt' Access All Alternates lookup 0 subtable" uni2074
EndChar

StartChar: five
Encoding: 53 53 24
Width: 1200
GlyphClass: 1
Flags: W
LayerCount: 2
Fore
SplineSet
595 -20 m 0,0,1
 469 -20 469 -20 368.5 35.5 c 128,-1,2
 268 91 268 91 202 183.5 c 128,-1,3
 136 276 136 276 111 390 c 1,4,-1
 296 446 l 1,5,6
 320 325 320 325 391 241.5 c 128,-1,7
 462 158 462 158 593 158 c 0,8,9
 685 158 685 158 749 204 c 128,-1,10
 813 250 813 250 847 321.5 c 128,-1,11
 881 393 881 393 881 472 c 0,12,13
 881 548 881 548 850 616 c 128,-1,14
 819 684 819 684 756.5 727 c 128,-1,15
 694 770 694 770 600 770 c 0,16,17
 524 770 524 770 452.5 733 c 128,-1,18
 381 696 381 696 335 625 c 1,19,-1
 155 686 l 1,20,-1
 285 1413 l 1,21,-1
 1025 1413 l 1,22,-1
 1025 1230 l 1,23,-1
 444 1230 l 1,24,-1
 379 864 l 1,25,26
 483 946 483 946 628 946 c 0,27,28
 766 946 766 946 869.5 879 c 128,-1,29
 973 812 973 812 1030.5 703.5 c 128,-1,30
 1088 595 1088 595 1088 471 c 0,31,32
 1088 336 1088 336 1021.5 225 c 128,-1,33
 955 114 955 114 843 47 c 128,-1,34
 731 -20 731 -20 595 -20 c 0,0,1
EndSplineSet
Substitution2: "'subs' Subscript lookup 22 subtable" uni2085
Substitution2: "'sinf' Scientific Inferiors lookup 21 subtable" uni2085
Substitution2: "'sups' Superscript lookup 19 subtable" uni2075
Substitution2: "'aalt' Access All Alternates lookup 0 subtable" uni2075
EndChar

StartChar: six
Encoding: 54 54 25
Width: 1200
GlyphClass: 1
Flags: W
LayerCount: 2
Fore
SplineSet
604 -20 m 0,0,1
 461 -20 461 -20 350.5 47 c 128,-1,2
 240 114 240 114 177.5 222.5 c 128,-1,3
 115 331 115 331 115 457 c 0,4,5
 115 594 115 594 187 705 c 1,6,-1
 604 1413 l 1,7,-1
 833 1413 l 1,8,-1
 524 916 l 1,9,10
 571 923 571 923 605 923 c 0,11,12
 741 923 741 923 851.5 863.5 c 128,-1,13
 962 804 962 804 1028 699 c 128,-1,14
 1094 594 1094 594 1094 463 c 0,15,16
 1094 337 1094 337 1032 226.5 c 128,-1,17
 970 116 970 116 859.5 48 c 128,-1,18
 749 -20 749 -20 604 -20 c 0,0,1
605 167 m 0,19,20
 690 167 690 167 756 208.5 c 128,-1,21
 822 250 822 250 860 317.5 c 128,-1,22
 898 385 898 385 898 461 c 0,23,24
 898 547 898 547 856.5 613.5 c 128,-1,25
 815 680 815 680 748 717.5 c 128,-1,26
 681 755 681 755 605 755 c 0,27,28
 520 755 520 755 454 714 c 128,-1,29
 388 673 388 673 350 606 c 128,-1,30
 312 539 312 539 312 461 c 0,31,32
 312 377 312 377 353 310.5 c 128,-1,33
 394 244 394 244 460.5 205.5 c 128,-1,34
 527 167 527 167 605 167 c 0,19,20
EndSplineSet
Substitution2: "'subs' Subscript lookup 22 subtable" uni2086
Substitution2: "'sinf' Scientific Inferiors lookup 21 subtable" uni2086
Substitution2: "'sups' Superscript lookup 19 subtable" uni2076
Substitution2: "'aalt' Access All Alternates lookup 0 subtable" uni2076
EndChar

StartChar: seven
Encoding: 55 55 26
Width: 1200
GlyphClass: 1
Flags: W
LayerCount: 2
Fore
SplineSet
474 0 m 1,0,-1
 250 0 l 1,1,-1
 850 1231 l 1,2,-1
 114 1231 l 1,3,-1
 114 1413 l 1,4,-1
 1091 1413 l 1,5,-1
 1091 1311 l 1,6,-1
 474 0 l 1,0,-1
EndSplineSet
Substitution2: "'subs' Subscript lookup 22 subtable" uni2087
Substitution2: "'sinf' Scientific Inferiors lookup 21 subtable" uni2087
Substitution2: "'sups' Superscript lookup 19 subtable" uni2077
Substitution2: "'aalt' Access All Alternates lookup 0 subtable" uni2077
EndChar

StartChar: eight
Encoding: 56 56 27
Width: 1200
GlyphClass: 1
Flags: W
LayerCount: 2
Fore
SplineSet
600 -20 m 0,0,1
 504 -20 504 -20 415 5.5 c 128,-1,2
 326 31 326 31 256 82.5 c 128,-1,3
 186 134 186 134 144.5 212.5 c 128,-1,4
 103 291 103 291 103 397 c 0,5,6
 103 527 103 527 164.5 619 c 128,-1,7
 226 711 226 711 332 763 c 1,8,9
 253 817 253 817 214 894.5 c 128,-1,10
 175 972 175 972 175 1060 c 0,11,12
 175 1180 175 1180 234.5 1263.5 c 128,-1,13
 294 1347 294 1347 391.5 1390.5 c 128,-1,14
 489 1434 489 1434 601 1434 c 0,15,16
 710 1434 710 1434 807.5 1391 c 128,-1,17
 905 1348 905 1348 968 1260 c 0,18,19
 1026 1175 1026 1175 1026 1061 c 0,20,21
 1026 965 1026 965 984.5 889 c 128,-1,22
 943 813 943 813 871 763 c 1,23,24
 981 708 981 708 1039 614 c 128,-1,25
 1097 520 1097 520 1097 398 c 0,26,27
 1097 259 1097 259 1028 166 c 128,-1,28
 959 73 959 73 846 26.5 c 128,-1,29
 733 -20 733 -20 600 -20 c 0,0,1
605 833 m 0,30,31
 668 833 668 833 720 857.5 c 128,-1,32
 772 882 772 882 803 930 c 128,-1,33
 834 978 834 978 834 1047 c 0,34,35
 834 1118 834 1118 802.5 1166 c 128,-1,36
 771 1214 771 1214 719 1239 c 128,-1,37
 667 1264 667 1264 604 1264 c 0,38,39
 546 1264 546 1264 493.5 1241 c 128,-1,40
 441 1218 441 1218 407.5 1172 c 128,-1,41
 374 1126 374 1126 374 1056 c 0,42,43
 374 951 374 951 439 892 c 128,-1,44
 504 833 504 833 605 833 c 0,30,31
599 150 m 0,45,46
 675 150 675 150 743 177.5 c 128,-1,47
 811 205 811 205 853.5 262.5 c 128,-1,48
 896 320 896 320 896 409 c 0,49,50
 896 493 896 493 855.5 551 c 128,-1,51
 815 609 815 609 747.5 639 c 128,-1,52
 680 669 680 669 599 669 c 0,53,54
 517 669 517 669 449.5 639.5 c 128,-1,55
 382 610 382 610 341.5 552.5 c 128,-1,56
 301 495 301 495 301 410 c 0,57,58
 301 324 301 324 342 266.5 c 128,-1,59
 383 209 383 209 451 179.5 c 128,-1,60
 519 150 519 150 599 150 c 0,45,46
EndSplineSet
Substitution2: "'subs' Subscript lookup 22 subtable" uni2088
Substitution2: "'sinf' Scientific Inferiors lookup 21 subtable" uni2088
Substitution2: "'sups' Superscript lookup 19 subtable" uni2078
Substitution2: "'aalt' Access All Alternates lookup 0 subtable" uni2078
EndChar

StartChar: nine
Encoding: 57 57 28
Width: 1200
GlyphClass: 1
Flags: W
LayerCount: 2
Fore
SplineSet
596 0 m 1,0,-1
 370 0 l 1,1,-1
 676 497 l 1,2,3
 630 490 630 490 595 490 c 0,4,5
 463 490 463 490 351.5 548.5 c 128,-1,6
 240 607 240 607 173 713.5 c 128,-1,7
 106 820 106 820 106 950 c 0,8,9
 106 1078 106 1078 169 1188 c 128,-1,10
 232 1298 232 1298 343 1366 c 128,-1,11
 454 1434 454 1434 597 1434 c 0,12,13
 737 1434 737 1434 846.5 1368 c 128,-1,14
 956 1302 956 1302 1020.5 1194 c 128,-1,15
 1085 1086 1085 1086 1085 956 c 0,16,17
 1085 820 1085 820 1015 709 c 2,18,-1
 596 0 l 1,0,-1
595 658 m 0,19,20
 681 658 681 658 747.5 699.5 c 128,-1,21
 814 741 814 741 851.5 808 c 128,-1,22
 889 875 889 875 889 952 c 0,23,24
 889 1037 889 1037 848 1104 c 128,-1,25
 807 1171 807 1171 740 1209 c 128,-1,26
 673 1247 673 1247 595 1247 c 0,27,28
 511 1247 511 1247 445 1205.5 c 128,-1,29
 379 1164 379 1164 341 1097 c 128,-1,30
 303 1030 303 1030 303 952 c 0,31,32
 303 866 303 866 344 800 c 128,-1,33
 385 734 385 734 452 696 c 128,-1,34
 519 658 519 658 595 658 c 0,19,20
EndSplineSet
Substitution2: "'subs' Subscript lookup 22 subtable" uni2089
Substitution2: "'sinf' Scientific Inferiors lookup 21 subtable" uni2089
Substitution2: "'sups' Superscript lookup 19 subtable" uni2079
Substitution2: "'aalt' Access All Alternates lookup 0 subtable" uni2079
EndChar

StartChar: colon
Encoding: 58 58 29
Width: 600
GlyphClass: 1
Flags: W
LayerCount: 2
Fore
SplineSet
414 728 m 1,0,-1
 185 728 l 1,1,-1
 185 954 l 1,2,-1
 414 954 l 1,3,-1
 414 728 l 1,0,-1
414 0 m 1,4,-1
 185 0 l 1,5,-1
 185 227 l 1,6,-1
 414 227 l 1,7,-1
 414 0 l 1,4,-1
EndSplineSet
EndChar

StartChar: semicolon
Encoding: 59 59 30
Width: 600
GlyphClass: 1
Flags: W
LayerCount: 2
Fore
SplineSet
429 728 m 1,0,-1
 200 728 l 1,1,-1
 200 954 l 1,2,-1
 429 954 l 1,3,-1
 429 728 l 1,0,-1
215 -315 m 1,4,-1
 90 -315 l 1,5,-1
 229 264 l 1,6,-1
 464 264 l 1,7,-1
 215 -315 l 1,4,-1
EndSplineSet
EndChar

StartChar: less
Encoding: 60 60 31
Width: 1223
GlyphClass: 1
Flags: W
LayerCount: 2
Fore
SplineSet
1014 161 m 1,0,-1
 76 674 l 1,1,-1
 1014 1186 l 1,2,-1
 1099 1040 l 1,3,-1
 393 674 l 1,4,-1
 1099 307 l 1,5,-1
 1014 161 l 1,0,-1
EndSplineSet
EndChar

StartChar: equal
Encoding: 61 61 32
Width: 1265
GlyphClass: 1
Flags: W
LayerCount: 2
Fore
SplineSet
1029 764 m 1,0,-1
 237 764 l 1,1,-1
 237 933 l 1,2,-1
 1029 933 l 1,3,-1
 1029 764 l 1,0,-1
1029 410 m 1,4,-1
 237 410 l 1,5,-1
 237 580 l 1,6,-1
 1029 580 l 1,7,-1
 1029 410 l 1,4,-1
EndSplineSet
EndChar

StartChar: greater
Encoding: 62 62 33
Width: 1223
GlyphClass: 1
Flags: W
LayerCount: 2
Fore
SplineSet
209 161 m 1,0,-1
 124 307 l 1,1,-1
 830 674 l 1,2,-1
 124 1040 l 1,3,-1
 209 1186 l 1,4,-1
 1148 674 l 1,5,-1
 209 161 l 1,0,-1
EndSplineSet
EndChar

StartChar: question
Encoding: 63 63 34
Width: 1010
GlyphClass: 1
Flags: W
LayerCount: 2
Fore
SplineSet
582 399 m 1,0,-1
 412 399 l 1,1,-1
 412 588 l 2,2,3
 412 724 412 724 497 788 c 0,4,5
 537 817 537 817 591 847 c 0,6,7
 640 874 640 874 674 898 c 0,8,9
 746 951 746 951 746 1057 c 0,10,11
 746 1130 746 1130 713.5 1177 c 128,-1,12
 681 1224 681 1224 624.5 1246 c 128,-1,13
 568 1268 568 1268 496 1268 c 0,14,15
 386 1268 386 1268 318.5 1208 c 128,-1,16
 251 1148 251 1148 248 1029 c 1,17,-1
 70 1029 l 1,18,19
 70 1159 70 1159 126 1249 c 128,-1,20
 182 1339 182 1339 277 1386.5 c 128,-1,21
 372 1434 372 1434 488 1434 c 0,22,23
 602 1434 602 1434 701.5 1392 c 128,-1,24
 801 1350 801 1350 864 1260 c 0,25,26
 922 1173 922 1173 922 1053 c 0,27,28
 922 887 922 887 818 798 c 0,29,30
 774 761 774 761 706 724 c 0,31,32
 643 690 643 690 612.5 661 c 128,-1,33
 582 632 582 632 582 586 c 2,34,-1
 582 399 l 1,0,-1
615 0 m 1,35,-1
 386 0 l 1,36,-1
 386 227 l 1,37,-1
 615 227 l 1,38,-1
 615 0 l 1,35,-1
EndSplineSet
EndChar

StartChar: at
Encoding: 64 64 35
Width: 2042
GlyphClass: 1
Flags: W
LayerCount: 2
Fore
SplineSet
1013 -348 m 0,0,1
 769 -348 769 -348 566.5 -242.5 c 128,-1,2
 364 -137 364 -137 245 59.5 c 128,-1,3
 126 256 126 256 126 518 c 0,4,5
 126 773 126 773 240 982 c 128,-1,6
 354 1191 354 1191 560 1311.5 c 128,-1,7
 766 1432 766 1432 1031 1432 c 0,8,9
 1294 1432 1294 1432 1496.5 1314 c 128,-1,10
 1699 1196 1699 1196 1809.5 995.5 c 128,-1,11
 1920 795 1920 795 1920 553 c 0,12,13
 1920 393 1920 393 1869.5 252 c 128,-1,14
 1819 111 1819 111 1716.5 23.5 c 128,-1,15
 1614 -64 1614 -64 1465 -64 c 0,16,17
 1333 -64 1333 -64 1261 5 c 0,18,19
 1192 71 1192 71 1192 192 c 1,20,21
 1132 126 1132 126 1052 90.5 c 128,-1,22
 972 55 972 55 886 55 c 0,23,24
 781 55 781 55 708 108 c 128,-1,25
 635 161 635 161 598.5 249 c 128,-1,26
 562 337 562 337 562 443 c 0,27,28
 562 581 562 581 620 722 c 128,-1,29
 678 863 678 863 786 956 c 128,-1,30
 894 1049 894 1049 1035 1049 c 0,31,32
 1131 1049 1131 1049 1201.5 1004 c 128,-1,33
 1272 959 1272 959 1300 885 c 1,34,-1
 1323 1000 l 1,35,-1
 1495 1000 l 1,36,37
 1485 944 1485 944 1453 810 c 0,38,39
 1395 574 1395 574 1370.5 450.5 c 128,-1,40
 1346 327 1346 327 1346 240 c 0,41,42
 1346 168 1346 168 1370.5 139.5 c 128,-1,43
 1395 111 1395 111 1458 111 c 0,44,45
 1563 111 1563 111 1629.5 177 c 128,-1,46
 1696 243 1696 243 1725.5 345 c 128,-1,47
 1755 447 1755 447 1755 556 c 0,48,49
 1755 753 1755 753 1666 916 c 128,-1,50
 1577 1079 1577 1079 1413 1174.5 c 128,-1,51
 1249 1270 1249 1270 1033 1270 c 0,52,53
 813 1270 813 1270 644.5 1171 c 128,-1,54
 476 1072 476 1072 384 901.5 c 128,-1,55
 292 731 292 731 292 522 c 0,56,57
 292 306 292 306 389 147.5 c 128,-1,58
 486 -11 486 -11 651 -94 c 128,-1,59
 816 -177 816 -177 1015 -177 c 0,60,61
 1134 -177 1134 -177 1261 -138 c 1,62,-1
 1320 -296 l 1,63,64
 1247 -321 1247 -321 1173 -334.5 c 128,-1,65
 1099 -348 1099 -348 1013 -348 c 0,0,1
903 225 m 0,66,67
 1008 225 1008 225 1085 294 c 0,68,69
 1165 368 1165 368 1203.5 470.5 c 128,-1,70
 1242 573 1242 573 1242 670 c 0,71,72
 1242 878 1242 878 1062 878 c 0,73,74
 956 878 956 878 879 810 c 0,75,76
 798 736 798 736 759.5 634.5 c 128,-1,77
 721 533 721 533 721 437 c 256,78,79
 721 341 721 341 764 283 c 128,-1,80
 807 225 807 225 903 225 c 0,66,67
EndSplineSet
EndChar

StartChar: A
Encoding: 65 65 36
Width: 1323
GlyphClass: 1
Flags: W
LayerCount: 2
Fore
SplineSet
1284 0 m 1,0,-1
 1065 0 l 1,1,-1
 957 307 l 1,2,-1
 370 307 l 1,3,-1
 261 0 l 1,4,-1
 39 0 l 1,5,-1
 586 1413 l 1,6,-1
 740 1413 l 1,7,-1
 1284 0 l 1,0,-1
888 486 m 1,8,-1
 664 1114 l 1,9,-1
 438 486 l 1,10,-1
 888 486 l 1,8,-1
EndSplineSet
Substitution2: "Single Substitution lookup 3 subtable" ordfeminine
Substitution2: "Single Substitution lookup 2 subtable" ordfeminine
Position2: "'cpsp' Capital Spacing lookup 0 subtable" dx=5 dy=0 dh=10 dv=0
EndChar

StartChar: B
Encoding: 66 66 37
Width: 1257
GlyphClass: 1
Flags: W
LayerCount: 2
Fore
SplineSet
703 0 m 2,0,-1
 198 0 l 1,1,-1
 198 1413 l 1,2,-1
 635 1413 l 2,3,4
 722 1413 722 1413 803 1393 c 128,-1,5
 884 1373 884 1373 948 1329.5 c 128,-1,6
 1012 1286 1012 1286 1050 1217 c 128,-1,7
 1088 1148 1088 1148 1088 1049 c 0,8,9
 1088 941 1088 941 1039.5 866.5 c 128,-1,10
 991 792 991 792 917 751 c 1,11,12
 986 722 986 722 1040 671 c 128,-1,13
 1094 620 1094 620 1125.5 549.5 c 128,-1,14
 1157 479 1157 479 1157 392 c 0,15,16
 1157 259 1157 259 1093.5 172 c 128,-1,17
 1030 85 1030 85 926.5 42.5 c 128,-1,18
 823 0 823 0 703 0 c 2,0,-1
647 816 m 2,19,20
 755 816 755 816 823 867.5 c 128,-1,21
 891 919 891 919 891 1031 c 0,22,23
 891 1136 891 1136 821.5 1183 c 128,-1,24
 752 1230 752 1230 638 1230 c 2,25,-1
 400 1230 l 1,26,-1
 400 816 l 1,27,-1
 647 816 l 2,19,20
707 191 m 2,28,29
 821 191 821 191 889 243 c 128,-1,30
 957 295 957 295 957 410 c 0,31,32
 957 488 957 488 923.5 538.5 c 128,-1,33
 890 589 890 589 832.5 613.5 c 128,-1,34
 775 638 775 638 704 638 c 2,35,-1
 400 638 l 1,36,-1
 400 191 l 1,37,-1
 707 191 l 2,28,29
EndSplineSet
Position2: "'cpsp' Capital Spacing lookup 0 subtable" dx=5 dy=0 dh=10 dv=0
EndChar

StartChar: C
Encoding: 67 67 38
Width: 1425
GlyphClass: 1
Flags: W
LayerCount: 2
Fore
SplineSet
762 -20 m 0,0,1
 546 -20 546 -20 398 78 c 0,2,3
 295 146 295 146 230 244 c 128,-1,4
 165 342 165 342 135 460.5 c 128,-1,5
 105 579 105 579 105 707 c 256,6,7
 105 835 105 835 135 953.5 c 128,-1,8
 165 1072 165 1072 229.5 1170 c 128,-1,9
 294 1268 294 1268 397 1338 c 0,10,11
 544 1436 544 1436 760 1436 c 0,12,13
 954 1436 954 1436 1110 1340.5 c 128,-1,14
 1266 1245 1266 1245 1355 1046 c 1,15,-1
 1167 968 l 1,16,17
 1127 1111 1127 1111 1019.5 1177.5 c 128,-1,18
 912 1244 912 1244 758 1244 c 0,19,20
 602 1244 602 1244 502 1173.5 c 128,-1,21
 402 1103 402 1103 354 983.5 c 128,-1,22
 306 864 306 864 306 717 c 0,23,24
 306 476 306 476 413 331 c 0,25,26
 531 171 531 171 762 171 c 0,27,28
 917 171 917 171 1016.5 240.5 c 128,-1,29
 1116 310 1116 310 1170 450 c 1,30,-1
 1357 371 l 1,31,32
 1272 178 1272 178 1117 79 c 128,-1,33
 962 -20 962 -20 762 -20 c 0,0,1
EndSplineSet
Position2: "'cpsp' Capital Spacing lookup 0 subtable" dx=5 dy=0 dh=10 dv=0
EndChar

StartChar: D
Encoding: 68 68 39
Width: 1407
GlyphClass: 1
Flags: W
LayerCount: 2
Fore
SplineSet
579 0 m 2,0,-1
 198 0 l 1,1,-1
 198 1413 l 1,2,-1
 581 1413 l 2,3,4
 935 1413 935 1413 1119.5 1227 c 128,-1,5
 1304 1041 1304 1041 1304 696 c 0,6,7
 1304 358 1304 358 1113 179 c 128,-1,8
 922 0 922 0 579 0 c 2,0,-1
555 186 m 2,9,10
 809 186 809 186 955 313 c 128,-1,11
 1101 440 1101 440 1101 707 c 0,12,13
 1101 891 1101 891 1041.5 1006 c 128,-1,14
 982 1121 982 1121 865.5 1174.5 c 128,-1,15
 749 1228 749 1228 577 1228 c 2,16,-1
 401 1228 l 1,17,-1
 401 186 l 1,18,-1
 555 186 l 2,9,10
EndSplineSet
Position2: "'cpsp' Capital Spacing lookup 0 subtable" dx=5 dy=0 dh=10 dv=0
EndChar

StartChar: E
Encoding: 69 69 40
Width: 1242
GlyphClass: 1
Flags: W
LayerCount: 2
Fore
SplineSet
1125 0 m 1,0,-1
 198 0 l 1,1,-1
 198 1413 l 1,2,-1
 1125 1413 l 1,3,-1
 1125 1231 l 1,4,-1
 401 1231 l 1,5,-1
 401 797 l 1,6,-1
 1050 797 l 1,7,-1
 1050 617 l 1,8,-1
 401 617 l 1,9,-1
 401 189 l 1,10,-1
 1125 189 l 1,11,-1
 1125 0 l 1,0,-1
EndSplineSet
Position2: "'cpsp' Capital Spacing lookup 0 subtable" dx=5 dy=0 dh=10 dv=0
EndChar

StartChar: F
Encoding: 70 70 41
Width: 1214
GlyphClass: 1
Flags: W
LayerCount: 2
Fore
SplineSet
401 0 m 1,0,-1
 198 0 l 1,1,-1
 198 1413 l 1,2,-1
 1149 1413 l 1,3,-1
 1149 1231 l 1,4,-1
 401 1231 l 1,5,-1
 401 797 l 1,6,-1
 1061 797 l 1,7,-1
 1061 617 l 1,8,-1
 401 617 l 1,9,-1
 401 0 l 1,0,-1
EndSplineSet
Position2: "'cpsp' Capital Spacing lookup 0 subtable" dx=5 dy=0 dh=10 dv=0
EndChar

StartChar: G
Encoding: 71 71 42
Width: 1521
GlyphClass: 1
Flags: W
LayerCount: 2
Fore
SplineSet
762 -20 m 0,0,1
 546 -20 546 -20 398 78 c 0,2,3
 295 146 295 146 230 244 c 128,-1,4
 165 342 165 342 135 460.5 c 128,-1,5
 105 579 105 579 105 707 c 0,6,7
 105 899 105 899 174.5 1065.5 c 128,-1,8
 244 1232 244 1232 398 1338 c 0,9,10
 545 1436 545 1436 760 1436 c 0,11,12
 956 1436 956 1436 1111 1340 c 128,-1,13
 1266 1244 1266 1244 1354 1046 c 1,14,-1
 1172 968 l 1,15,16
 1112 1115 1112 1115 1003.5 1184 c 128,-1,17
 895 1253 895 1253 758 1253 c 0,18,19
 642 1253 642 1253 556.5 1211 c 128,-1,20
 471 1169 471 1169 415.5 1095 c 128,-1,21
 360 1021 360 1021 333 924 c 128,-1,22
 306 827 306 827 306 717 c 0,23,24
 306 604 306 604 332 504 c 128,-1,25
 358 404 358 404 413 328 c 128,-1,26
 468 252 468 252 554.5 208.5 c 128,-1,27
 641 165 641 165 762 165 c 0,28,29
 869 165 869 165 963 212 c 128,-1,30
 1057 259 1057 259 1119 356 c 0,31,32
 1177 449 1177 449 1185 576 c 1,33,-1
 862 576 l 1,34,-1
 862 738 l 1,35,-1
 1379 738 l 1,36,-1
 1379 0 l 1,37,-1
 1215 0 l 1,38,-1
 1204 230 l 1,39,40
 1171 161 1171 161 1109 104.5 c 128,-1,41
 1047 48 1047 48 959 14 c 128,-1,42
 871 -20 871 -20 762 -20 c 0,0,1
EndSplineSet
Position2: "'cpsp' Capital Spacing lookup 0 subtable" dx=5 dy=0 dh=10 dv=0
EndChar

StartChar: H
Encoding: 72 72 43
Width: 1472
GlyphClass: 1
Flags: W
LayerCount: 2
Fore
SplineSet
1274 0 m 1,0,-1
 1070 0 l 1,1,-1
 1070 617 l 1,2,-1
 401 617 l 1,3,-1
 401 0 l 1,4,-1
 198 0 l 1,5,-1
 198 1413 l 1,6,-1
 401 1413 l 1,7,-1
 401 797 l 1,8,-1
 1070 797 l 1,9,-1
 1070 1413 l 1,10,-1
 1274 1413 l 1,11,-1
 1274 0 l 1,0,-1
EndSplineSet
Position2: "'cpsp' Capital Spacing lookup 0 subtable" dx=5 dy=0 dh=10 dv=0
EndChar

StartChar: I
Encoding: 73 73 44
Width: 599
GlyphClass: 1
Flags: W
LayerCount: 2
Fore
SplineSet
401 0 m 1,0,-1
 198 0 l 1,1,-1
 198 1413 l 1,2,-1
 401 1413 l 1,3,-1
 401 0 l 1,0,-1
EndSplineSet
Position2: "'cpsp' Capital Spacing lookup 0 subtable" dx=5 dy=0 dh=10 dv=0
EndChar

StartChar: J
Encoding: 74 74 45
Width: 1128
GlyphClass: 1
Flags: W
LayerCount: 2
Fore
SplineSet
503 -20 m 0,0,1
 366 -20 366 -20 268.5 39.5 c 128,-1,2
 171 99 171 99 116 197.5 c 128,-1,3
 61 296 61 296 52 417 c 1,4,-1
 252 441 l 1,5,6
 260 322 260 322 322.5 243.5 c 128,-1,7
 385 165 385 165 503 165 c 0,8,9
 599 165 599 165 653.5 202.5 c 128,-1,10
 708 240 708 240 730.5 313.5 c 128,-1,11
 753 387 753 387 753 495 c 2,12,-1
 753 1413 l 1,13,-1
 956 1413 l 1,14,-1
 956 506 l 2,15,16
 956 261 956 261 847 120.5 c 128,-1,17
 738 -20 738 -20 503 -20 c 0,0,1
EndSplineSet
Position2: "'cpsp' Capital Spacing lookup 0 subtable" dx=5 dy=0 dh=10 dv=0
EndChar

StartChar: K
Encoding: 75 75 46
Width: 1470
GlyphClass: 1
Flags: W
LayerCount: 2
Fore
SplineSet
1429 0 m 1,0,-1
 1180 0 l 1,1,-1
 719 708 l 1,2,-1
 401 379 l 1,3,-1
 401 0 l 1,4,-1
 198 0 l 1,5,-1
 198 1413 l 1,6,-1
 401 1413 l 1,7,-1
 401 627 l 1,8,-1
 1139 1413 l 1,9,-1
 1407 1413 l 1,10,-1
 858 846 l 1,11,-1
 1429 0 l 1,0,-1
EndSplineSet
Position2: "'cpsp' Capital Spacing lookup 0 subtable" dx=5 dy=0 dh=10 dv=0
EndChar

StartChar: L
Encoding: 76 76 47
Width: 1049
GlyphClass: 1
Flags: W
LayerCount: 2
Fore
SplineSet
1006 0 m 1,0,-1
 198 0 l 1,1,-1
 198 1413 l 1,2,-1
 401 1413 l 1,3,-1
 401 189 l 1,4,-1
 1006 189 l 1,5,-1
 1006 0 l 1,0,-1
EndSplineSet
Position2: "'cpsp' Capital Spacing lookup 0 subtable" dx=5 dy=0 dh=10 dv=0
EndChar

StartChar: M
Encoding: 77 77 48
Width: 1779
GlyphClass: 1
Flags: W
LayerCount: 2
Fore
SplineSet
1581 0 m 1,0,-1
 1383 0 l 1,1,-1
 1383 1173 l 1,2,-1
 993 123 l 1,3,-1
 786 123 l 1,4,-1
 396 1173 l 1,5,-1
 396 0 l 1,6,-1
 198 0 l 1,7,-1
 198 1413 l 1,8,-1
 496 1413 l 1,9,-1
 888 339 l 1,10,-1
 1283 1413 l 1,11,-1
 1581 1413 l 1,12,-1
 1581 0 l 1,0,-1
EndSplineSet
Position2: "'cpsp' Capital Spacing lookup 0 subtable" dx=5 dy=0 dh=10 dv=0
EndChar

StartChar: N
Encoding: 78 78 49
Width: 1435
GlyphClass: 1
Flags: W
LayerCount: 2
Fore
SplineSet
1237 0 m 1,0,-1
 994 0 l 1,1,-1
 396 1127 l 1,2,-1
 396 0 l 1,3,-1
 198 0 l 1,4,-1
 198 1413 l 1,5,-1
 438 1413 l 1,6,-1
 1039 288 l 1,7,-1
 1039 1413 l 1,8,-1
 1237 1413 l 1,9,-1
 1237 0 l 1,0,-1
EndSplineSet
Position2: "'cpsp' Capital Spacing lookup 0 subtable" dx=5 dy=0 dh=10 dv=0
EndChar

StartChar: O
Encoding: 79 79 50
Width: 1521
GlyphClass: 1
Flags: W
LayerCount: 2
Fore
SplineSet
760 -20 m 256,0,1
 545 -20 545 -20 398 78 c 0,2,3
 244 183 244 183 174 349.5 c 128,-1,4
 104 516 104 516 104 707 c 256,5,6
 104 898 104 898 174 1064.5 c 128,-1,7
 244 1231 244 1231 398 1336 c 0,8,9
 545 1434 545 1434 760 1434 c 256,10,11
 975 1434 975 1434 1123 1336 c 0,12,13
 1277 1231 1277 1231 1347 1064.5 c 128,-1,14
 1417 898 1417 898 1417 707 c 256,15,16
 1417 516 1417 516 1347 349.5 c 128,-1,17
 1277 183 1277 183 1123 78 c 0,18,19
 975 -20 975 -20 760 -20 c 256,0,1
760 163 m 0,20,21
 915 163 915 163 1016 237 c 0,22,23
 1120 315 1120 315 1165 438.5 c 128,-1,24
 1210 562 1210 562 1210 707 c 0,25,26
 1210 817 1210 817 1184.5 915.5 c 128,-1,27
 1159 1014 1159 1014 1105 1089 c 128,-1,28
 1051 1164 1051 1164 965.5 1207 c 128,-1,29
 880 1250 880 1250 760 1250 c 0,30,31
 606 1250 606 1250 506 1176 c 0,32,33
 402 1097 402 1097 357 974 c 128,-1,34
 312 851 312 851 312 707 c 0,35,36
 312 596 312 596 337.5 497.5 c 128,-1,37
 363 399 363 399 417 324 c 128,-1,38
 471 249 471 249 556 206 c 128,-1,39
 641 163 641 163 760 163 c 0,20,21
EndSplineSet
Substitution2: "Single Substitution lookup 3 subtable" ordmasculine
Substitution2: "Single Substitution lookup 2 subtable" ordmasculine
Position2: "'cpsp' Capital Spacing lookup 0 subtable" dx=5 dy=0 dh=10 dv=0
EndChar

StartChar: P
Encoding: 80 80 51
Width: 1157
GlyphClass: 1
Flags: W
LayerCount: 2
Fore
SplineSet
400 0 m 1,0,-1
 198 0 l 1,1,-1
 198 1413 l 1,2,-1
 616 1413 l 2,3,4
 750 1413 750 1413 857.5 1367.5 c 128,-1,5
 965 1322 965 1322 1027.5 1232 c 128,-1,6
 1090 1142 1090 1142 1090 1010 c 0,7,8
 1090 881 1090 881 1029.5 793 c 128,-1,9
 969 705 969 705 862 659.5 c 128,-1,10
 755 614 755 614 616 614 c 2,11,-1
 400 614 l 1,12,-1
 400 0 l 1,0,-1
616 800 m 2,13,14
 889 800 889 800 889 1010 c 0,15,16
 889 1109 889 1109 822.5 1168 c 128,-1,17
 756 1227 756 1227 616 1227 c 2,18,-1
 400 1227 l 1,19,-1
 400 800 l 1,20,-1
 616 800 l 2,13,14
EndSplineSet
Position2: "'cpsp' Capital Spacing lookup 0 subtable" dx=5 dy=0 dh=10 dv=0
EndChar

StartChar: Q
Encoding: 81 81 52
Width: 1558
GlyphClass: 1
Flags: W
LayerCount: 2
Fore
SplineSet
1340 -107 m 1,0,-1
 1143 94 l 1,1,2
 991 -20 991 -20 760 -20 c 0,3,4
 545 -20 545 -20 398 78 c 0,5,6
 244 183 244 183 174 349.5 c 128,-1,7
 104 516 104 516 104 707 c 256,8,9
 104 898 104 898 174 1064.5 c 128,-1,10
 244 1231 244 1231 398 1336 c 0,11,12
 545 1434 545 1434 760 1434 c 256,13,14
 975 1434 975 1434 1123 1336 c 0,15,16
 1277 1230 1277 1230 1347 1063.5 c 128,-1,17
 1417 897 1417 897 1417 705 c 0,18,19
 1417 567 1417 567 1380.5 438.5 c 128,-1,20
 1344 310 1344 310 1269 211 c 1,21,-1
 1468 16 l 1,22,-1
 1340 -107 l 1,0,-1
760 169 m 0,23,24
 902 169 902 169 1000 231 c 1,25,-1
 804 422 l 1,26,-1
 930 544 l 1,27,-1
 1125 354 l 1,28,29
 1214 498 1214 498 1214 707 c 0,30,31
 1214 817 1214 817 1188 914 c 128,-1,32
 1162 1011 1162 1011 1107 1085 c 128,-1,33
 1052 1159 1052 1159 966 1201.5 c 128,-1,34
 880 1244 880 1244 760 1244 c 0,35,36
 605 1244 605 1244 504 1172 c 0,37,38
 399 1094 399 1094 353 972.5 c 128,-1,39
 307 851 307 851 307 707 c 0,40,41
 307 598 307 598 332.5 501 c 128,-1,42
 358 404 358 404 412.5 329.5 c 128,-1,43
 467 255 467 255 553 212 c 128,-1,44
 639 169 639 169 760 169 c 0,23,24
EndSplineSet
Position2: "'cpsp' Capital Spacing lookup 0 subtable" dx=5 dy=0 dh=10 dv=0
EndChar

StartChar: R
Encoding: 82 82 53
Width: 1242
GlyphClass: 1
Flags: W
LayerCount: 2
Fore
SplineSet
1190 -2 m 1,0,-1
 955 -2 l 1,1,-1
 604 619 l 1,2,-1
 401 619 l 1,3,-1
 401 -2 l 1,4,-1
 198 -2 l 1,5,-1
 198 1412 l 1,6,-1
 627 1412 l 2,7,8
 750 1412 750 1412 856.5 1365.5 c 128,-1,9
 963 1319 963 1319 1030 1224 c 0,10,11
 1092 1132 1092 1132 1092 1009 c 0,12,13
 1092 869 1092 869 1012 773 c 128,-1,14
 932 677 932 677 802 642 c 1,15,-1
 1190 -2 l 1,0,-1
651 794 m 1,16,17
 758 799 758 799 824.5 852.5 c 128,-1,18
 891 906 891 906 891 1007 c 0,19,20
 891 1114 891 1114 817.5 1172.5 c 128,-1,21
 744 1231 744 1231 629 1231 c 2,22,-1
 403 1231 l 1,23,-1
 403 794 l 1,24,-1
 651 794 l 1,16,17
EndSplineSet
Position2: "'cpsp' Capital Spacing lookup 0 subtable" dx=5 dy=0 dh=10 dv=0
EndChar

StartChar: S
Encoding: 83 83 54
Width: 1125
GlyphClass: 1
Flags: W
LayerCount: 2
Fore
SplineSet
579 -16 m 0,0,1
 485 -16 485 -16 400 9.5 c 128,-1,2
 315 35 315 35 246.5 85 c 128,-1,3
 178 135 178 135 132 208.5 c 128,-1,4
 86 282 86 282 70 379 c 1,5,-1
 264 433 l 1,6,7
 273 367 273 367 299 316.5 c 128,-1,8
 325 266 325 266 366 231.5 c 128,-1,9
 407 197 407 197 461.5 179 c 128,-1,10
 516 161 516 161 581 161 c 0,11,12
 634 161 634 161 681.5 174 c 128,-1,13
 729 187 729 187 764.5 214 c 128,-1,14
 800 241 800 241 821 283.5 c 128,-1,15
 842 326 842 326 842 384 c 0,16,17
 842 445 842 445 813 488 c 128,-1,18
 784 531 784 531 736 564 c 128,-1,19
 688 597 688 597 627.5 623.5 c 128,-1,20
 567 650 567 650 503 677.5 c 128,-1,21
 439 705 439 705 378.5 737 c 128,-1,22
 318 769 318 769 270 813.5 c 128,-1,23
 222 858 222 858 193 918.5 c 128,-1,24
 164 979 164 979 164 1063 c 0,25,26
 164 1150 164 1150 196.5 1219 c 128,-1,27
 229 1288 229 1288 284.5 1335.5 c 128,-1,28
 340 1383 340 1383 414 1408.5 c 128,-1,29
 488 1434 488 1434 570 1434 c 0,30,31
 706 1434 706 1434 808.5 1375 c 128,-1,32
 911 1316 911 1316 980 1200 c 1,33,-1
 820 1098 l 1,34,35
 778 1176 778 1176 711.5 1217 c 128,-1,36
 645 1258 645 1258 557 1258 c 0,37,38
 518 1258 518 1258 482.5 1244.5 c 128,-1,39
 447 1231 447 1231 420.5 1207 c 128,-1,40
 394 1183 394 1183 378 1149.5 c 128,-1,41
 362 1116 362 1116 362 1076 c 0,42,43
 362 1019 362 1019 391 978.5 c 128,-1,44
 420 938 420 938 468 907 c 128,-1,45
 516 876 516 876 576.5 850.5 c 128,-1,46
 637 825 637 825 701 797.5 c 128,-1,47
 765 770 765 770 825.5 736.5 c 128,-1,48
 886 703 886 703 934 657 c 128,-1,49
 982 611 982 611 1011 548.5 c 128,-1,50
 1040 486 1040 486 1040 399 c 0,51,52
 1040 300 1040 300 1003 223 c 128,-1,53
 966 146 966 146 903 92.5 c 128,-1,54
 840 39 840 39 756 11.5 c 128,-1,55
 672 -16 672 -16 579 -16 c 0,0,1
EndSplineSet
Position2: "'cpsp' Capital Spacing lookup 0 subtable" dx=5 dy=0 dh=10 dv=0
EndChar

StartChar: T
Encoding: 84 84 55
Width: 1208
GlyphClass: 1
Flags: W
LayerCount: 2
Fore
SplineSet
706 0 m 1,0,-1
 502 0 l 1,1,-1
 502 1237 l 1,2,-1
 41 1237 l 1,3,-1
 41 1413 l 1,4,-1
 1167 1413 l 1,5,-1
 1167 1237 l 1,6,-1
 706 1237 l 1,7,-1
 706 0 l 1,0,-1
EndSplineSet
Position2: "'cpsp' Capital Spacing lookup 0 subtable" dx=5 dy=0 dh=10 dv=0
EndChar

StartChar: U
Encoding: 85 85 56
Width: 1366
GlyphClass: 1
Flags: W
LayerCount: 2
Fore
SplineSet
682 -20 m 0,0,1
 504 -20 504 -20 390.5 51 c 128,-1,2
 277 122 277 122 222.5 247 c 128,-1,3
 168 372 168 372 168 534 c 2,4,-1
 168 1413 l 1,5,-1
 371 1413 l 1,6,-1
 371 571 l 2,7,8
 371 379 371 379 440.5 277 c 128,-1,9
 510 175 510 175 682 175 c 256,10,11
 854 175 854 175 924.5 277 c 128,-1,12
 995 379 995 379 995 571 c 2,13,-1
 995 1413 l 1,14,-1
 1199 1413 l 1,15,-1
 1199 544 l 2,16,17
 1199 379 1199 379 1145 252 c 128,-1,18
 1091 125 1091 125 976.5 52.5 c 128,-1,19
 862 -20 862 -20 682 -20 c 0,0,1
EndSplineSet
Position2: "'cpsp' Capital Spacing lookup 0 subtable" dx=5 dy=0 dh=10 dv=0
EndChar

StartChar: V
Encoding: 86 86 57
Width: 1333
GlyphClass: 1
Flags: W
LayerCount: 2
Fore
SplineSet
749 0 m 1,0,-1
 587 0 l 1,1,-1
 39 1413 l 1,2,-1
 259 1413 l 1,3,-1
 669 305 l 1,4,-1
 1077 1413 l 1,5,-1
 1294 1413 l 1,6,-1
 749 0 l 1,0,-1
EndSplineSet
Position2: "'cpsp' Capital Spacing lookup 0 subtable" dx=5 dy=0 dh=10 dv=0
EndChar

StartChar: W
Encoding: 87 87 58
Width: 1987
GlyphClass: 1
Flags: W
LayerCount: 2
Fore
SplineSet
1527 0 m 1,0,-1
 1319 0 l 1,1,-1
 995 1089 l 1,2,-1
 668 0 l 1,3,-1
 461 0 l 1,4,-1
 51 1413 l 1,5,-1
 261 1413 l 1,6,-1
 580 278 l 1,7,-1
 914 1413 l 1,8,-1
 1074 1413 l 1,9,-1
 1408 278 l 1,10,-1
 1726 1413 l 1,11,-1
 1937 1413 l 1,12,-1
 1527 0 l 1,0,-1
EndSplineSet
Position2: "'cpsp' Capital Spacing lookup 0 subtable" dx=5 dy=0 dh=10 dv=0
EndChar

StartChar: X
Encoding: 88 88 59
Width: 1299
GlyphClass: 1
Flags: W
LayerCount: 2
Fore
SplineSet
1249 0 m 1,0,-1
 1009 0 l 1,1,-1
 648 557 l 1,2,-1
 292 0 l 1,3,-1
 50 0 l 1,4,-1
 520 707 l 1,5,-1
 52 1413 l 1,6,-1
 294 1413 l 1,7,-1
 650 847 l 1,8,-1
 1007 1413 l 1,9,-1
 1247 1413 l 1,10,-1
 781 707 l 1,11,-1
 1249 0 l 1,0,-1
EndSplineSet
Position2: "'cpsp' Capital Spacing lookup 0 subtable" dx=5 dy=0 dh=10 dv=0
EndChar

StartChar: Y
Encoding: 89 89 60
Width: 1317
GlyphClass: 1
Flags: W
LayerCount: 2
Fore
SplineSet
763 0 m 1,0,-1
 556 0 l 1,1,-1
 556 552 l 1,2,-1
 27 1413 l 1,3,-1
 269 1413 l 1,4,-1
 657 752 l 1,5,-1
 1047 1413 l 1,6,-1
 1290 1413 l 1,7,-1
 763 552 l 1,8,-1
 763 0 l 1,0,-1
EndSplineSet
Position2: "'cpsp' Capital Spacing lookup 0 subtable" dx=5 dy=0 dh=10 dv=0
EndChar

StartChar: Z
Encoding: 90 90 61
Width: 1273
GlyphClass: 1
Flags: W
LayerCount: 2
Fore
SplineSet
1186 0 m 1,0,-1
 74 0 l 1,1,-1
 74 148 l 1,2,-1
 919 1231 l 1,3,-1
 119 1231 l 1,4,-1
 119 1413 l 1,5,-1
 1186 1413 l 1,6,-1
 1186 1258 l 1,7,-1
 345 184 l 1,8,-1
 1186 184 l 1,9,-1
 1186 0 l 1,0,-1
EndSplineSet
Position2: "'cpsp' Capital Spacing lookup 0 subtable" dx=5 dy=0 dh=10 dv=0
EndChar

StartChar: bracketleft
Encoding: 91 91 62
Width: 637
GlyphClass: 1
Flags: W
LayerCount: 2
Fore
SplineSet
586 -126 m 1,0,-1
 191 -126 l 1,1,-1
 191 1536 l 1,2,-1
 586 1536 l 1,3,-1
 586 1412 l 1,4,-1
 350 1412 l 1,5,-1
 350 0 l 1,6,-1
 586 0 l 1,7,-1
 586 -126 l 1,0,-1
EndSplineSet
EndChar

StartChar: backslash
Encoding: 92 92 63
Width: 930
GlyphClass: 1
Flags: W
LayerCount: 2
Fore
SplineSet
942 -430 m 1,0,-1
 755 -430 l 1,1,-1
 -12 1516 l 1,2,-1
 177 1516 l 1,3,-1
 942 -430 l 1,0,-1
EndSplineSet
EndChar

StartChar: bracketright
Encoding: 93 93 64
Width: 637
GlyphClass: 1
Flags: W
LayerCount: 2
Fore
SplineSet
446 -126 m 1,0,-1
 51 -126 l 1,1,-1
 51 0 l 1,2,-1
 287 0 l 1,3,-1
 287 1412 l 1,4,-1
 51 1412 l 1,5,-1
 51 1536 l 1,6,-1
 446 1536 l 1,7,-1
 446 -126 l 1,0,-1
EndSplineSet
EndChar

StartChar: asciicircum
Encoding: 94 94 65
Width: 978
GlyphClass: 1
Flags: W
LayerCount: 2
Fore
SplineSet
883 823 m 1,0,-1
 685 823 l 1,1,-1
 488 1142 l 1,2,-1
 293 823 l 1,3,-1
 96 823 l 1,4,-1
 488 1461 l 1,5,-1
 883 823 l 1,0,-1
EndSplineSet
EndChar

StartChar: underscore
Encoding: 95 95 66
Width: 1241
GlyphClass: 1
Flags: W
LayerCount: 2
Fore
SplineSet
1027 -147 m 1,0,-1
 214 -147 l 1,1,-1
 214 0 l 1,2,-1
 1027 0 l 1,3,-1
 1027 -147 l 1,0,-1
EndSplineSet
EndChar

StartChar: a
Encoding: 97 97 68
Width: 1060
GlyphClass: 1
Flags: W
LayerCount: 2
Fore
SplineSet
421 -20 m 0,0,1
 320 -20 320 -20 239 18 c 128,-1,2
 158 56 158 56 110 127.5 c 128,-1,3
 62 199 62 199 62 303 c 0,4,5
 62 458 62 458 178 531 c 128,-1,6
 294 604 294 604 501 604 c 2,7,-1
 751 604 l 1,8,9
 751 689 751 689 727.5 752.5 c 128,-1,10
 704 816 704 816 653 851.5 c 128,-1,11
 602 887 602 887 519 887 c 0,12,13
 427 887 427 887 360.5 843.5 c 128,-1,14
 294 800 294 800 252 735 c 1,15,-1
 107 851 l 1,16,17
 255 1056 255 1056 513 1056 c 0,18,19
 649 1056 649 1056 743 1002.5 c 128,-1,20
 837 949 837 949 885 854 c 128,-1,21
 933 759 933 759 933 634 c 2,22,-1
 933 0 l 1,23,-1
 772 0 l 1,24,-1
 762 171 l 1,25,26
 650 -20 650 -20 421 -20 c 0,0,1
443 144 m 0,27,28
 535 144 535 144 603.5 191 c 128,-1,29
 672 238 672 238 710.5 310.5 c 128,-1,30
 749 383 749 383 751 461 c 1,31,-1
 513 461 l 2,32,33
 394 461 394 461 327.5 420.5 c 128,-1,34
 261 380 261 380 261 296 c 0,35,36
 261 220 261 220 313.5 182 c 128,-1,37
 366 144 366 144 443 144 c 0,27,28
EndSplineSet
Substitution2: "Single Substitution lookup 3 subtable" ordfeminine
Substitution2: "Single Substitution lookup 2 subtable" ordfeminine
EndChar

StartChar: b
Encoding: 98 98 69
Width: 1170
GlyphClass: 1
Flags: W
LayerCount: 2
Fore
SplineSet
670 -20 m 0,0,1
 574 -20 574 -20 495.5 15 c 128,-1,2
 417 50 417 50 363 120 c 1,3,-1
 363 0 l 1,4,-1
 166 0 l 1,5,-1
 166 1412 l 1,6,-1
 363 1412 l 1,7,-1
 363 920 l 1,8,9
 471 1061 471 1061 668 1061 c 0,10,11
 807 1061 807 1061 902.5 987.5 c 128,-1,12
 998 914 998 914 1047 790.5 c 128,-1,13
 1096 667 1096 667 1096 520 c 0,14,15
 1096 379 1096 379 1048 255 c 128,-1,16
 1000 131 1000 131 901 53 c 0,17,18
 804 -20 804 -20 670 -20 c 0,0,1
623 155 m 0,19,20
 719 155 719 155 780.5 204.5 c 128,-1,21
 842 254 842 254 872 336.5 c 128,-1,22
 902 419 902 419 902 520 c 0,23,24
 902 617 902 617 872.5 700.5 c 128,-1,25
 843 784 843 784 781 835.5 c 128,-1,26
 719 887 719 887 623 887 c 0,27,28
 528 887 528 887 467 837.5 c 128,-1,29
 406 788 406 788 375.5 704.5 c 128,-1,30
 345 621 345 621 345 520 c 0,31,32
 345 423 345 423 374 340 c 128,-1,33
 403 257 403 257 464 206 c 128,-1,34
 525 155 525 155 623 155 c 0,19,20
EndSplineSet
EndChar

StartChar: c
Encoding: 99 99 70
Width: 1014
GlyphClass: 1
Flags: W
LayerCount: 2
Fore
SplineSet
550 -20 m 0,0,1
 432 -20 432 -20 344 24 c 128,-1,2
 256 68 256 68 197 143.5 c 128,-1,3
 138 219 138 219 108.5 315.5 c 128,-1,4
 79 412 79 412 79 518 c 0,5,6
 79 654 79 654 130 777 c 128,-1,7
 181 900 181 900 291 981 c 0,8,9
 397 1056 397 1056 548 1056 c 0,10,11
 700 1056 700 1056 807 979 c 128,-1,12
 914 902 914 902 970 775 c 1,13,-1
 779 696 l 1,14,15
 755 785 755 785 693 832.5 c 128,-1,16
 631 880 631 880 544 880 c 0,17,18
 449 880 449 880 390.5 828.5 c 128,-1,19
 332 777 332 777 304 694 c 128,-1,20
 276 611 276 611 276 518 c 256,21,22
 276 425 276 425 302.5 342 c 128,-1,23
 329 259 329 259 388.5 207 c 128,-1,24
 448 155 448 155 544 155 c 0,25,26
 630 155 630 155 692.5 204 c 128,-1,27
 755 253 755 253 779 339 c 1,28,-1
 958 266 l 1,29,30
 910 133 910 133 804.5 56.5 c 128,-1,31
 699 -20 699 -20 550 -20 c 0,0,1
EndSplineSet
AlternateSubs2: "'salt' Stylistic Alternatives lookup 15 subtable" c.001
Substitution2: "'aalt' Access All Alternates lookup 0 subtable" c.001
EndChar

StartChar: d
Encoding: 100 100 71
Width: 1169
GlyphClass: 1
Flags: W
LayerCount: 2
Fore
SplineSet
511 -20 m 0,0,1
 373 -20 373 -20 278 54 c 128,-1,2
 183 128 183 128 133.5 251.5 c 128,-1,3
 84 375 84 375 84 520 c 0,4,5
 84 661 84 661 132.5 785 c 128,-1,6
 181 909 181 909 282 987 c 0,7,8
 378 1060 378 1060 509 1060 c 0,9,10
 609 1060 609 1060 687.5 1023.5 c 128,-1,11
 766 987 766 987 818 920 c 1,12,-1
 818 1413 l 1,13,-1
 1013 1413 l 1,14,-1
 1013 0 l 1,15,-1
 829 0 l 1,16,-1
 823 125 l 1,17,18
 772 55 772 55 693 17.5 c 128,-1,19
 614 -20 614 -20 511 -20 c 0,0,1
559 158 m 0,20,21
 697 158 697 158 765.5 258.5 c 128,-1,22
 834 359 834 359 834 520 c 0,23,24
 834 618 834 618 806 700.5 c 128,-1,25
 778 783 778 783 717.5 833 c 128,-1,26
 657 883 657 883 559 883 c 0,27,28
 464 883 464 883 402.5 834.5 c 128,-1,29
 341 786 341 786 311 703 c 128,-1,30
 281 620 281 620 281 520 c 0,31,32
 281 421 281 421 310 338.5 c 128,-1,33
 339 256 339 256 400.5 207 c 128,-1,34
 462 158 462 158 559 158 c 0,20,21
EndSplineSet
EndChar

StartChar: e
Encoding: 101 101 72
Width: 1071
GlyphClass: 1
Flags: W
LayerCount: 2
Fore
SplineSet
561 -12 m 0,0,1
 399 -12 399 -12 291.5 60.5 c 128,-1,2
 184 133 184 133 130.5 252.5 c 128,-1,3
 77 372 77 372 77 514 c 0,4,5
 77 650 77 650 127.5 773 c 128,-1,6
 178 896 178 896 288 977 c 0,7,8
 393 1052 393 1052 543 1052 c 0,9,10
 786 1052 786 1052 892.5 900 c 128,-1,11
 999 748 999 748 999 513 c 0,12,13
 999 484 999 484 993 456 c 1,14,-1
 282 456 l 1,15,16
 285 375 285 375 315.5 310 c 128,-1,17
 346 245 346 245 406.5 205 c 128,-1,18
 467 165 467 165 558 165 c 0,19,20
 656 165 656 165 719.5 189 c 128,-1,21
 783 213 783 213 835 270 c 1,22,-1
 969 150 l 1,23,24
 888 68 888 68 791 28 c 128,-1,25
 694 -12 694 -12 561 -12 c 0,0,1
811 603 m 1,26,27
 808 688 808 688 778.5 751 c 128,-1,28
 749 814 749 814 690.5 849.5 c 128,-1,29
 632 885 632 885 543 885 c 0,30,31
 460 885 460 885 404.5 848 c 128,-1,32
 349 811 349 811 318.5 747.5 c 128,-1,33
 288 684 288 684 282 603 c 1,34,-1
 811 603 l 1,26,27
EndSplineSet
EndChar

StartChar: f
Encoding: 102 102 73
Width: 701
GlyphClass: 1
Flags: W
LayerCount: 2
Fore
SplineSet
414 0 m 1,0,-1
 217 0 l 1,1,-1
 217 878 l 1,2,-1
 28 878 l 1,3,-1
 28 1037 l 1,4,-1
 218 1037 l 1,5,-1
 218 1177 l 2,6,7
 218 1261 218 1261 259.5 1318.5 c 128,-1,8
 301 1376 301 1376 369 1405 c 128,-1,9
 437 1434 437 1434 518 1434 c 0,10,11
 609 1434 609 1434 694 1394 c 1,12,-1
 636 1241 l 1,13,14
 580 1265 580 1265 533 1265 c 0,15,16
 482 1265 482 1265 448 1238.5 c 128,-1,17
 414 1212 414 1212 414 1155 c 2,18,-1
 414 1039 l 1,19,-1
 687 1039 l 1,20,-1
 687 878 l 1,21,-1
 414 878 l 1,22,-1
 414 0 l 1,0,-1
EndSplineSet
EndChar

StartChar: g
Encoding: 103 103 74
Width: 1053
GlyphClass: 1
Flags: W
LayerCount: 2
Fore
SplineSet
556 -465 m 0,0,1
 412 -465 412 -465 310 -417.5 c 128,-1,2
 208 -370 208 -370 154 -289.5 c 128,-1,3
 100 -209 100 -209 100 -110 c 0,4,5
 100 -86 100 -86 103 -68 c 1,6,-1
 229 58 l 1,7,8
 115 126 115 126 115 264 c 0,9,10
 115 378 115 378 198 453 c 1,11,12
 114 554 114 554 114 689 c 0,13,14
 114 801 114 801 169 882.5 c 128,-1,15
 224 964 224 964 315 1008 c 128,-1,16
 406 1052 406 1052 515 1052 c 0,17,18
 665 1052 665 1052 769 977 c 1,19,-1
 911 1104 l 1,20,-1
 1027 981 l 1,21,-1
 871 857 l 1,22,23
 911 780 911 780 911 685 c 0,24,25
 911 572 911 572 858.5 490.5 c 128,-1,26
 806 409 806 409 716 365.5 c 128,-1,27
 626 322 626 322 517 322 c 0,28,29
 410 322 410 322 321 362 c 1,30,31
 284 336 284 336 283 295 c 0,32,33
 283 249 283 249 320 223 c 128,-1,34
 357 197 357 197 412 186 c 128,-1,35
 467 175 467 175 573 160 c 0,36,37
 704 141 704 141 786.5 117 c 128,-1,38
 869 93 869 93 926 32.5 c 128,-1,39
 983 -28 983 -28 983 -138 c 256,40,41
 983 -248 983 -248 925.5 -320.5 c 128,-1,42
 868 -393 868 -393 771 -429 c 128,-1,43
 674 -465 674 -465 556 -465 c 0,0,1
516 482 m 0,44,45
 614 482 614 482 666 541 c 128,-1,46
 718 600 718 600 718 689 c 0,47,48
 718 745 718 745 694.5 793.5 c 128,-1,49
 671 842 671 842 626 871.5 c 128,-1,50
 581 901 581 901 516 901 c 0,51,52
 450 901 450 901 405 871 c 128,-1,53
 360 841 360 841 336.5 792.5 c 128,-1,54
 313 744 313 744 313 689 c 0,55,56
 313 601 313 601 365 541.5 c 128,-1,57
 417 482 417 482 516 482 c 0,44,45
564 -305 m 0,58,59
 631 -305 631 -305 685.5 -289 c 128,-1,60
 740 -273 740 -273 772 -240.5 c 128,-1,61
 804 -208 804 -208 804 -160 c 0,62,63
 804 -76 804 -76 695 -52 c 0,64,65
 635 -40 635 -40 542 -25 c 0,66,67
 438 -10 438 -10 356 7 c 1,68,-1
 269 -115 l 1,69,70
 276 -197 276 -197 353 -251 c 128,-1,71
 430 -305 430 -305 564 -305 c 0,58,59
EndSplineSet
Substitution2: "'ss01' Style Set 1 lookup 16 subtable" g.ss01
AlternateSubs2: "'salt' Stylistic Alternatives lookup 15 subtable" g.ss01
Substitution2: "'aalt' Access All Alternates lookup 0 subtable" g.ss01
EndChar

StartChar: h
Encoding: 104 104 75
Width: 1163
GlyphClass: 1
Flags: W
LayerCount: 2
Fore
SplineSet
1039 0 m 1,0,-1
 842 0 l 1,1,-1
 842 610 l 2,2,3
 842 875 842 875 650 875 c 0,4,5
 566 875 566 875 500.5 831 c 128,-1,6
 435 787 435 787 397.5 718 c 128,-1,7
 360 649 360 649 360 573 c 2,8,-1
 360 0 l 1,9,-1
 166 0 l 1,10,-1
 166 1413 l 1,11,-1
 360 1413 l 1,12,-1
 360 897 l 1,13,14
 419 978 419 978 504.5 1017 c 128,-1,15
 590 1056 590 1056 677 1056 c 0,16,17
 801 1056 801 1056 881.5 998 c 128,-1,18
 962 940 962 940 1000.5 843.5 c 128,-1,19
 1039 747 1039 747 1039 633 c 2,20,-1
 1039 0 l 1,0,-1
EndSplineSet
EndChar

StartChar: i
Encoding: 105 105 76
Width: 509
GlyphClass: 1
Flags: W
LayerCount: 2
Fore
SplineSet
351 1205 m 1,0,-1
 158 1205 l 1,1,-1
 158 1413 l 1,2,-1
 351 1413 l 1,3,-1
 351 1205 l 1,0,-1
351 0 m 1,4,-1
 158 0 l 1,5,-1
 158 1039 l 1,6,-1
 351 1039 l 1,7,-1
 351 0 l 1,4,-1
EndSplineSet
Substitution2: "'locl' Localized Forms in Latin lookup 23-1" i.loclTRK
Substitution2: "Single Substitution lookup 2 subtable" dotlessi
Substitution2: "'aalt' Access All Alternates lookup 0 subtable" i.loclTRK
EndChar

StartChar: j
Encoding: 106 106 77
Width: 526
GlyphClass: 1
Flags: W
LayerCount: 2
Fore
SplineSet
362 1198 m 1,0,-1
 167 1198 l 1,1,-1
 167 1416 l 1,2,-1
 362 1416 l 1,3,-1
 362 1198 l 1,0,-1
80 -438 m 0,4,5
 40 -438 40 -438 -4.5 -428 c 128,-1,6
 -49 -418 -49 -418 -82 -406 c 1,7,-1
 -36 -242 l 1,8,9
 26 -257 26 -257 76 -257 c 256,10,11
 126 -257 126 -257 146.5 -227 c 128,-1,12
 167 -197 167 -197 167 -138 c 2,13,-1
 167 1039 l 1,14,-1
 362 1039 l 1,15,-1
 362 -126 l 2,16,17
 362 -267 362 -267 291 -352.5 c 128,-1,18
 220 -438 220 -438 80 -438 c 0,4,5
EndSplineSet
Substitution2: "Single Substitution lookup 2 subtable" uni0237
EndChar

StartChar: k
Encoding: 107 107 78
Width: 1109
GlyphClass: 1
Flags: W
LayerCount: 2
Fore
SplineSet
1101 0 m 1,0,-1
 862 0 l 1,1,-1
 551 517 l 1,2,-1
 357 303 l 1,3,-1
 357 0 l 1,4,-1
 164 0 l 1,5,-1
 166 1413 l 1,6,-1
 360 1413 l 1,7,-1
 357 547 l 1,8,-1
 787 1039 l 1,9,-1
 1045 1039 l 1,10,-1
 682 648 l 1,11,-1
 1101 0 l 1,0,-1
EndSplineSet
EndChar

StartChar: l
Encoding: 108 108 79
Width: 549
GlyphClass: 1
Flags: W
LayerCount: 2
Fore
SplineSet
349 -20 m 0,0,1
 252 -20 252 -20 205.5 31 c 128,-1,2
 159 82 159 82 159 200 c 2,3,-1
 159 1413 l 1,4,-1
 353 1413 l 1,5,-1
 353 213 l 2,6,7
 353 194 353 194 369 173 c 128,-1,8
 385 152 385 152 423 152 c 0,9,10
 467 152 467 152 506 160 c 1,11,-1
 506 0 l 1,12,13
 419 -20 419 -20 349 -20 c 0,0,1
EndSplineSet
EndChar

StartChar: m
Encoding: 109 109 80
Width: 1752
GlyphClass: 1
Flags: W
LayerCount: 2
Fore
SplineSet
1628 0 m 1,0,-1
 1431 0 l 1,1,-1
 1431 610 l 2,2,3
 1431 728 1431 728 1387 806 c 128,-1,4
 1343 884 1343 884 1234 884 c 0,5,6
 1156 884 1156 884 1102 842 c 128,-1,7
 1048 800 1048 800 1020 732 c 128,-1,8
 992 664 992 664 992 587 c 2,9,-1
 992 0 l 1,10,-1
 796 0 l 1,11,-1
 796 614 l 2,12,13
 796 884 796 884 602 884 c 0,14,15
 524 884 524 884 469.5 842 c 128,-1,16
 415 800 415 800 387 732 c 128,-1,17
 359 664 359 664 359 587 c 2,18,-1
 359 0 l 1,19,-1
 164 0 l 1,20,-1
 164 1039 l 1,21,-1
 359 1039 l 1,22,-1
 359 899 l 1,23,24
 401 979 401 979 474.5 1018.5 c 128,-1,25
 548 1058 548 1058 627 1058 c 0,26,27
 729 1058 729 1058 808.5 1014 c 128,-1,28
 888 970 888 970 933 878 c 1,29,30
 989 968 989 968 1075.5 1012 c 128,-1,31
 1162 1056 1162 1056 1260 1056 c 0,32,33
 1387 1056 1387 1056 1468.5 997.5 c 128,-1,34
 1550 939 1550 939 1589 841.5 c 128,-1,35
 1628 744 1628 744 1628 628 c 2,36,-1
 1628 0 l 1,0,-1
EndSplineSet
EndChar

StartChar: n
Encoding: 110 110 81
Width: 1160
GlyphClass: 1
Flags: W
LayerCount: 2
Fore
SplineSet
1036 0 m 1,0,-1
 840 0 l 1,1,-1
 840 610 l 2,2,3
 840 874 840 874 644 874 c 0,4,5
 562 874 562 874 497.5 831.5 c 128,-1,6
 433 789 433 789 396 722.5 c 128,-1,7
 359 656 359 656 359 585 c 2,8,-1
 359 0 l 1,9,-1
 164 0 l 1,10,-1
 164 1039 l 1,11,-1
 359 1039 l 1,12,-1
 359 901 l 1,13,14
 417 980 417 980 500 1018 c 128,-1,15
 583 1056 583 1056 670 1056 c 0,16,17
 799 1056 799 1056 879.5 997.5 c 128,-1,18
 960 939 960 939 998 841.5 c 128,-1,19
 1036 744 1036 744 1036 628 c 2,20,-1
 1036 0 l 1,0,-1
EndSplineSet
EndChar

StartChar: o
Encoding: 111 111 82
Width: 1145
GlyphClass: 1
Flags: W
LayerCount: 2
Fore
SplineSet
575 -20 m 0,0,1
 421 -20 421 -20 308 54.5 c 128,-1,2
 195 129 195 129 133.5 250.5 c 128,-1,3
 72 372 72 372 72 516 c 0,4,5
 72 657 72 657 133 780 c 128,-1,6
 194 903 194 903 313 980 c 0,7,8
 428 1052 428 1052 575 1052 c 0,9,10
 728 1052 728 1052 841.5 977.5 c 128,-1,11
 955 903 955 903 1016.5 781 c 128,-1,12
 1078 659 1078 659 1078 516 c 0,13,14
 1078 367 1078 367 1015 245.5 c 128,-1,15
 952 124 952 124 838 52 c 128,-1,16
 724 -20 724 -20 575 -20 c 0,0,1
575 149 m 0,17,18
 678 149 678 149 743 198 c 128,-1,19
 808 247 808 247 839 330 c 128,-1,20
 870 413 870 413 870 516 c 0,21,22
 870 616 870 616 840 700 c 128,-1,23
 810 784 810 784 744.5 833.5 c 128,-1,24
 679 883 679 883 575 883 c 0,25,26
 472 883 472 883 406.5 833.5 c 128,-1,27
 341 784 341 784 310.5 700 c 128,-1,28
 280 616 280 616 280 516 c 0,29,30
 280 419 280 419 309.5 335 c 128,-1,31
 339 251 339 251 404 200 c 128,-1,32
 469 149 469 149 575 149 c 0,17,18
EndSplineSet
Substitution2: "Single Substitution lookup 3 subtable" ordmasculine
Substitution2: "Single Substitution lookup 2 subtable" ordmasculine
EndChar

StartChar: p
Encoding: 112 112 83
Width: 1169
GlyphClass: 1
Flags: W
LayerCount: 2
Fore
SplineSet
361 -438 m 1,0,-1
 166 -438 l 1,1,-1
 166 1039 l 1,2,-1
 361 1039 l 1,3,-1
 361 920 l 1,4,5
 410 985 410 985 487.5 1022.5 c 128,-1,6
 565 1060 565 1060 666 1060 c 0,7,8
 805 1060 805 1060 900.5 986.5 c 128,-1,9
 996 913 996 913 1045.5 790 c 128,-1,10
 1095 667 1095 667 1095 520 c 0,11,12
 1095 379 1095 379 1047 255 c 128,-1,13
 999 131 999 131 900 53 c 0,14,15
 803 -20 803 -20 669 -20 c 0,16,17
 473 -20 473 -20 361 120 c 1,18,-1
 361 -438 l 1,0,-1
620 155 m 0,19,20
 716 155 716 155 777.5 204 c 128,-1,21
 839 253 839 253 869 335.5 c 128,-1,22
 899 418 899 418 899 520 c 0,23,24
 899 616 899 616 870.5 700 c 128,-1,25
 842 784 842 784 780 835.5 c 128,-1,26
 718 887 718 887 620 887 c 0,27,28
 527 887 527 887 465.5 837.5 c 128,-1,29
 404 788 404 788 373.5 704.5 c 128,-1,30
 343 621 343 621 343 520 c 0,31,32
 343 422 343 422 372.5 338.5 c 128,-1,33
 402 255 402 255 462.5 205 c 128,-1,34
 523 155 523 155 620 155 c 0,19,20
EndSplineSet
EndChar

StartChar: q
Encoding: 113 113 84
Width: 1169
GlyphClass: 1
Flags: W
LayerCount: 2
Fore
SplineSet
1013 -438 m 1,0,-1
 818 -438 l 1,1,-1
 818 120 l 1,2,3
 709 -20 709 -20 511 -20 c 0,4,5
 373 -20 373 -20 278 54 c 128,-1,6
 183 128 183 128 133.5 251.5 c 128,-1,7
 84 375 84 375 84 520 c 0,8,9
 84 661 84 661 132.5 785 c 128,-1,10
 181 909 181 909 282 987 c 0,11,12
 378 1060 378 1060 510 1060 c 0,13,14
 703 1060 703 1060 818 920 c 1,15,-1
 818 1039 l 1,16,-1
 1013 1039 l 1,17,-1
 1013 -438 l 1,0,-1
559 155 m 0,18,19
 697 155 697 155 765.5 257 c 128,-1,20
 834 359 834 359 834 520 c 0,21,22
 834 618 834 618 806 701.5 c 128,-1,23
 778 785 778 785 717 835.5 c 128,-1,24
 656 886 656 886 559 886 c 0,25,26
 464 886 464 886 402 836.5 c 128,-1,27
 340 787 340 787 310.5 703.5 c 128,-1,28
 281 620 281 620 281 520 c 0,29,30
 281 423 281 423 309.5 340 c 128,-1,31
 338 257 338 257 399.5 206 c 128,-1,32
 461 155 461 155 559 155 c 0,18,19
EndSplineSet
EndChar

StartChar: r
Encoding: 114 114 85
Width: 823
GlyphClass: 1
Flags: W
LayerCount: 2
Fore
SplineSet
354 0 m 1,0,-1
 164 0 l 1,1,-1
 164 1039 l 1,2,-1
 356 1039 l 1,3,-1
 356 857 l 1,4,5
 390 956 390 956 470.5 1005 c 128,-1,6
 551 1054 551 1054 630 1054 c 0,7,8
 678 1054 678 1054 732 1040.5 c 128,-1,9
 786 1027 786 1027 825 999 c 1,10,-1
 743 835 l 1,11,12
 695 877 695 877 620 877 c 0,13,14
 536 877 536 877 476.5 821.5 c 128,-1,15
 417 766 417 766 385.5 672 c 128,-1,16
 354 578 354 578 354 464 c 2,17,-1
 354 0 l 1,0,-1
EndSplineSet
EndChar

StartChar: s
Encoding: 115 115 86
Width: 903
GlyphClass: 1
Flags: W
LayerCount: 2
Fore
SplineSet
427 -20 m 0,0,1
 364 -20 364 -20 286 11 c 128,-1,2
 208 42 208 42 147 106 c 128,-1,3
 86 170 86 170 61 260 c 1,4,5
 101 278 101 278 140 297 c 128,-1,6
 179 316 179 316 218 334 c 1,7,8
 279 140 279 140 457 140 c 0,9,10
 530 140 530 140 568 168 c 0,11,12
 636 218 636 218 636 293 c 0,13,14
 636 360 636 360 555 402 c 0,15,16
 519 420 519 420 472 435.5 c 128,-1,17
 425 451 425 451 376.5 467 c 128,-1,18
 328 483 328 483 281 504.5 c 128,-1,19
 234 526 234 526 198 558 c 0,20,21
 105 639 105 639 105 741 c 0,22,23
 105 888 105 888 205 974 c 0,24,25
 300 1055 300 1055 434 1055 c 0,26,27
 567 1055 567 1055 652.5 1000 c 128,-1,28
 738 945 738 945 798 838 c 1,29,-1
 649 755 l 1,30,31
 613 827 613 827 563.5 864 c 128,-1,32
 514 901 514 901 434 901 c 0,33,34
 375 901 375 901 341 879 c 0,35,36
 283 841 283 841 283 779 c 0,37,38
 283 702 283 702 469 644 c 0,39,40
 582 610 582 610 665 568 c 0,41,42
 820 488 820 488 820 316 c 0,43,44
 820 142 820 142 686 50 c 0,45,46
 586 -20 586 -20 427 -20 c 0,0,1
EndSplineSet
Substitution2: "'hist' Historical Forms lookup 20 subtable" longs
Substitution2: "'aalt' Access All Alternates lookup 0 subtable" longs
EndChar

StartChar: t
Encoding: 116 116 87
Width: 727
GlyphClass: 1
Flags: W
LayerCount: 2
Fore
SplineSet
485 -20 m 0,0,1
 388 -20 388 -20 325 18 c 128,-1,2
 262 56 262 56 232 125 c 128,-1,3
 202 194 202 194 202 284 c 2,4,-1
 202 878 l 1,5,-1
 36 878 l 1,6,-1
 36 1039 l 1,7,-1
 205 1039 l 1,8,-1
 205 1251 l 1,9,-1
 391 1391 l 1,10,-1
 391 1039 l 1,11,-1
 659 1039 l 1,12,-1
 659 878 l 1,13,-1
 391 878 l 1,14,-1
 391 298 l 2,15,16
 391 217 391 217 429 181.5 c 128,-1,17
 467 146 467 146 521 146 c 0,18,19
 582 146 582 146 645 179 c 1,20,-1
 645 5 l 1,21,22
 581 -20 581 -20 485 -20 c 0,0,1
EndSplineSet
EndChar

StartChar: u
Encoding: 117 117 88
Width: 1158
GlyphClass: 1
Flags: W
LayerCount: 2
Fore
SplineSet
501 -23 m 0,0,1
 374 -23 374 -23 292.5 39 c 128,-1,2
 211 101 211 101 172.5 203 c 128,-1,3
 134 305 134 305 134 426 c 2,4,-1
 134 1039 l 1,5,-1
 330 1039 l 1,6,-1
 330 424 l 2,7,8
 330 154 330 154 534 154 c 0,9,10
 608 154 608 154 671.5 190 c 128,-1,11
 735 226 735 226 773.5 299.5 c 128,-1,12
 812 373 812 373 812 485 c 2,13,-1
 812 1039 l 1,14,-1
 1007 1039 l 1,15,-1
 1007 0 l 1,16,-1
 812 0 l 1,17,-1
 812 145 l 1,18,19
 768 74 768 74 686 25.5 c 128,-1,20
 604 -23 604 -23 501 -23 c 0,0,1
EndSplineSet
EndChar

StartChar: v
Encoding: 118 118 89
Width: 1009
GlyphClass: 1
Flags: W
LayerCount: 2
Fore
SplineSet
592 0 m 1,0,-1
 421 0 l 1,1,-1
 16 1039 l 1,2,-1
 236 1039 l 1,3,-1
 506 261 l 1,4,-1
 779 1039 l 1,5,-1
 995 1039 l 1,6,-1
 592 0 l 1,0,-1
EndSplineSet
EndChar

StartChar: w
Encoding: 119 119 90
Width: 1496
GlyphClass: 1
Flags: W
LayerCount: 2
Fore
SplineSet
524 -2 m 1,0,-1
 337 -2 l 1,1,-1
 32 1039 l 1,2,-1
 246 1039 l 1,3,-1
 443 291 l 1,4,-1
 661 1039 l 1,5,-1
 838 1039 l 1,6,-1
 1057 293 l 1,7,-1
 1253 1039 l 1,8,-1
 1467 1039 l 1,9,-1
 1163 0 l 1,10,-1
 976 0 l 1,11,-1
 751 768 l 1,12,-1
 524 -2 l 1,0,-1
EndSplineSet
EndChar

StartChar: x
Encoding: 120 120 91
Width: 1008
GlyphClass: 1
Flags: W
LayerCount: 2
Fore
SplineSet
980 0 m 1,0,-1
 736 0 l 1,1,-1
 505 373 l 1,2,-1
 276 0 l 1,3,-1
 30 0 l 1,4,-1
 384 524 l 1,5,-1
 30 1039 l 1,6,-1
 276 1039 l 1,7,-1
 505 674 l 1,8,-1
 736 1039 l 1,9,-1
 980 1039 l 1,10,-1
 628 524 l 1,11,-1
 980 0 l 1,0,-1
EndSplineSet
EndChar

StartChar: y
Encoding: 121 121 92
Width: 1040
GlyphClass: 1
Flags: W
LayerCount: 2
Fore
SplineSet
451 -430 m 1,0,-1
 235 -430 l 1,1,-1
 419 27 l 1,2,-1
 17 1039 l 1,3,-1
 238 1039 l 1,4,-1
 523 259 l 1,5,-1
 805 1039 l 1,6,-1
 1025 1039 l 1,7,-1
 451 -430 l 1,0,-1
EndSplineSet
EndChar

StartChar: z
Encoding: 122 122 93
Width: 997
GlyphClass: 1
Flags: W
LayerCount: 2
Fore
SplineSet
926 0 m 1,0,-1
 62 0 l 1,1,-1
 62 136 l 1,2,-1
 676 878 l 1,3,-1
 93 878 l 1,4,-1
 93 1039 l 1,5,-1
 926 1039 l 1,6,-1
 926 892 l 1,7,-1
 330 164 l 1,8,-1
 926 164 l 1,9,-1
 926 0 l 1,0,-1
EndSplineSet
EndChar

StartChar: braceleft
Encoding: 123 123 94
Width: 608
GlyphClass: 1
Flags: W
LayerCount: 2
Fore
SplineSet
477 -136 m 1,0,-1
 406 -136 l 2,1,2
 299 -136 299 -136 236 -44 c 0,3,4
 201 4 201 4 201 116 c 2,5,-1
 201 480 l 2,6,7
 201 522 201 522 166 546.5 c 128,-1,8
 131 571 131 571 70 594 c 1,9,-1
 70 730 l 1,10,11
 140 751 140 751 170.5 786 c 128,-1,12
 201 821 201 821 201 878 c 2,13,-1
 201 1304 l 2,14,15
 201 1425 201 1425 257.5 1482 c 128,-1,16
 314 1539 314 1539 427 1539 c 0,17,18
 523 1539 523 1539 544 1537 c 1,19,-1
 544 1412 l 1,20,21
 496 1422 496 1422 462 1422 c 0,22,23
 370 1422 370 1422 370 1374 c 2,24,-1
 370 864 l 2,25,26
 370 793 370 793 331.5 743.5 c 128,-1,27
 293 694 293 694 209 655 c 1,28,29
 370 593 370 593 370 484 c 2,30,-1
 370 121 l 2,31,32
 370 -18 370 -18 488 -18 c 0,33,34
 516 -18 516 -18 544 -9 c 1,35,-1
 544 -134 l 1,36,-1
 477 -136 l 1,0,-1
EndSplineSet
EndChar

StartChar: bar
Encoding: 124 124 95
Width: 622
GlyphClass: 1
Flags: W
LayerCount: 2
Fore
SplineSet
382 -512 m 1,0,-1
 239 -512 l 1,1,-1
 239 1534 l 1,2,-1
 382 1534 l 1,3,-1
 382 -512 l 1,0,-1
EndSplineSet
EndChar

StartChar: braceright
Encoding: 125 125 96
Width: 608
GlyphClass: 1
Flags: W
LayerCount: 2
Fore
SplineSet
203 -136 m 2,0,-1
 131 -136 l 1,1,-1
 64 -134 l 1,2,-1
 64 -9 l 1,3,4
 94 -18 94 -18 120 -18 c 0,5,6
 238 -18 238 -18 238 121 c 2,7,-1
 238 484 l 2,8,9
 238 590 238 590 399 655 c 1,10,11
 313 694 313 694 275.5 743 c 128,-1,12
 238 792 238 792 238 864 c 2,13,-1
 238 1372 l 2,14,15
 238 1422 238 1422 158 1422 c 0,16,17
 115 1422 115 1422 64 1412 c 1,18,-1
 64 1537 l 1,19,20
 85 1539 85 1539 181 1539 c 0,21,22
 294 1539 294 1539 350.5 1482 c 128,-1,23
 407 1425 407 1425 407 1304 c 2,24,-1
 407 878 l 2,25,26
 407 821 407 821 437.5 786 c 128,-1,27
 468 751 468 751 538 730 c 1,28,-1
 538 594 l 1,29,30
 477 571 477 571 442 546.5 c 128,-1,31
 407 522 407 522 407 480 c 2,32,-1
 407 116 l 2,33,34
 407 2 407 2 374.5 -44 c 128,-1,35
 342 -90 342 -90 301 -113 c 128,-1,36
 260 -136 260 -136 203 -136 c 2,0,-1
EndSplineSet
EndChar

StartChar: asciitilde
Encoding: 126 126 97
Width: 1159
GlyphClass: 1
Flags: W
LayerCount: 2
Fore
SplineSet
737 379 m 0,0,1
 691 379 691 379 652.5 391 c 128,-1,2
 614 403 614 403 586.5 420 c 128,-1,3
 559 437 559 437 520.5 465 c 128,-1,4
 482 493 482 493 457 506 c 128,-1,5
 432 519 432 519 403 519 c 0,6,7
 357 519 357 519 341 491.5 c 128,-1,8
 325 464 325 464 325 414 c 2,9,-1
 325 406 l 1,10,-1
 192 406 l 1,11,12
 192 522 192 522 246.5 586.5 c 128,-1,13
 301 651 301 651 401 651 c 0,14,15
 457 651 457 651 500.5 638.5 c 128,-1,16
 544 626 544 626 572.5 609 c 128,-1,17
 601 592 601 592 636.5 566 c 128,-1,18
 672 540 672 540 694 528 c 128,-1,19
 716 516 716 516 743 516 c 0,20,21
 793 516 793 516 810 547 c 128,-1,22
 827 578 827 578 827 645 c 1,23,-1
 968 645 l 1,24,25
 968 515 968 515 909 447 c 128,-1,26
 850 379 850 379 737 379 c 0,0,1
EndSplineSet
EndChar

StartChar: exclamdown
Encoding: 161 161 99
Width: 631
GlyphClass: 1
Flags: W
LayerCount: 2
Fore
SplineSet
430 773 m 1,0,-1
 201 773 l 1,1,-1
 201 999 l 1,2,-1
 430 999 l 1,3,-1
 430 773 l 1,0,-1
417 -435 m 1,4,-1
 213 -435 l 1,5,-1
 242 597 l 1,6,-1
 389 597 l 1,7,-1
 417 -435 l 1,4,-1
EndSplineSet
EndChar

StartChar: cent
Encoding: 162 162 100
Width: 1126
GlyphClass: 1
Flags: W
LayerCount: 2
Fore
SplineSet
663 -205 m 1,0,-1
 521 -205 l 1,1,-1
 521 -18 l 1,2,3
 394 2 394 2 309.5 76 c 128,-1,4
 225 150 225 150 183.5 261 c 128,-1,5
 142 372 142 372 142 498 c 0,6,7
 142 618 142 618 182 729 c 128,-1,8
 222 840 222 840 306 916.5 c 128,-1,9
 390 993 390 993 521 1014 c 1,10,-1
 521 1200 l 1,11,-1
 663 1200 l 1,12,-1
 663 1014 l 1,13,14
 900 980 900 980 1006 739 c 1,15,-1
 826 668 l 1,16,17
 802 755 802 755 743.5 803 c 128,-1,18
 685 851 685 851 594 851 c 0,19,20
 501 851 501 851 443.5 801 c 128,-1,21
 386 751 386 751 359 670.5 c 128,-1,22
 332 590 332 590 332 498 c 256,23,24
 332 406 332 406 358 325 c 128,-1,25
 384 244 384 244 441.5 194 c 128,-1,26
 499 144 499 144 594 144 c 0,27,28
 687 144 687 144 745 193.5 c 128,-1,29
 803 243 803 243 826 328 c 1,30,-1
 993 260 l 1,31,32
 948 135 948 135 863 66 c 128,-1,33
 778 -3 778 -3 663 -19 c 1,34,-1
 663 -205 l 1,0,-1
EndSplineSet
EndChar

StartChar: sterling
Encoding: 163 163 101
Width: 1222
GlyphClass: 1
Flags: W
LayerCount: 2
Fore
SplineSet
1178 0 m 1,0,-1
 151 0 l 1,1,-1
 151 160 l 1,2,3
 157 160 157 160 219 207 c 0,4,5
 396 341 396 341 396 468 c 0,6,7
 396 533 396 533 373 622 c 1,8,-1
 154 622 l 1,9,-1
 154 788 l 1,10,-1
 332 788 l 1,11,12
 331 788 331 788 321 823 c 0,13,14
 309 862 309 862 299.5 914.5 c 128,-1,15
 290 967 290 967 290 1025 c 0,16,17
 290 1139 290 1139 338 1234 c 128,-1,18
 386 1329 386 1329 479 1384 c 128,-1,19
 572 1439 572 1439 701 1439 c 0,20,21
 794 1439 794 1439 871 1399.5 c 128,-1,22
 948 1360 948 1360 1003 1292.5 c 128,-1,23
 1058 1225 1058 1225 1089 1142 c 1,24,-1
 933 1084 l 1,25,26
 901 1171 901 1171 841 1221.5 c 128,-1,27
 781 1272 781 1272 701 1272 c 0,28,29
 586 1272 586 1272 521 1206 c 128,-1,30
 456 1140 456 1140 456 1023 c 0,31,32
 456 969 456 969 466.5 916.5 c 128,-1,33
 477 864 477 864 489.5 826 c 128,-1,34
 502 788 502 788 503 788 c 2,35,-1
 977 788 l 1,36,-1
 977 622 l 1,37,-1
 543 622 l 1,38,-1
 554 556 l 2,39,40
 559 513 559 513 559 471 c 0,41,42
 559 312 559 312 451 203 c 0,43,44
 420 172 420 172 412 167 c 1,45,-1
 1178 167 l 1,46,-1
 1178 0 l 1,0,-1
EndSplineSet
EndChar

StartChar: currency
Encoding: 164 164 102
Width: 1362
GlyphClass: 1
Flags: W
LayerCount: 2
Fore
SplineSet
1051 149 m 1,0,-1
 945 256 l 1,1,2
 818 170 818 170 680 170 c 0,3,4
 544 170 544 170 415 256 c 1,5,-1
 310 149 l 1,6,-1
 200 264 l 1,7,-1
 306 368 l 1,8,9
 221 487 221 487 221 631 c 0,10,11
 221 778 221 778 306 894 c 1,12,-1
 202 995 l 1,13,-1
 312 1111 l 1,14,-1
 417 1004 l 1,15,16
 538 1091 538 1091 684 1091 c 0,17,18
 829 1091 829 1091 945 1006 c 1,19,-1
 1049 1109 l 1,20,-1
 1160 999 l 1,21,-1
 1057 896 l 1,22,23
 1142 779 1142 779 1142 631 c 0,24,25
 1142 485 1142 485 1057 366 c 1,26,-1
 1160 264 l 1,27,-1
 1051 149 l 1,0,-1
679 325 m 0,28,29
 768 325 768 325 846.5 375.5 c 128,-1,30
 925 426 925 426 963 516 c 0,31,32
 985 572 985 572 985 631 c 0,33,34
 985 726 985 726 931.5 801.5 c 128,-1,35
 878 877 878 877 795 912 c 0,36,37
 739 934 739 934 680 934 c 0,38,39
 594 934 594 934 515 884 c 128,-1,40
 436 834 436 834 398 744 c 0,41,42
 376 687 376 687 376 627 c 0,43,44
 376 570 376 570 397 515 c 128,-1,45
 418 460 418 460 461 416 c 0,46,47
 508 369 508 369 564.5 347 c 128,-1,48
 621 325 621 325 679 325 c 0,28,29
EndSplineSet
EndChar

StartChar: yen
Encoding: 165 165 103
Width: 1314
GlyphClass: 1
Flags: W
LayerCount: 2
Fore
SplineSet
744 0 m 1,0,-1
 570 0 l 1,1,-1
 570 249 l 1,2,-1
 271 249 l 1,3,-1
 271 397 l 1,4,-1
 570 397 l 1,5,-1
 570 515 l 1,6,-1
 271 515 l 1,7,-1
 271 664 l 1,8,-1
 501 664 l 1,9,-1
 27 1413 l 1,10,-1
 233 1413 l 1,11,-1
 658 727 l 1,12,-1
 1082 1413 l 1,13,-1
 1288 1413 l 1,14,-1
 814 663 l 1,15,-1
 1044 663 l 1,16,-1
 1044 515 l 1,17,-1
 744 515 l 1,18,-1
 744 397 l 1,19,-1
 1044 397 l 1,20,-1
 1044 249 l 1,21,-1
 744 249 l 1,22,-1
 744 0 l 1,0,-1
EndSplineSet
EndChar

StartChar: brokenbar
Encoding: 166 166 104
Width: 630
GlyphClass: 1
Flags: W
LayerCount: 2
Fore
SplineSet
391 731 m 1,0,-1
 239 731 l 1,1,-1
 239 1475 l 1,2,-1
 391 1475 l 1,3,-1
 391 731 l 1,0,-1
391 -307 m 1,4,-1
 239 -307 l 1,5,-1
 239 420 l 1,6,-1
 391 420 l 1,7,-1
 391 -307 l 1,4,-1
EndSplineSet
EndChar

StartChar: section
Encoding: 167 167 105
Width: 1119
GlyphClass: 1
Flags: W
LayerCount: 2
Fore
SplineSet
565 -18 m 0,0,1
 408 -18 408 -18 292 54.5 c 128,-1,2
 176 127 176 127 142 270 c 1,3,-1
 325 328 l 1,4,5
 346 234 346 234 407 188.5 c 128,-1,6
 468 143 468 143 574 143 c 0,7,8
 667 143 667 143 727.5 176 c 128,-1,9
 788 209 788 209 788 284 c 0,10,11
 788 332 788 332 756 361 c 128,-1,12
 724 390 724 390 675.5 405 c 128,-1,13
 627 420 627 420 544 438 c 0,14,15
 429 462 429 462 357.5 490.5 c 128,-1,16
 286 519 286 519 240 572 c 0,17,18
 190 629 190 629 190 727 c 0,19,20
 190 851 190 851 285 939 c 1,21,22
 237 977 237 977 214.5 1027 c 128,-1,23
 192 1077 192 1077 192 1132 c 0,24,25
 192 1230 192 1230 244.5 1297 c 128,-1,26
 297 1364 297 1364 381 1399 c 128,-1,27
 465 1434 465 1434 559 1434 c 0,28,29
 695 1434 695 1434 791.5 1373.5 c 128,-1,30
 888 1313 888 1313 933 1213 c 1,31,-1
 769 1136 l 1,32,33
 746 1209 746 1209 689 1243 c 128,-1,34
 632 1277 632 1277 554 1277 c 0,35,36
 464 1277 464 1277 410.5 1233.5 c 128,-1,37
 357 1190 357 1190 357 1128 c 0,38,39
 357 1084 357 1084 387.5 1058 c 128,-1,40
 418 1032 418 1032 463.5 1018.5 c 128,-1,41
 509 1005 509 1005 590 988 c 0,42,43
 706 963 706 963 778.5 937 c 128,-1,44
 851 911 851 911 903 851 c 128,-1,45
 955 791 955 791 955 688 c 0,46,47
 955 561 955 561 867 479 c 1,48,49
 955 406 955 406 955 283 c 0,50,51
 955 178 955 178 899.5 111.5 c 128,-1,52
 844 45 844 45 755 13.5 c 128,-1,53
 666 -18 666 -18 565 -18 c 0,0,1
691 551 m 1,54,55
 741 570 741 570 764.5 606.5 c 128,-1,56
 788 643 788 643 788 688 c 0,57,58
 788 743 788 743 750 777 c 128,-1,59
 712 811 712 811 655.5 829 c 128,-1,60
 599 847 599 847 506 867 c 2,61,-1
 458 878 l 1,62,63
 407 856 407 856 382 816 c 128,-1,64
 357 776 357 776 357 733 c 0,65,66
 357 682 357 682 395.5 649.5 c 128,-1,67
 434 617 434 617 489 600 c 128,-1,68
 544 583 544 583 633 564 c 2,69,-1
 691 551 l 1,54,55
EndSplineSet
EndChar

StartChar: copyright
Encoding: 169 169 107
Width: 1745
GlyphClass: 1
Flags: W
LayerCount: 2
Fore
SplineSet
873 -50 m 0,0,1
 727 -50 727 -50 600 -1.5 c 128,-1,2
 473 47 473 47 373 131.5 c 128,-1,3
 273 216 273 216 207 328 c 0,4,5
 104 501 104 501 104 707 c 0,6,7
 104 850 104 850 153 974.5 c 128,-1,8
 202 1099 202 1099 287.5 1197 c 128,-1,9
 373 1295 373 1295 487 1361 c 0,10,11
 664 1463 664 1463 873 1463 c 0,12,13
 1019 1463 1019 1463 1145.5 1414.5 c 128,-1,14
 1272 1366 1272 1366 1371.5 1281.5 c 128,-1,15
 1471 1197 1471 1197 1538 1086 c 0,16,17
 1641 912 1641 912 1641 707 c 0,18,19
 1641 563 1641 563 1592 438.5 c 128,-1,20
 1543 314 1543 314 1457 215.5 c 128,-1,21
 1371 117 1371 117 1258 52 c 0,22,23
 1082 -50 1082 -50 873 -50 c 0,0,1
873 102 m 0,24,25
 1045 102 1045 102 1184 186.5 c 128,-1,26
 1323 271 1323 271 1405 407 c 0,27,28
 1489 546 1489 546 1489 707 c 0,29,30
 1489 820 1489 820 1449 919 c 128,-1,31
 1409 1018 1409 1018 1339.5 1097 c 128,-1,32
 1270 1176 1270 1176 1179 1229 c 0,33,34
 1037 1311 1037 1311 873 1311 c 0,35,36
 758 1311 758 1311 656.5 1272 c 128,-1,37
 555 1233 555 1233 474.5 1164.5 c 128,-1,38
 394 1096 394 1096 340 1007 c 0,39,40
 256 868 256 868 256 707 c 0,41,42
 256 538 256 538 342 401.5 c 128,-1,43
 428 265 428 265 566 185 c 0,44,45
 708 102 708 102 873 102 c 0,24,25
889 283 m 0,46,47
 766 283 766 283 684 340.5 c 128,-1,48
 602 398 602 398 560.5 494 c 128,-1,49
 519 590 519 590 519 705 c 0,50,51
 519 815 519 815 558.5 911 c 128,-1,52
 598 1007 598 1007 680 1066.5 c 128,-1,53
 762 1126 762 1126 889 1126 c 0,54,55
 1006 1126 1006 1126 1088.5 1069.5 c 128,-1,56
 1171 1013 1171 1013 1218 911 c 1,57,-1
 1079 852 l 1,58,59
 1019 974 1019 974 889 974 c 0,60,61
 813 974 813 974 764.5 937.5 c 128,-1,62
 716 901 716 901 692 840 c 128,-1,63
 668 779 668 779 668 705 c 0,64,65
 668 589 668 589 723 513.5 c 128,-1,66
 778 438 778 438 887 438 c 0,67,68
 1019 438 1019 438 1077 560 c 1,69,-1
 1218 500 l 1,70,71
 1117 283 1117 283 889 283 c 0,46,47
EndSplineSet
EndChar

StartChar: ordfeminine
Encoding: 170 170 108
Width: 899
GlyphClass: 2
Flags: W
LayerCount: 2
Fore
SplineSet
365 709 m 0,0,1
 301 709 301 709 247 735 c 128,-1,2
 193 761 193 761 160 809 c 128,-1,3
 127 857 127 857 127 923 c 0,4,5
 127 999 127 999 162 1046 c 128,-1,6
 197 1093 197 1093 257.5 1115 c 128,-1,7
 318 1137 318 1137 396 1137 c 2,8,-1
 600 1137 l 1,9,10
 600 1318 600 1318 435 1318 c 0,11,12
 375 1318 375 1318 329.5 1288 c 128,-1,13
 284 1258 284 1258 255 1215 c 1,14,-1
 151 1283 l 1,15,16
 256 1434 256 1434 439 1434 c 0,17,18
 578 1434 578 1434 651 1355.5 c 128,-1,19
 724 1277 724 1277 724 1151 c 2,20,-1
 724 723 l 1,21,-1
 610 723 l 1,22,-1
 605 824 l 1,23,24
 517 709 517 709 365 709 c 0,0,1
392 827 m 0,25,26
 450 827 450 827 496 856 c 128,-1,27
 542 885 542 885 569.5 929.5 c 128,-1,28
 597 974 597 974 600 1023 c 1,29,-1
 406 1023 l 2,30,31
 347 1023 347 1023 307.5 997 c 128,-1,32
 268 971 268 971 268 923 c 0,33,34
 268 881 268 881 308 854 c 128,-1,35
 348 827 348 827 392 827 c 0,25,26
EndSplineSet
EndChar

StartChar: guillemotleft
Encoding: 171 171 109
Width: 959
GlyphClass: 1
Flags: W
LayerCount: 2
Fore
SplineSet
438 171 m 1,0,-1
 42 511 l 1,1,-1
 438 851 l 1,2,-1
 438 666 l 1,3,-1
 251 511 l 1,4,-1
 438 356 l 1,5,-1
 438 171 l 1,0,-1
802 171 m 1,6,-1
 404 511 l 1,7,-1
 802 851 l 1,8,-1
 802 666 l 1,9,-1
 614 511 l 1,10,-1
 802 356 l 1,11,-1
 802 171 l 1,6,-1
EndSplineSet
EndChar

StartChar: logicalnot
Encoding: 172 172 110
Width: 1292
GlyphClass: 1
Flags: W
LayerCount: 2
Fore
SplineSet
1056 291 m 1,0,-1
 872 291 l 1,1,-1
 872 624 l 1,2,-1
 145 624 l 1,3,-1
 145 797 l 1,4,-1
 1056 797 l 1,5,-1
 1056 291 l 1,0,-1
EndSplineSet
EndChar

StartChar: uni00AD
Encoding: 173 173 111
Width: 993
GlyphClass: 1
Flags: W
LayerCount: 2
Fore
SplineSet
841 545 m 1,0,-1
 152 545 l 1,1,-1
 152 692 l 1,2,-1
 841 692 l 1,3,-1
 841 545 l 1,0,-1
EndSplineSet
EndChar

StartChar: registered
Encoding: 174 174 112
Width: 1745
GlyphClass: 1
Flags: W
LayerCount: 2
Fore
SplineSet
873 -48 m 0,0,1
 727 -48 727 -48 600 0.5 c 128,-1,2
 473 49 473 49 373 133.5 c 128,-1,3
 273 218 273 218 207 330 c 0,4,5
 104 503 104 503 104 709 c 0,6,7
 104 852 104 852 153 976.5 c 128,-1,8
 202 1101 202 1101 287.5 1199 c 128,-1,9
 373 1297 373 1297 487 1363 c 0,10,11
 664 1465 664 1465 873 1465 c 0,12,13
 1019 1465 1019 1465 1145.5 1416.5 c 128,-1,14
 1272 1368 1272 1368 1371.5 1283.5 c 128,-1,15
 1471 1199 1471 1199 1538 1088 c 0,16,17
 1641 914 1641 914 1641 709 c 0,18,19
 1641 565 1641 565 1592 440.5 c 128,-1,20
 1543 316 1543 316 1457 217.5 c 128,-1,21
 1371 119 1371 119 1258 54 c 0,22,23
 1082 -48 1082 -48 873 -48 c 0,0,1
873 96 m 0,24,25
 1048 96 1048 96 1188.5 181 c 128,-1,26
 1329 266 1329 266 1412 403 c 0,27,28
 1497 544 1497 544 1497 709 c 0,29,30
 1497 824 1497 824 1456.5 924.5 c 128,-1,31
 1416 1025 1416 1025 1346 1105 c 128,-1,32
 1276 1185 1276 1185 1184 1239 c 0,33,34
 1040 1322 1040 1322 873 1322 c 0,35,36
 756 1322 756 1322 653 1282.5 c 128,-1,37
 550 1243 550 1243 468 1173.5 c 128,-1,38
 386 1104 386 1104 332 1014 c 0,39,40
 246 873 246 873 246 709 c 0,41,42
 246 594 246 594 286.5 493 c 128,-1,43
 327 392 327 392 398 312 c 128,-1,44
 469 232 469 232 561 179 c 0,45,46
 705 96 705 96 873 96 c 0,24,25
1245 297 m 1,47,-1
 1070 297 l 1,48,-1
 896 622 l 1,49,-1
 766 622 l 1,50,-1
 766 297 l 1,51,-1
 615 297 l 1,52,-1
 615 1106 l 1,53,-1
 926 1106 l 2,54,55
 1066 1106 1066 1106 1132.5 1040 c 128,-1,56
 1199 974 1199 974 1199 864 c 0,57,58
 1199 769 1199 769 1155 714.5 c 128,-1,59
 1111 660 1111 660 1044 640 c 1,60,-1
 1245 297 l 1,47,-1
926 762 m 2,61,62
 1058 762 1058 762 1058 857 c 2,63,-1
 1058 864 l 2,64,65
 1058 920 1058 920 1027 942.5 c 128,-1,66
 996 965 996 965 926 965 c 2,67,-1
 756 965 l 1,68,-1
 756 762 l 1,69,-1
 926 762 l 2,61,62
EndSplineSet
EndChar

StartChar: degree
Encoding: 176 176 114
Width: 916
GlyphClass: 1
Flags: W
LayerCount: 2
Fore
SplineSet
458 848 m 0,0,1
 373 848 373 848 307 889 c 128,-1,2
 241 930 241 930 203 997 c 128,-1,3
 165 1064 165 1064 165 1141 c 0,4,5
 165 1227 165 1227 206.5 1293 c 128,-1,6
 248 1359 248 1359 315 1396.5 c 128,-1,7
 382 1434 382 1434 458 1434 c 0,8,9
 542 1434 542 1434 608 1393 c 128,-1,10
 674 1352 674 1352 712 1285.5 c 128,-1,11
 750 1219 750 1219 750 1141 c 0,12,13
 750 1056 750 1056 709 990 c 128,-1,14
 668 924 668 924 601.5 886 c 128,-1,15
 535 848 535 848 458 848 c 0,0,1
458 974 m 0,16,17
 527 974 527 974 576 1023 c 128,-1,18
 625 1072 625 1072 625 1141 c 0,19,20
 625 1213 625 1213 574 1260 c 128,-1,21
 523 1307 523 1307 458 1307 c 0,22,23
 387 1307 387 1307 339.5 1257 c 128,-1,24
 292 1207 292 1207 292 1141 c 0,25,26
 292 1069 292 1069 342.5 1021.5 c 128,-1,27
 393 974 393 974 458 974 c 0,16,17
EndSplineSet
EndChar

StartChar: plusminus
Encoding: 177 177 115
Width: 1325
GlyphClass: 1
Flags: W
LayerCount: 2
Fore
SplineSet
736 106 m 1,0,-1
 589 106 l 1,1,-1
 589 552 l 1,2,-1
 132 552 l 1,3,-1
 132 699 l 1,4,-1
 589 699 l 1,5,-1
 589 1143 l 1,6,-1
 736 1143 l 1,7,-1
 736 699 l 1,8,-1
 1193 699 l 1,9,-1
 1193 552 l 1,10,-1
 736 552 l 1,11,-1
 736 106 l 1,0,-1
1192 -147 m 1,12,-1
 134 -147 l 1,13,-1
 134 0 l 1,14,-1
 1192 0 l 1,15,-1
 1192 -147 l 1,12,-1
EndSplineSet
EndChar

StartChar: twosuperior
Encoding: 178 178 116
Width: 826
GlyphClass: 2
Flags: W
LayerCount: 2
Fore
SplineSet
763 486 m 1,0,-1
 49 486 l 1,1,-1
 49 613 l 1,2,3
 261 740 261 740 391 861 c 0,4,5
 477 943 477 943 519.5 1012.5 c 128,-1,6
 562 1082 562 1082 562 1152 c 0,7,8
 562 1219 562 1219 524.5 1261.5 c 128,-1,9
 487 1304 487 1304 414 1304 c 0,10,11
 355 1304 355 1304 316.5 1276.5 c 128,-1,12
 278 1249 278 1249 258 1202.5 c 128,-1,13
 238 1156 238 1156 235 1097 c 1,14,-1
 86 1107 l 1,15,16
 86 1200 86 1200 124.5 1276 c 128,-1,17
 163 1352 163 1352 236 1396.5 c 128,-1,18
 309 1441 309 1441 412 1441 c 0,19,20
 508 1441 508 1441 576 1405 c 128,-1,21
 644 1369 644 1369 680.5 1308 c 128,-1,22
 717 1247 717 1247 717 1172 c 0,23,24
 717 1072 717 1072 657 979 c 0,25,26
 603 897 603 897 523.5 817.5 c 128,-1,27
 444 738 444 738 373 686 c 0,28,29
 324 650 324 650 273 620 c 1,30,-1
 763 620 l 1,31,-1
 763 486 l 1,0,-1
EndSplineSet
EndChar

StartChar: threesuperior
Encoding: 179 179 117
Width: 860
GlyphClass: 2
Flags: W
LayerCount: 2
Fore
SplineSet
418 464 m 0,0,1
 321 464 321 464 237 496 c 128,-1,2
 153 528 153 528 101.5 595 c 128,-1,3
 50 662 50 662 50 766 c 1,4,-1
 193 776 l 1,5,6
 193 719 193 719 224 680.5 c 128,-1,7
 255 642 255 642 306 622 c 128,-1,8
 357 602 357 602 418 602 c 0,9,10
 476 602 476 602 526.5 620 c 128,-1,11
 577 638 577 638 608.5 674.5 c 128,-1,12
 640 711 640 711 640 766 c 0,13,14
 640 841 640 841 583.5 880.5 c 128,-1,15
 527 920 527 920 439 920 c 2,16,-1
 345 920 l 1,17,-1
 345 1051 l 1,18,-1
 439 1051 l 2,19,20
 510 1051 510 1051 546 1085.5 c 128,-1,21
 582 1120 582 1120 582 1175 c 0,22,23
 582 1242 582 1242 533 1276 c 128,-1,24
 484 1310 484 1310 416 1310 c 0,25,26
 343 1310 343 1310 294.5 1272.5 c 128,-1,27
 246 1235 246 1235 243 1168 c 1,28,-1
 102 1179 l 1,29,30
 102 1266 102 1266 145 1326.5 c 128,-1,31
 188 1387 188 1387 259 1418.5 c 128,-1,32
 330 1450 330 1450 414 1450 c 0,33,34
 495 1450 495 1450 566.5 1420 c 128,-1,35
 638 1390 638 1390 682 1333.5 c 128,-1,36
 726 1277 726 1277 726 1196 c 0,37,38
 726 1136 726 1136 698 1084 c 128,-1,39
 670 1032 670 1032 617 997 c 1,40,41
 702 961 702 961 742 898 c 128,-1,42
 782 835 782 835 783 757 c 0,43,44
 783 661 783 661 733.5 596 c 128,-1,45
 684 531 684 531 601 497.5 c 128,-1,46
 518 464 518 464 418 464 c 0,0,1
EndSplineSet
EndChar

StartChar: uni00B5
Encoding: 181 181 119
Width: 1314
GlyphClass: 1
Flags: W
LayerCount: 2
Fore
SplineSet
417 -266 m 1,0,-1
 248 -266 l 1,1,-1
 248 1039 l 1,2,-1
 438 1039 l 1,3,-1
 438 422 l 2,4,5
 438 151 438 151 633 151 c 0,6,7
 717 151 717 151 783 194.5 c 128,-1,8
 849 238 849 238 887.5 306 c 128,-1,9
 926 374 926 374 926 448 c 2,10,-1
 926 1039 l 1,11,-1
 1116 1039 l 1,12,-1
 1116 0 l 1,13,-1
 926 0 l 1,14,-1
 926 136 l 1,15,16
 880 71 880 71 799.5 24 c 128,-1,17
 719 -23 719 -23 617 -23 c 256,18,19
 515 -23 515 -23 437 19 c 1,20,-1
 417 -266 l 1,0,-1
EndSplineSet
EndChar

StartChar: paragraph
Encoding: 182 182 120
Width: 1299
GlyphClass: 1
Flags: W
LayerCount: 2
Fore
SplineSet
699 -246 m 1,0,-1
 547 -246 l 1,1,-1
 547 623 l 1,2,3
 433 623 433 623 329 668.5 c 128,-1,4
 225 714 225 714 157 808 c 0,5,6
 94 898 94 898 94 1018 c 0,7,8
 94 1144 94 1144 159 1232 c 128,-1,9
 224 1320 224 1320 327.5 1366.5 c 128,-1,10
 431 1413 431 1413 547 1413 c 2,11,-1
 699 1413 l 1,12,-1
 699 -246 l 1,0,-1
1060 -246 m 1,13,-1
 907 -246 l 1,14,-1
 907 1413 l 1,15,-1
 1060 1413 l 1,16,-1
 1060 -246 l 1,13,-1
EndSplineSet
EndChar

StartChar: periodcentered
Encoding: 183 183 121
Width: 630
GlyphClass: 1
Flags: W
LayerCount: 2
Fore
SplineSet
314 677 m 0,0,1
 255 677 255 677 217 718 c 128,-1,2
 179 759 179 759 179 813 c 0,3,4
 179 872 179 872 218 910 c 128,-1,5
 257 948 257 948 314 948 c 0,6,7
 373 948 373 948 412 908.5 c 128,-1,8
 451 869 451 869 451 813 c 0,9,10
 451 755 451 755 409.5 716 c 128,-1,11
 368 677 368 677 314 677 c 0,0,1
EndSplineSet
EndChar

StartChar: cedilla
Encoding: 184 184 122
Width: 569
GlyphClass: 4
Flags: W
AnchorPoint: "Anchor-3" 277 -500 basemark 0
LayerCount: 2
Fore
SplineSet
260 -513 m 0,0,1
 195 -513 195 -513 144.5 -476.5 c 128,-1,2
 94 -440 94 -440 72 -386 c 1,3,-1
 188 -332 l 1,4,5
 194 -357 194 -357 215.5 -375 c 128,-1,6
 237 -393 237 -393 266 -393 c 0,7,8
 308 -393 308 -393 332 -367.5 c 128,-1,9
 356 -342 356 -342 356 -305 c 0,10,11
 356 -259 356 -259 311.5 -223 c 128,-1,12
 267 -187 267 -187 178 -187 c 2,13,-1
 124 -187 l 1,14,-1
 233 -1 l 1,15,-1
 364 -1 l 1,16,-1
 292 -109 l 1,17,18
 387 -118 387 -118 433.5 -170.5 c 128,-1,19
 480 -223 480 -223 480 -297 c 0,20,21
 480 -354 480 -354 453 -403 c 128,-1,22
 426 -452 426 -452 376.5 -482.5 c 128,-1,23
 327 -513 327 -513 260 -513 c 0,0,1
EndSplineSet
EndChar

StartChar: onesuperior
Encoding: 185 185 123
Width: 809
GlyphClass: 2
Flags: W
LayerCount: 2
Fore
SplineSet
536 486 m 1,0,-1
 385 486 l 1,1,-1
 385 1181 l 1,2,-1
 135 1181 l 1,3,-1
 135 1300 l 1,4,-1
 285 1300 l 2,5,6
 339 1300 339 1300 366.5 1329.5 c 128,-1,7
 394 1359 394 1359 394 1406 c 2,8,-1
 394 1428 l 1,9,-1
 536 1428 l 1,10,-1
 536 486 l 1,0,-1
EndSplineSet
EndChar

StartChar: ordmasculine
Encoding: 186 186 124
Width: 942
GlyphClass: 2
Flags: W
LayerCount: 2
Fore
SplineSet
471 711 m 0,0,1
 364 711 364 711 286 761.5 c 128,-1,2
 208 812 208 812 165 894.5 c 128,-1,3
 122 977 122 977 122 1073 c 0,4,5
 122 1175 122 1175 167 1256.5 c 128,-1,6
 212 1338 212 1338 290.5 1386 c 128,-1,7
 369 1434 369 1434 471 1434 c 0,8,9
 576 1434 576 1434 654 1384 c 128,-1,10
 732 1334 732 1334 775 1252 c 128,-1,11
 818 1170 818 1170 818 1073 c 0,12,13
 818 972 818 972 773.5 890 c 128,-1,14
 729 808 729 808 651 759.5 c 128,-1,15
 573 711 573 711 471 711 c 0,0,1
471 837 m 0,16,17
 572 837 572 837 620.5 902.5 c 128,-1,18
 669 968 669 968 669 1073 c 0,19,20
 669 1177 669 1177 620.5 1243 c 128,-1,21
 572 1309 572 1309 471 1309 c 0,22,23
 369 1309 369 1309 320 1243 c 128,-1,24
 271 1177 271 1177 271 1073 c 0,25,26
 271 968 271 968 320 902.5 c 128,-1,27
 369 837 369 837 471 837 c 0,16,17
EndSplineSet
EndChar

StartChar: guillemotright
Encoding: 187 187 125
Width: 960
GlyphClass: 1
Flags: W
LayerCount: 2
Fore
SplineSet
155 171 m 1,0,-1
 155 356 l 1,1,-1
 342 511 l 1,2,-1
 155 666 l 1,3,-1
 155 851 l 1,4,-1
 552 511 l 1,5,-1
 155 171 l 1,0,-1
517 171 m 1,6,-1
 517 356 l 1,7,-1
 705 511 l 1,8,-1
 517 666 l 1,9,-1
 517 851 l 1,10,-1
 915 511 l 1,11,-1
 517 171 l 1,6,-1
EndSplineSet
EndChar

StartChar: questiondown
Encoding: 191 191 126
Width: 1007
GlyphClass: 1
Flags: W
LayerCount: 2
Fore
SplineSet
624 773 m 1,0,-1
 395 773 l 1,1,-1
 395 999 l 1,2,-1
 624 999 l 1,3,-1
 624 773 l 1,0,-1
520 -434 m 0,4,5
 407 -434 407 -434 308.5 -392.5 c 128,-1,6
 210 -351 210 -351 149 -266.5 c 128,-1,7
 88 -182 88 -182 88 -54 c 0,8,9
 88 112 88 112 192 202 c 0,10,11
 236 239 236 239 304 276 c 0,12,13
 350 301 350 301 374 318 c 0,14,15
 428 358 428 358 428 414 c 2,16,-1
 428 601 l 1,17,-1
 597 601 l 1,18,-1
 597 412 l 2,19,20
 597 275 597 275 513 212 c 0,21,22
 472 182 472 182 418 152 c 0,23,24
 369 125 369 125 336 101 c 0,25,26
 263 48 263 48 263 -58 c 0,27,28
 263 -131 263 -131 295.5 -177.5 c 128,-1,29
 328 -224 328 -224 384.5 -246.5 c 128,-1,30
 441 -269 441 -269 512 -269 c 0,31,32
 614 -269 614 -269 686 -212.5 c 128,-1,33
 758 -156 758 -156 762 -42 c 1,34,-1
 939 -42 l 1,35,36
 933 -228 933 -228 812.5 -331 c 128,-1,37
 692 -434 692 -434 520 -434 c 0,4,5
EndSplineSet
EndChar

StartChar: Acircumflex
Encoding: 194 194 129
Width: 1323
GlyphClass: 1
Flags: W
LayerCount: 2
Fore
SplineSet
1284 0 m 1,0,-1
 1065 0 l 1,1,-1
 957 307 l 1,2,-1
 370 307 l 1,3,-1
 261 0 l 1,4,-1
 39 0 l 1,5,-1
 586 1413 l 1,6,-1
 740 1413 l 1,7,-1
 1284 0 l 1,0,-1
888 486 m 1,8,-1
 664 1114 l 1,9,-1
 438 486 l 1,10,-1
 888 486 l 1,8,-1
984 1511 m 1,11,-1
 811 1511 l 1,12,-1
 661 1678 l 1,13,-1
 513 1511 l 1,14,-1
 338 1511 l 1,15,-1
 661 1865 l 1,16,-1
 984 1511 l 1,11,-1
EndSplineSet
Position2: "'cpsp' Capital Spacing lookup 0 subtable" dx=5 dy=0 dh=10 dv=0
EndChar

StartChar: Aring
Encoding: 197 197 132
Width: 1323
GlyphClass: 1
Flags: W
LayerCount: 2
Fore
SplineSet
1284 0 m 1,0,-1
 1065 0 l 1,1,-1
 957 307 l 1,2,-1
 370 307 l 1,3,-1
 261 0 l 1,4,-1
 39 0 l 1,5,-1
 554 1331 l 1,6,7
 506 1359 506 1359 476.5 1408 c 128,-1,8
 447 1457 447 1457 447 1518 c 0,9,10
 447 1612 447 1612 511 1673 c 128,-1,11
 575 1734 575 1734 661 1734 c 0,12,13
 754 1734 754 1734 816.5 1669.5 c 128,-1,14
 879 1605 879 1605 879 1518 c 0,15,16
 879 1456 879 1456 849 1408 c 128,-1,17
 819 1360 819 1360 771 1333 c 1,18,-1
 1284 0 l 1,0,-1
661 1418 m 0,19,20
 706 1418 706 1418 734 1447.5 c 128,-1,21
 762 1477 762 1477 762 1519 c 256,22,23
 762 1561 762 1561 735.5 1588.5 c 128,-1,24
 709 1616 709 1616 661 1616 c 0,25,26
 616 1616 616 1616 589.5 1589 c 128,-1,27
 563 1562 563 1562 563 1519 c 0,28,29
 563 1474 563 1474 591 1446 c 128,-1,30
 619 1418 619 1418 661 1418 c 0,19,20
888 486 m 1,31,-1
 664 1114 l 1,32,-1
 438 486 l 1,33,-1
 888 486 l 1,31,-1
EndSplineSet
Position2: "'cpsp' Capital Spacing lookup 0 subtable" dx=5 dy=0 dh=10 dv=0
EndChar

StartChar: AE
Encoding: 198 198 133
Width: 1835
GlyphClass: 1
Flags: W
LayerCount: 2
Fore
SplineSet
1730 0 m 1,0,-1
 791 0 l 1,1,-1
 791 307 l 1,2,-1
 357 307 l 1,3,-1
 247 0 l 1,4,-1
 39 0 l 1,5,-1
 581 1413 l 1,6,-1
 1730 1413 l 1,7,-1
 1730 1245 l 1,8,-1
 983 1245 l 1,9,-1
 983 792 l 1,10,-1
 1642 792 l 1,11,-1
 1642 621 l 1,12,-1
 983 621 l 1,13,-1
 983 175 l 1,14,-1
 1730 175 l 1,15,-1
 1730 0 l 1,0,-1
791 474 m 1,16,-1
 791 1245 l 1,17,-1
 709 1245 l 1,18,-1
 420 474 l 1,19,-1
 791 474 l 1,16,-1
EndSplineSet
Position2: "'cpsp' Capital Spacing lookup 0 subtable" dx=5 dy=0 dh=10 dv=0
EndChar

StartChar: Ccedilla
Encoding: 199 199 134
Width: 1425
GlyphClass: 1
Flags: W
LayerCount: 2
Fore
SplineSet
752 -513 m 0,0,1
 687 -513 687 -513 636.5 -476.5 c 128,-1,2
 586 -440 586 -440 564 -386 c 1,3,-1
 680 -332 l 1,4,5
 686 -357 686 -357 707.5 -375 c 128,-1,6
 729 -393 729 -393 758 -393 c 0,7,8
 800 -393 800 -393 824 -367.5 c 128,-1,9
 848 -342 848 -342 848 -305 c 0,10,11
 848 -259 848 -259 803.5 -223 c 128,-1,12
 759 -187 759 -187 670 -187 c 2,13,-1
 616 -187 l 1,14,-1
 715 -19 l 1,15,16
 514 -8 514 -8 377 92 c 0,17,18
 234 199 234 199 169.5 360 c 128,-1,19
 105 521 105 521 105 707 c 0,20,21
 105 835 105 835 135 953.5 c 128,-1,22
 165 1072 165 1072 229.5 1170 c 128,-1,23
 294 1268 294 1268 397 1338 c 0,24,25
 544 1436 544 1436 760 1436 c 0,26,27
 954 1436 954 1436 1110 1340.5 c 128,-1,28
 1266 1245 1266 1245 1355 1046 c 1,29,-1
 1167 968 l 1,30,31
 1127 1111 1127 1111 1019.5 1177.5 c 128,-1,32
 912 1244 912 1244 758 1244 c 0,33,34
 602 1244 602 1244 502 1173.5 c 128,-1,35
 402 1103 402 1103 354 983.5 c 128,-1,36
 306 864 306 864 306 717 c 0,37,38
 306 476 306 476 413 331 c 0,39,40
 531 171 531 171 762 171 c 0,41,42
 917 171 917 171 1016.5 240.5 c 128,-1,43
 1116 310 1116 310 1170 450 c 1,44,-1
 1357 371 l 1,45,46
 1280 196 1280 196 1147.5 100 c 128,-1,47
 1015 4 1015 4 846 -15 c 1,48,-1
 784 -109 l 1,49,50
 879 -118 879 -118 925.5 -170.5 c 128,-1,51
 972 -223 972 -223 972 -297 c 0,52,53
 972 -354 972 -354 945 -403 c 128,-1,54
 918 -452 918 -452 868.5 -482.5 c 128,-1,55
 819 -513 819 -513 752 -513 c 0,0,1
EndSplineSet
Position2: "'cpsp' Capital Spacing lookup 0 subtable" dx=5 dy=0 dh=10 dv=0
EndChar

StartChar: Ecircumflex
Encoding: 202 202 137
Width: 1242
GlyphClass: 1
Flags: W
LayerCount: 2
Fore
SplineSet
1125 0 m 1,0,-1
 198 0 l 1,1,-1
 198 1413 l 1,2,-1
 1125 1413 l 1,3,-1
 1125 1231 l 1,4,-1
 401 1231 l 1,5,-1
 401 797 l 1,6,-1
 1050 797 l 1,7,-1
 1050 617 l 1,8,-1
 401 617 l 1,9,-1
 401 189 l 1,10,-1
 1125 189 l 1,11,-1
 1125 0 l 1,0,-1
967 1511 m 1,12,-1
 794 1511 l 1,13,-1
 644 1678 l 1,14,-1
 496 1511 l 1,15,-1
 321 1511 l 1,16,-1
 644 1865 l 1,17,-1
 967 1511 l 1,12,-1
EndSplineSet
Position2: "'cpsp' Capital Spacing lookup 0 subtable" dx=5 dy=0 dh=10 dv=0
EndChar

StartChar: Eth
Encoding: 208 208 143
Width: 1426
GlyphClass: 1
Flags: W
LayerCount: 2
Fore
SplineSet
597 0 m 2,0,-1
 218 0 l 1,1,-1
 218 639 l 1,2,-1
 105 639 l 1,3,-1
 105 787 l 1,4,-1
 218 787 l 1,5,-1
 218 1413 l 1,6,-1
 599 1413 l 2,7,8
 954 1413 954 1413 1139 1225.5 c 128,-1,9
 1324 1038 1324 1038 1324 696 c 0,10,11
 1324 470 1324 470 1236.5 315 c 128,-1,12
 1149 160 1149 160 986 80 c 128,-1,13
 823 0 823 0 597 0 c 2,0,-1
572 181 m 2,14,15
 736 181 736 181 861 236 c 128,-1,16
 986 291 986 291 1056.5 407.5 c 128,-1,17
 1127 524 1127 524 1127 707 c 0,18,19
 1127 1234 1127 1234 595 1234 c 2,20,-1
 413 1234 l 1,21,-1
 413 787 l 1,22,-1
 794 787 l 1,23,-1
 794 639 l 1,24,-1
 413 639 l 1,25,-1
 413 181 l 1,26,-1
 572 181 l 2,14,15
EndSplineSet
Position2: "'cpsp' Capital Spacing lookup 0 subtable" dx=5 dy=0 dh=10 dv=0
EndChar

StartChar: Ocircumflex
Encoding: 212 212 147
Width: 1521
GlyphClass: 1
Flags: W
LayerCount: 2
Fore
SplineSet
1082 1511 m 1,0,-1
 909 1511 l 1,1,-1
 759 1678 l 1,2,-1
 611 1511 l 1,3,-1
 436 1511 l 1,4,-1
 759 1865 l 1,5,-1
 1082 1511 l 1,0,-1
760 -20 m 256,6,7
 545 -20 545 -20 398 78 c 0,8,9
 244 183 244 183 174 349.5 c 128,-1,10
 104 516 104 516 104 707 c 256,11,12
 104 898 104 898 174 1064.5 c 128,-1,13
 244 1231 244 1231 398 1336 c 0,14,15
 545 1434 545 1434 760 1434 c 256,16,17
 975 1434 975 1434 1123 1336 c 0,18,19
 1277 1231 1277 1231 1347 1064.5 c 128,-1,20
 1417 898 1417 898 1417 707 c 256,21,22
 1417 516 1417 516 1347 349.5 c 128,-1,23
 1277 183 1277 183 1123 78 c 0,24,25
 975 -20 975 -20 760 -20 c 256,6,7
760 163 m 0,26,27
 915 163 915 163 1016 237 c 0,28,29
 1120 315 1120 315 1165 438.5 c 128,-1,30
 1210 562 1210 562 1210 707 c 0,31,32
 1210 817 1210 817 1184.5 915.5 c 128,-1,33
 1159 1014 1159 1014 1105 1089 c 128,-1,34
 1051 1164 1051 1164 965.5 1207 c 128,-1,35
 880 1250 880 1250 760 1250 c 0,36,37
 606 1250 606 1250 506 1176 c 0,38,39
 402 1097 402 1097 357 974 c 128,-1,40
 312 851 312 851 312 707 c 0,41,42
 312 596 312 596 337.5 497.5 c 128,-1,43
 363 399 363 399 417 324 c 128,-1,44
 471 249 471 249 556 206 c 128,-1,45
 641 163 641 163 760 163 c 0,26,27
EndSplineSet
Position2: "'cpsp' Capital Spacing lookup 0 subtable" dx=5 dy=0 dh=10 dv=0
EndChar

StartChar: multiply
Encoding: 215 215 150
Width: 1097
GlyphClass: 1
Flags: W
LayerCount: 2
Fore
SplineSet
226 198 m 1,0,-1
 122 301 l 1,1,-1
 444 625 l 1,2,-1
 130 939 l 1,3,-1
 234 1044 l 1,4,-1
 549 729 l 1,5,-1
 872 1051 l 1,6,-1
 976 948 l 1,7,-1
 653 625 l 1,8,-1
 967 311 l 1,9,-1
 863 206 l 1,10,-1
 549 521 l 1,11,-1
 226 198 l 1,0,-1
EndSplineSet
EndChar

StartChar: Oslash
Encoding: 216 216 151
Width: 1521
GlyphClass: 1
Flags: W
LayerCount: 2
Fore
SplineSet
760 -20 m 0,0,1
 586 -20 586 -20 450 48 c 1,2,-1
 422 0 l 1,3,-1
 268 0 l 1,4,-1
 339 121 l 1,5,6
 218 227 218 227 161 381 c 128,-1,7
 104 535 104 535 104 707 c 0,8,9
 104 898 104 898 174 1064.5 c 128,-1,10
 244 1231 244 1231 398 1336 c 0,11,12
 545 1434 545 1434 760 1434 c 0,13,14
 935 1434 935 1434 1069 1367 c 1,15,-1
 1096 1413 l 1,16,-1
 1249 1413 l 1,17,-1
 1180 1294 l 1,18,19
 1302 1189 1302 1189 1359.5 1034 c 128,-1,20
 1417 879 1417 879 1417 707 c 0,21,22
 1417 516 1417 516 1347 349.5 c 128,-1,23
 1277 183 1277 183 1123 78 c 0,24,25
 975 -20 975 -20 760 -20 c 0,0,1
441 295 m 1,26,-1
 973 1202 l 1,27,28
 882 1250 882 1250 760 1250 c 0,29,30
 606 1250 606 1250 506 1176 c 0,31,32
 402 1097 402 1097 357 974 c 128,-1,33
 312 851 312 851 312 707 c 0,34,35
 312 588 312 588 343 480.5 c 128,-1,36
 374 373 374 373 441 295 c 1,26,-1
760 163 m 0,37,38
 915 163 915 163 1016 237 c 0,39,40
 1120 315 1120 315 1165 438.5 c 128,-1,41
 1210 562 1210 562 1210 707 c 0,42,43
 1210 826 1210 826 1179 934 c 128,-1,44
 1148 1042 1148 1042 1078 1121 c 1,45,-1
 546 212 l 1,46,47
 639 163 639 163 760 163 c 0,37,38
EndSplineSet
Position2: "'cpsp' Capital Spacing lookup 0 subtable" dx=5 dy=0 dh=10 dv=0
EndChar

StartChar: Thorn
Encoding: 222 222 157
Width: 1150
GlyphClass: 1
Flags: W
LayerCount: 2
Fore
SplineSet
391 0 m 1,0,-1
 198 0 l 1,1,-1
 198 1413 l 1,2,-1
 391 1413 l 1,3,-1
 391 1216 l 1,4,-1
 644 1216 l 2,5,6
 785 1216 785 1216 882.5 1167 c 128,-1,7
 980 1118 980 1118 1030.5 1028.5 c 128,-1,8
 1081 939 1081 939 1081 819 c 0,9,10
 1081 685 1081 685 1021.5 595.5 c 128,-1,11
 962 506 962 506 856 461 c 128,-1,12
 750 416 750 416 612 416 c 2,13,-1
 391 416 l 1,14,-1
 391 0 l 1,0,-1
612 593 m 2,15,16
 745 593 745 593 816.5 647 c 128,-1,17
 888 701 888 701 888 814 c 0,18,19
 888 918 888 918 820.5 979.5 c 128,-1,20
 753 1041 753 1041 612 1041 c 2,21,-1
 391 1041 l 1,22,-1
 391 593 l 1,23,-1
 612 593 l 2,15,16
EndSplineSet
Position2: "'cpsp' Capital Spacing lookup 0 subtable" dx=5 dy=0 dh=10 dv=0
EndChar

StartChar: germandbls
Encoding: 223 223 158
Width: 1191
GlyphClass: 1
Flags: W
LayerCount: 2
Fore
SplineSet
738 -18 m 0,0,1
 628 -18 628 -18 500 34 c 1,2,-1
 575 205 l 1,3,4
 668 164 668 164 736 164 c 0,5,6
 803 164 803 164 852.5 205.5 c 128,-1,7
 902 247 902 247 902 306 c 0,8,9
 902 366 902 366 865 411.5 c 128,-1,10
 828 457 828 457 759 512 c 0,11,12
 678 577 678 577 635.5 632.5 c 128,-1,13
 593 688 593 688 593 767 c 0,14,15
 593 812 593 812 610 844.5 c 128,-1,16
 627 877 627 877 651.5 898.5 c 128,-1,17
 676 920 676 920 712 945 c 128,-1,18
 748 970 748 970 770 989 c 128,-1,19
 792 1008 792 1008 806 1033.5 c 128,-1,20
 820 1059 820 1059 820 1094 c 0,21,22
 820 1137 820 1137 796 1175.5 c 128,-1,23
 772 1214 772 1214 723 1238.5 c 128,-1,24
 674 1263 674 1263 600 1263 c 0,25,26
 358 1263 358 1263 358 960 c 2,27,-1
 358 0 l 1,28,-1
 166 0 l 1,29,-1
 166 961 l 2,30,31
 166 1123 166 1123 223.5 1227.5 c 128,-1,32
 281 1332 281 1332 377 1383 c 128,-1,33
 473 1434 473 1434 591 1434 c 0,34,35
 692 1434 692 1434 789.5 1392 c 128,-1,36
 887 1350 887 1350 954 1266 c 0,37,38
 1015 1185 1015 1185 1015 1081 c 0,39,40
 1015 1021 1015 1021 994.5 980.5 c 128,-1,41
 974 940 974 940 943.5 915 c 128,-1,42
 913 890 913 890 872 863 c 0,43,44
 826 833 826 833 803.5 812 c 128,-1,45
 781 791 781 791 781 760 c 256,46,47
 781 729 781 729 808 700 c 128,-1,48
 835 671 835 671 896 627 c 256,49,50
 957 583 957 583 1003 538.5 c 128,-1,51
 1049 494 1049 494 1074 440.5 c 128,-1,52
 1099 387 1099 387 1099 315 c 0,53,54
 1099 214 1099 214 1050 139 c 128,-1,55
 1001 64 1001 64 919 23 c 128,-1,56
 837 -18 837 -18 738 -18 c 0,0,1
EndSplineSet
EndChar

StartChar: acircumflex
Encoding: 226 226 161
Width: 1060
GlyphClass: 1
Flags: W
LayerCount: 2
Fore
SplineSet
846 1130 m 1,0,-1
 670 1130 l 1,1,-1
 514 1282 l 1,2,-1
 360 1130 l 1,3,-1
 181 1130 l 1,4,-1
 514 1452 l 1,5,-1
 846 1130 l 1,0,-1
421 -20 m 0,6,7
 320 -20 320 -20 239 18 c 128,-1,8
 158 56 158 56 110 127.5 c 128,-1,9
 62 199 62 199 62 303 c 0,10,11
 62 458 62 458 178 531 c 128,-1,12
 294 604 294 604 501 604 c 2,13,-1
 751 604 l 1,14,15
 751 689 751 689 727.5 752.5 c 128,-1,16
 704 816 704 816 653 851.5 c 128,-1,17
 602 887 602 887 519 887 c 0,18,19
 427 887 427 887 360.5 843.5 c 128,-1,20
 294 800 294 800 252 735 c 1,21,-1
 107 851 l 1,22,23
 255 1056 255 1056 513 1056 c 0,24,25
 649 1056 649 1056 743 1002.5 c 128,-1,26
 837 949 837 949 885 854 c 128,-1,27
 933 759 933 759 933 634 c 2,28,-1
 933 0 l 1,29,-1
 772 0 l 1,30,-1
 762 171 l 1,31,32
 650 -20 650 -20 421 -20 c 0,6,7
443 144 m 0,33,34
 535 144 535 144 603.5 191 c 128,-1,35
 672 238 672 238 710.5 310.5 c 128,-1,36
 749 383 749 383 751 461 c 1,37,-1
 513 461 l 2,38,39
 394 461 394 461 327.5 420.5 c 128,-1,40
 261 380 261 380 261 296 c 0,41,42
 261 220 261 220 313.5 182 c 128,-1,43
 366 144 366 144 443 144 c 0,33,34
EndSplineSet
EndChar

StartChar: aring
Encoding: 229 229 164
Width: 1051
GlyphClass: 1
Flags: W
LayerCount: 2
Fore
SplineSet
508 1105 m 0,0,1
 444 1105 444 1105 394.5 1133.5 c 128,-1,2
 345 1162 345 1162 317 1207.5 c 128,-1,3
 289 1253 289 1253 289 1306 c 0,4,5
 289 1393 289 1393 355 1449.5 c 128,-1,6
 421 1506 421 1506 508 1506 c 0,7,8
 598 1506 598 1506 663.5 1448.5 c 128,-1,9
 729 1391 729 1391 729 1306 c 256,10,11
 729 1221 729 1221 664 1163 c 128,-1,12
 599 1105 599 1105 508 1105 c 0,0,1
508 1222 m 0,13,14
 553 1222 553 1222 583 1246.5 c 128,-1,15
 613 1271 613 1271 613 1307 c 0,16,17
 613 1341 613 1341 585 1365 c 128,-1,18
 557 1389 557 1389 508 1389 c 0,19,20
 461 1389 461 1389 433.5 1366 c 128,-1,21
 406 1343 406 1343 406 1307 c 0,22,23
 406 1269 406 1269 435 1245.5 c 128,-1,24
 464 1222 464 1222 508 1222 c 0,13,14
416 -20 m 0,25,26
 317 -20 317 -20 237 18 c 128,-1,27
 157 56 157 56 109.5 127.5 c 128,-1,28
 62 199 62 199 62 303 c 0,29,30
 62 458 62 458 176.5 531 c 128,-1,31
 291 604 291 604 495 604 c 2,32,-1
 742 604 l 1,33,34
 742 689 742 689 719 752.5 c 128,-1,35
 696 816 696 816 645.5 851.5 c 128,-1,36
 595 887 595 887 514 887 c 0,37,38
 423 887 423 887 358 843.5 c 128,-1,39
 293 800 293 800 252 735 c 1,40,-1
 107 851 l 1,41,42
 254 1056 254 1056 508 1056 c 0,43,44
 643 1056 643 1056 736 1002.5 c 128,-1,45
 829 949 829 949 876.5 854 c 128,-1,46
 924 759 924 759 924 634 c 2,47,-1
 924 0 l 1,48,-1
 763 0 l 1,49,-1
 753 171 l 1,50,51
 642 -20 642 -20 416 -20 c 0,25,26
440 144 m 0,52,53
 530 144 530 144 597 191 c 128,-1,54
 664 238 664 238 702 310.5 c 128,-1,55
 740 383 740 383 742 461 c 1,56,-1
 508 461 l 2,57,58
 392 461 392 461 326.5 420.5 c 128,-1,59
 261 380 261 380 261 296 c 0,60,61
 261 220 261 220 313 182 c 128,-1,62
 365 144 365 144 440 144 c 0,52,53
EndSplineSet
EndChar

StartChar: ae
Encoding: 230 230 165
Width: 1709
GlyphClass: 1
Flags: W
LayerCount: 2
Fore
SplineSet
409 -20 m 0,0,1
 316 -20 316 -20 237.5 18 c 128,-1,2
 159 56 159 56 111.5 126.5 c 128,-1,3
 64 197 64 197 64 292 c 0,4,5
 64 454 64 454 169.5 528.5 c 128,-1,6
 275 603 275 603 456 603 c 2,7,-1
 756 603 l 1,8,9
 756 753 756 753 694.5 824 c 128,-1,10
 633 895 633 895 508 895 c 0,11,12
 421 895 421 895 354 852 c 128,-1,13
 287 809 287 809 248 748 c 1,14,-1
 106 853 l 1,15,16
 257 1056 257 1056 517 1056 c 0,17,18
 641 1056 641 1056 726 1008.5 c 128,-1,19
 811 961 811 961 856 877 c 1,20,21
 971 1052 971 1052 1192 1052 c 0,22,23
 1354 1052 1354 1052 1454.5 977.5 c 128,-1,24
 1555 903 1555 903 1598 782.5 c 128,-1,25
 1641 662 1641 662 1641 513 c 0,26,27
 1641 484 1641 484 1635 456 c 1,28,-1
 924 456 l 1,29,30
 928 373 928 373 960 307.5 c 128,-1,31
 992 242 992 242 1052.5 203.5 c 128,-1,32
 1113 165 1113 165 1200 165 c 0,33,34
 1298 165 1298 165 1362 189 c 128,-1,35
 1426 213 1426 213 1479 270 c 1,36,-1
 1611 150 l 1,37,38
 1530 68 1530 68 1432 28 c 128,-1,39
 1334 -12 1334 -12 1203 -12 c 0,40,41
 1057 -12 1057 -12 964 49 c 128,-1,42
 871 110 871 110 824 217 c 1,43,44
 767 108 767 108 664 44 c 128,-1,45
 561 -20 561 -20 409 -20 c 0,0,1
1453 603 m 1,46,47
 1449 688 1449 688 1420 750.5 c 128,-1,48
 1391 813 1391 813 1332.5 848.5 c 128,-1,49
 1274 884 1274 884 1184 884 c 0,50,51
 1101 884 1101 884 1045 846.5 c 128,-1,52
 989 809 989 809 959.5 746 c 128,-1,53
 930 683 930 683 924 603 c 1,54,-1
 1453 603 l 1,46,47
447 142 m 0,55,56
 535 142 535 142 604.5 189 c 128,-1,57
 674 236 674 236 713.5 307.5 c 128,-1,58
 753 379 753 379 756 456 c 1,59,-1
 468 456 l 2,60,61
 379 456 379 456 317 414 c 128,-1,62
 255 372 255 372 255 294 c 0,63,64
 255 247 255 247 283 212.5 c 128,-1,65
 311 178 311 178 354.5 160 c 128,-1,66
 398 142 398 142 447 142 c 0,55,56
EndSplineSet
EndChar

StartChar: ccedilla
Encoding: 231 231 166
Width: 1009
GlyphClass: 1
Flags: W
LayerCount: 2
Fore
SplineSet
506 -513 m 0,0,1
 439 -513 439 -513 387 -476.5 c 128,-1,2
 335 -440 335 -440 312 -386 c 1,3,-1
 433 -330 l 1,4,5
 439 -356 439 -356 461.5 -374.5 c 128,-1,6
 484 -393 484 -393 514 -393 c 0,7,8
 558 -393 558 -393 583 -366.5 c 128,-1,9
 608 -340 608 -340 608 -302 c 0,10,11
 608 -255 608 -255 561.5 -217.5 c 128,-1,12
 515 -180 515 -180 423 -180 c 2,13,-1
 367 -180 l 1,14,-1
 472 -3 l 1,15,16
 343 17 343 17 255.5 92.5 c 128,-1,17
 168 168 168 168 123.5 281.5 c 128,-1,18
 79 395 79 395 79 524 c 0,19,20
 79 659 79 659 130 780.5 c 128,-1,21
 181 902 181 902 290 982 c 0,22,23
 396 1056 396 1056 545 1056 c 0,24,25
 696 1056 696 1056 802.5 979.5 c 128,-1,26
 909 903 909 903 965 778 c 1,27,-1
 774 700 l 1,28,29
 750 787 750 787 688.5 833.5 c 128,-1,30
 627 880 627 880 542 880 c 0,31,32
 448 880 448 880 390 830 c 128,-1,33
 332 780 332 780 304 699 c 128,-1,34
 276 618 276 618 276 527 c 256,35,36
 276 436 276 436 302.5 355 c 128,-1,37
 329 274 329 274 387.5 223.5 c 128,-1,38
 446 173 446 173 542 173 c 0,39,40
 627 173 627 173 689 221 c 128,-1,41
 751 269 751 269 774 352 c 1,42,-1
 953 281 l 1,43,44
 859 28 859 28 605 -5 c 1,45,-1
 541 -100 l 1,46,47
 637 -109 637 -109 684.5 -162.5 c 128,-1,48
 732 -216 732 -216 732 -292 c 0,49,50
 732 -350 732 -350 704 -400.5 c 128,-1,51
 676 -451 676 -451 625.5 -482 c 128,-1,52
 575 -513 575 -513 506 -513 c 0,0,1
EndSplineSet
EndChar

StartChar: ecircumflex
Encoding: 234 234 169
Width: 1071
GlyphClass: 1
Flags: W
LayerCount: 2
Fore
SplineSet
864 1130 m 1,0,-1
 687 1130 l 1,1,-1
 531 1282 l 1,2,-1
 377 1130 l 1,3,-1
 198 1130 l 1,4,-1
 531 1452 l 1,5,-1
 864 1130 l 1,0,-1
561 -12 m 0,6,7
 399 -12 399 -12 291.5 60.5 c 128,-1,8
 184 133 184 133 130.5 252.5 c 128,-1,9
 77 372 77 372 77 514 c 0,10,11
 77 650 77 650 127.5 773 c 128,-1,12
 178 896 178 896 288 977 c 0,13,14
 393 1052 393 1052 543 1052 c 0,15,16
 786 1052 786 1052 892.5 900 c 128,-1,17
 999 748 999 748 999 513 c 0,18,19
 999 484 999 484 993 456 c 1,20,-1
 282 456 l 1,21,22
 285 375 285 375 315.5 310 c 128,-1,23
 346 245 346 245 406.5 205 c 128,-1,24
 467 165 467 165 558 165 c 0,25,26
 656 165 656 165 719.5 189 c 128,-1,27
 783 213 783 213 835 270 c 1,28,-1
 969 150 l 1,29,30
 888 68 888 68 791 28 c 128,-1,31
 694 -12 694 -12 561 -12 c 0,6,7
811 603 m 1,32,33
 808 688 808 688 778.5 751 c 128,-1,34
 749 814 749 814 690.5 849.5 c 128,-1,35
 632 885 632 885 543 885 c 0,36,37
 460 885 460 885 404.5 848 c 128,-1,38
 349 811 349 811 318.5 747.5 c 128,-1,39
 288 684 288 684 282 603 c 1,40,-1
 811 603 l 1,32,33
EndSplineSet
EndChar

StartChar: eth
Encoding: 240 240 175
Width: 1189
GlyphClass: 1
Flags: W
LayerCount: 2
Fore
SplineSet
591 -16 m 0,0,1
 465 -16 465 -16 368.5 28.5 c 128,-1,2
 272 73 272 73 207 150.5 c 128,-1,3
 142 228 142 228 109 327.5 c 128,-1,4
 76 427 76 427 76 537 c 0,5,6
 76 676 76 676 132 796 c 128,-1,7
 188 916 188 916 302 990 c 0,8,9
 411 1060 411 1060 559 1060 c 0,10,11
 652 1060 652 1060 721 1035.5 c 128,-1,12
 790 1011 790 1011 833 972 c 1,13,14
 777 1151 777 1151 553 1272 c 1,15,-1
 464 1156 l 1,16,-1
 364 1213 l 1,17,-1
 447 1322 l 1,18,19
 377 1350 377 1350 288 1378 c 1,20,-1
 384 1518 l 1,21,22
 478 1485 478 1485 548 1453 c 1,23,-1
 616 1541 l 1,24,-1
 719 1487 l 1,25,-1
 653 1402 l 1,26,27
 885 1259 885 1259 988.5 1048.5 c 128,-1,28
 1092 838 1092 838 1092 549 c 0,29,30
 1092 391 1092 391 1035.5 261 c 128,-1,31
 979 131 979 131 861 56 c 0,32,33
 748 -16 748 -16 591 -16 c 0,0,1
585 165 m 0,34,35
 687 165 687 165 754.5 217.5 c 128,-1,36
 822 270 822 270 855.5 354.5 c 128,-1,37
 889 439 889 439 889 537 c 0,38,39
 889 633 889 633 855.5 717.5 c 128,-1,40
 822 802 822 802 754.5 854.5 c 128,-1,41
 687 907 687 907 585 907 c 0,42,43
 482 907 482 907 413.5 855 c 128,-1,44
 345 803 345 803 312 718 c 128,-1,45
 279 633 279 633 279 536 c 0,46,47
 279 441 279 441 311.5 356 c 128,-1,48
 344 271 344 271 412 218 c 128,-1,49
 480 165 480 165 585 165 c 0,34,35
EndSplineSet
EndChar

StartChar: ocircumflex
Encoding: 244 244 179
Width: 1145
GlyphClass: 1
Flags: W
LayerCount: 2
Fore
SplineSet
908 1130 m 1,0,-1
 730 1130 l 1,1,-1
 574 1282 l 1,2,-1
 420 1130 l 1,3,-1
 240 1130 l 1,4,-1
 574 1452 l 1,5,-1
 908 1130 l 1,0,-1
575 -20 m 0,6,7
 421 -20 421 -20 308 54.5 c 128,-1,8
 195 129 195 129 133.5 250.5 c 128,-1,9
 72 372 72 372 72 516 c 0,10,11
 72 657 72 657 133 780 c 128,-1,12
 194 903 194 903 313 980 c 0,13,14
 428 1052 428 1052 575 1052 c 0,15,16
 728 1052 728 1052 841.5 977.5 c 128,-1,17
 955 903 955 903 1016.5 781 c 128,-1,18
 1078 659 1078 659 1078 516 c 0,19,20
 1078 367 1078 367 1015 245.5 c 128,-1,21
 952 124 952 124 838 52 c 128,-1,22
 724 -20 724 -20 575 -20 c 0,6,7
575 149 m 0,23,24
 678 149 678 149 743 198 c 128,-1,25
 808 247 808 247 839 330 c 128,-1,26
 870 413 870 413 870 516 c 0,27,28
 870 616 870 616 840 700 c 128,-1,29
 810 784 810 784 744.5 833.5 c 128,-1,30
 679 883 679 883 575 883 c 0,31,32
 472 883 472 883 406.5 833.5 c 128,-1,33
 341 784 341 784 310.5 700 c 128,-1,34
 280 616 280 616 280 516 c 0,35,36
 280 419 280 419 309.5 335 c 128,-1,37
 339 251 339 251 404 200 c 128,-1,38
 469 149 469 149 575 149 c 0,23,24
EndSplineSet
EndChar

StartChar: divide
Encoding: 247 247 182
Width: 1102
GlyphClass: 1
Flags: W
LayerCount: 2
Fore
SplineSet
663 870 m 1,0,-1
 434 870 l 1,1,-1
 434 1097 l 1,2,-1
 663 1097 l 1,3,-1
 663 870 l 1,0,-1
992 555 m 1,4,-1
 106 555 l 1,5,-1
 106 702 l 1,6,-1
 992 702 l 1,7,-1
 992 555 l 1,4,-1
663 142 m 1,8,-1
 434 142 l 1,9,-1
 434 369 l 1,10,-1
 663 369 l 1,11,-1
 663 142 l 1,8,-1
EndSplineSet
EndChar

StartChar: oslash
Encoding: 248 248 183
Width: 1145
GlyphClass: 1
Flags: W
LayerCount: 2
Fore
SplineSet
573 -20 m 0,0,1
 450 -20 450 -20 344 30 c 1,2,-1
 327 0 l 1,3,-1
 216 0 l 1,4,-1
 263 80 l 1,5,6
 174 153 174 153 123 265.5 c 128,-1,7
 72 378 72 378 72 514 c 0,8,9
 72 656 72 656 133 779.5 c 128,-1,10
 194 903 194 903 314 980 c 0,11,12
 429 1052 429 1052 578 1052 c 0,13,14
 699 1052 699 1052 800 1004 c 1,15,-1
 822 1039 l 1,16,-1
 931 1039 l 1,17,-1
 882 955 l 1,18,19
 974 882 974 882 1026 769 c 128,-1,20
 1078 656 1078 656 1078 518 c 0,21,22
 1078 369 1078 369 1014.5 247 c 128,-1,23
 951 125 951 125 837 52.5 c 128,-1,24
 723 -20 723 -20 573 -20 c 0,0,1
359 245 m 1,25,-1
 709 853 l 1,26,27
 651 883 651 883 575 883 c 0,28,29
 472 883 472 883 406.5 833.5 c 128,-1,30
 341 784 341 784 310.5 700 c 128,-1,31
 280 616 280 616 280 516 c 0,32,33
 280 439 280 439 299 368.5 c 128,-1,34
 318 298 318 298 359 245 c 1,25,-1
575 149 m 0,35,36
 678 149 678 149 743 198 c 128,-1,37
 808 247 808 247 839 330 c 128,-1,38
 870 413 870 413 870 516 c 0,39,40
 870 693 870 693 787 792 c 1,41,-1
 436 181 l 1,42,43
 496 149 496 149 575 149 c 0,35,36
EndSplineSet
EndChar

StartChar: thorn
Encoding: 254 254 189
Width: 1168
GlyphClass: 1
Flags: W
LayerCount: 2
Fore
SplineSet
360 -438 m 1,0,-1
 167 -438 l 1,1,-1
 167 1413 l 1,2,-1
 360 1413 l 1,3,-1
 360 927 l 1,4,5
 410 989 410 989 486.5 1024.5 c 128,-1,6
 563 1060 563 1060 665 1060 c 0,7,8
 804 1060 804 1060 899.5 986.5 c 128,-1,9
 995 913 995 913 1044 790 c 128,-1,10
 1093 667 1093 667 1093 520 c 0,11,12
 1093 414 1093 414 1066.5 317 c 128,-1,13
 1040 220 1040 220 987 144 c 128,-1,14
 934 68 934 68 853.5 24 c 128,-1,15
 773 -20 773 -20 665 -20 c 0,16,17
 564 -20 564 -20 487.5 15.5 c 128,-1,18
 411 51 411 51 360 112 c 1,19,-1
 360 -438 l 1,0,-1
626 152 m 0,20,21
 721 152 721 152 783 200.5 c 128,-1,22
 845 249 845 249 875.5 332.5 c 128,-1,23
 906 416 906 416 906 520 c 0,24,25
 906 619 906 619 876.5 702 c 128,-1,26
 847 785 847 785 785.5 835.5 c 128,-1,27
 724 886 724 886 626 886 c 0,28,29
 530 886 530 886 467.5 837 c 128,-1,30
 405 788 405 788 374 704.5 c 128,-1,31
 343 621 343 621 343 520 c 0,32,33
 343 421 343 421 373 337.5 c 128,-1,34
 403 254 403 254 465.5 203 c 128,-1,35
 528 152 528 152 626 152 c 0,20,21
EndSplineSet
EndChar

StartChar: Abreve
Encoding: 258 258 193
Width: 1323
GlyphClass: 1
Flags: W
LayerCount: 2
Fore
SplineSet
662 1556 m 0,0,1
 512 1556 512 1556 431.5 1626 c 128,-1,2
 351 1696 351 1696 351 1826 c 1,3,-1
 504 1826 l 1,4,5
 504 1757 504 1757 550.5 1720 c 128,-1,6
 597 1683 597 1683 662 1683 c 0,7,8
 728 1683 728 1683 773.5 1720 c 128,-1,9
 819 1757 819 1757 819 1826 c 1,10,-1
 972 1826 l 1,11,12
 972 1734 972 1734 933.5 1674 c 128,-1,13
 895 1614 895 1614 825 1585 c 128,-1,14
 755 1556 755 1556 662 1556 c 0,0,1
1284 0 m 1,15,-1
 1065 0 l 1,16,-1
 957 307 l 1,17,-1
 370 307 l 1,18,-1
 261 0 l 1,19,-1
 39 0 l 1,20,-1
 586 1413 l 1,21,-1
 740 1413 l 1,22,-1
 1284 0 l 1,15,-1
888 486 m 1,23,-1
 664 1114 l 1,24,-1
 438 486 l 1,25,-1
 888 486 l 1,23,-1
EndSplineSet
Position2: "'cpsp' Capital Spacing lookup 0 subtable" dx=5 dy=0 dh=10 dv=0
EndChar

StartChar: abreve
Encoding: 259 259 194
Width: 1054
GlyphClass: 1
Flags: W
LayerCount: 2
Fore
SplineSet
512 1164 m 0,0,1
 359 1164 359 1164 276.5 1228.5 c 128,-1,2
 194 1293 194 1293 194 1413 c 1,3,-1
 347 1413 l 1,4,5
 347 1354 347 1354 395.5 1322.5 c 128,-1,6
 444 1291 444 1291 512 1291 c 0,7,8
 581 1291 581 1291 628 1322.5 c 128,-1,9
 675 1354 675 1354 675 1413 c 1,10,-1
 828 1413 l 1,11,12
 828 1328 828 1328 788.5 1273 c 128,-1,13
 749 1218 749 1218 678 1191 c 128,-1,14
 607 1164 607 1164 512 1164 c 0,0,1
418 -20 m 0,15,16
 318 -20 318 -20 237.5 18 c 128,-1,17
 157 56 157 56 109.5 127.5 c 128,-1,18
 62 199 62 199 62 303 c 0,19,20
 62 458 62 458 177 531 c 128,-1,21
 292 604 292 604 497 604 c 2,22,-1
 745 604 l 1,23,24
 745 689 745 689 722 752.5 c 128,-1,25
 699 816 699 816 648 851.5 c 128,-1,26
 597 887 597 887 516 887 c 0,27,28
 425 887 425 887 359 843.5 c 128,-1,29
 293 800 293 800 252 735 c 1,30,-1
 107 851 l 1,31,32
 254 1056 254 1056 510 1056 c 0,33,34
 645 1056 645 1056 738.5 1002.5 c 128,-1,35
 832 949 832 949 879.5 854 c 128,-1,36
 927 759 927 759 927 634 c 2,37,-1
 927 0 l 1,38,-1
 766 0 l 1,39,-1
 756 171 l 1,40,41
 645 -20 645 -20 418 -20 c 0,15,16
441 144 m 0,42,43
 531 144 531 144 599 191 c 128,-1,44
 667 238 667 238 705 310.5 c 128,-1,45
 743 383 743 383 745 461 c 1,46,-1
 510 461 l 2,47,48
 393 461 393 461 327 420.5 c 128,-1,49
 261 380 261 380 261 296 c 0,50,51
 261 220 261 220 313 182 c 128,-1,52
 365 144 365 144 441 144 c 0,42,43
EndSplineSet
EndChar

StartChar: aogonek
Encoding: 261 261 196
Width: 1059
GlyphClass: 1
Flags: W
LayerCount: 2
Fore
SplineSet
799 -451 m 0,0,1
 709 -451 709 -451 645.5 -396.5 c 128,-1,2
 582 -342 582 -342 582 -246 c 0,3,4
 582 -175 582 -175 620.5 -121 c 128,-1,5
 659 -67 659 -67 702 -37 c 128,-1,6
 745 -7 745 -7 773 0 c 1,7,-1
 767 0 l 1,8,-1
 757 171 l 1,9,10
 646 -20 646 -20 418 -20 c 0,11,12
 318 -20 318 -20 237.5 18 c 128,-1,13
 157 56 157 56 109.5 127.5 c 128,-1,14
 62 199 62 199 62 303 c 0,15,16
 62 458 62 458 177 531 c 128,-1,17
 292 604 292 604 498 604 c 2,18,-1
 746 604 l 1,19,20
 746 689 746 689 723 752.5 c 128,-1,21
 700 816 700 816 649 851.5 c 128,-1,22
 598 887 598 887 517 887 c 0,23,24
 425 887 425 887 359.5 843.5 c 128,-1,25
 294 800 294 800 252 735 c 1,26,-1
 107 851 l 1,27,28
 254 1056 254 1056 510 1056 c 0,29,30
 645 1056 645 1056 739 1002.5 c 128,-1,31
 833 949 833 949 880.5 854 c 128,-1,32
 928 759 928 759 928 634 c 2,33,-1
 928 0 l 1,34,35
 900 -10 900 -10 851 -36 c 128,-1,36
 802 -62 802 -62 755.5 -110.5 c 128,-1,37
 709 -159 709 -159 709 -222 c 0,38,39
 709 -274 709 -274 732.5 -297 c 128,-1,40
 756 -320 756 -320 789 -320 c 0,41,42
 860 -320 860 -320 903 -259 c 1,43,-1
 1013 -333 l 1,44,45
 935 -451 935 -451 799 -451 c 0,0,1
442 144 m 0,46,47
 533 144 533 144 600.5 191 c 128,-1,48
 668 238 668 238 706 310.5 c 128,-1,49
 744 383 744 383 746 461 c 1,50,-1
 510 461 l 2,51,52
 393 461 393 461 327 420.5 c 128,-1,53
 261 380 261 380 261 296 c 0,54,55
 261 220 261 220 313.5 182 c 128,-1,56
 366 144 366 144 442 144 c 0,46,47
EndSplineSet
EndChar

StartChar: dcaron
Encoding: 271 271 206
Width: 1272
GlyphClass: 1
Flags: W
LayerCount: 2
Fore
SplineSet
511 -20 m 0,0,1
 373 -20 373 -20 278 54 c 128,-1,2
 183 128 183 128 133.5 251.5 c 128,-1,3
 84 375 84 375 84 520 c 0,4,5
 84 661 84 661 132.5 785 c 128,-1,6
 181 909 181 909 282 987 c 0,7,8
 378 1060 378 1060 509 1060 c 0,9,10
 609 1060 609 1060 687.5 1023.5 c 128,-1,11
 766 987 766 987 818 920 c 1,12,-1
 818 1413 l 1,13,-1
 1013 1413 l 1,14,-1
 1013 0 l 1,15,-1
 818 0 l 1,16,-1
 818 120 l 1,17,18
 709 -20 709 -20 511 -20 c 0,0,1
1257 1030 m 1,19,-1
 1128 1030 l 1,20,-1
 1241 1413 l 1,21,-1
 1483 1413 l 1,22,-1
 1257 1030 l 1,19,-1
559 158 m 0,23,24
 697 158 697 158 765.5 258.5 c 128,-1,25
 834 359 834 359 834 520 c 0,26,27
 834 618 834 618 806 700.5 c 128,-1,28
 778 783 778 783 717.5 833 c 128,-1,29
 657 883 657 883 559 883 c 0,30,31
 464 883 464 883 402.5 834.5 c 128,-1,32
 341 786 341 786 311 703 c 128,-1,33
 281 620 281 620 281 520 c 0,34,35
 281 421 281 421 310 338.5 c 128,-1,36
 339 256 339 256 400.5 207 c 128,-1,37
 462 158 462 158 559 158 c 0,23,24
EndSplineSet
EndChar

StartChar: dcroat
Encoding: 273 273 208
Width: 1176
GlyphClass: 1
Flags: W
LayerCount: 2
Fore
SplineSet
511 -20 m 0,0,1
 373 -20 373 -20 278 54 c 128,-1,2
 183 128 183 128 133.5 251.5 c 128,-1,3
 84 375 84 375 84 520 c 0,4,5
 84 661 84 661 132.5 785 c 128,-1,6
 181 909 181 909 282 987 c 0,7,8
 378 1060 378 1060 509 1060 c 0,9,10
 609 1060 609 1060 687.5 1023.5 c 128,-1,11
 766 987 766 987 818 920 c 1,12,-1
 818 1169 l 1,13,-1
 529 1169 l 1,14,-1
 529 1308 l 1,15,-1
 818 1308 l 1,16,-1
 818 1413 l 1,17,-1
 1013 1413 l 1,18,-1
 1013 1308 l 1,19,-1
 1180 1308 l 1,20,-1
 1180 1169 l 1,21,-1
 1013 1169 l 1,22,-1
 1013 0 l 1,23,-1
 829 0 l 1,24,-1
 823 125 l 1,25,26
 772 55 772 55 693 17.5 c 128,-1,27
 614 -20 614 -20 511 -20 c 0,0,1
559 158 m 0,28,29
 697 158 697 158 765.5 258.5 c 128,-1,30
 834 359 834 359 834 520 c 0,31,32
 834 618 834 618 806 700.5 c 128,-1,33
 778 783 778 783 717.5 833 c 128,-1,34
 657 883 657 883 559 883 c 0,35,36
 464 883 464 883 402.5 834.5 c 128,-1,37
 341 786 341 786 311 703 c 128,-1,38
 281 620 281 620 281 520 c 0,39,40
 281 421 281 421 310 338.5 c 128,-1,41
 339 256 339 256 400.5 207 c 128,-1,42
 462 158 462 158 559 158 c 0,28,29
EndSplineSet
EndChar

StartChar: eogonek
Encoding: 281 281 216
Width: 1066
GlyphClass: 1
Flags: W
LayerCount: 2
Fore
SplineSet
688 -405 m 0,0,1
 597 -405 597 -405 533 -350.5 c 128,-1,2
 469 -296 469 -296 469 -200 c 0,3,4
 469 -93 469 -93 562 -12 c 1,5,6
 402 -12 402 -12 294 60 c 0,7,8
 181 136 181 136 129 256.5 c 128,-1,9
 77 377 77 377 77 514 c 0,10,11
 77 650 77 650 127.5 773 c 128,-1,12
 178 896 178 896 286 977 c 0,13,14
 391 1052 391 1052 541 1052 c 0,15,16
 783 1052 783 1052 888.5 900 c 128,-1,17
 994 748 994 748 994 513 c 0,18,19
 994 484 994 484 988 456 c 1,20,-1
 282 456 l 1,21,22
 285 375 285 375 315.5 310 c 128,-1,23
 346 245 346 245 405.5 205 c 128,-1,24
 465 165 465 165 556 165 c 0,25,26
 653 165 653 165 716 189 c 128,-1,27
 779 213 779 213 830 270 c 1,28,-1
 964 150 l 1,29,30
 868 52 868 52 753 15 c 1,31,32
 596 -68 596 -68 596 -176 c 0,33,34
 596 -228 596 -228 620.5 -251 c 128,-1,35
 645 -274 645 -274 679 -274 c 0,36,37
 752 -274 752 -274 797 -213 c 1,38,-1
 904 -287 l 1,39,40
 826 -405 826 -405 688 -405 c 0,0,1
806 603 m 1,41,42
 803 688 803 688 773.5 751 c 128,-1,43
 744 814 744 814 686.5 849.5 c 128,-1,44
 629 885 629 885 540 885 c 0,45,46
 458 885 458 885 403 848 c 128,-1,47
 348 811 348 811 318 747.5 c 128,-1,48
 288 684 288 684 282 603 c 1,49,-1
 806 603 l 1,41,42
EndSplineSet
EndChar

StartChar: uni0123
Encoding: 291 291 226
Width: 1053
GlyphClass: 1
Flags: W
LayerCount: 2
Fore
SplineSet
623 1150 m 1,0,-1
 383 1150 l 1,1,-1
 630 1428 l 1,2,-1
 756 1428 l 1,3,-1
 623 1150 l 1,0,-1
556 -465 m 0,4,5
 412 -465 412 -465 310 -417.5 c 128,-1,6
 208 -370 208 -370 154 -289.5 c 128,-1,7
 100 -209 100 -209 100 -110 c 0,8,9
 100 -86 100 -86 103 -68 c 1,10,-1
 229 58 l 1,11,12
 115 126 115 126 115 264 c 0,13,14
 115 378 115 378 198 453 c 1,15,16
 114 554 114 554 114 689 c 0,17,18
 114 801 114 801 169 882.5 c 128,-1,19
 224 964 224 964 315 1008 c 128,-1,20
 406 1052 406 1052 515 1052 c 0,21,22
 665 1052 665 1052 769 977 c 1,23,-1
 920 1105 l 1,24,-1
 1027 981 l 1,25,-1
 871 857 l 1,26,27
 911 780 911 780 911 685 c 0,28,29
 911 572 911 572 858.5 490.5 c 128,-1,30
 806 409 806 409 716 365.5 c 128,-1,31
 626 322 626 322 517 322 c 0,32,33
 410 322 410 322 321 362 c 1,34,35
 284 336 284 336 283 295 c 0,36,37
 283 249 283 249 320 223 c 128,-1,38
 357 197 357 197 412 186 c 128,-1,39
 467 175 467 175 573 160 c 0,40,41
 704 141 704 141 786.5 117 c 128,-1,42
 869 93 869 93 926 32.5 c 128,-1,43
 983 -28 983 -28 983 -138 c 256,44,45
 983 -248 983 -248 925.5 -320.5 c 128,-1,46
 868 -393 868 -393 771 -429 c 128,-1,47
 674 -465 674 -465 556 -465 c 0,4,5
516 482 m 0,48,49
 614 482 614 482 666 541 c 128,-1,50
 718 600 718 600 718 689 c 0,51,52
 718 745 718 745 694.5 793.5 c 128,-1,53
 671 842 671 842 626 871.5 c 128,-1,54
 581 901 581 901 516 901 c 0,55,56
 450 901 450 901 405 871 c 128,-1,57
 360 841 360 841 336.5 792.5 c 128,-1,58
 313 744 313 744 313 689 c 0,59,60
 313 601 313 601 365 541.5 c 128,-1,61
 417 482 417 482 516 482 c 0,48,49
564 -305 m 0,62,63
 631 -305 631 -305 685.5 -289 c 128,-1,64
 740 -273 740 -273 772 -240.5 c 128,-1,65
 804 -208 804 -208 804 -160 c 0,66,67
 804 -76 804 -76 695 -52 c 0,68,69
 635 -40 635 -40 542 -25 c 0,70,71
 438 -10 438 -10 356 7 c 1,72,-1
 269 -115 l 1,73,74
 276 -197 276 -197 353 -251 c 128,-1,75
 430 -305 430 -305 564 -305 c 0,62,63
EndSplineSet
Substitution2: "'aalt' Access All Alternates lookup 0 subtable" uni0123.ss01
EndChar

StartChar: Hbar
Encoding: 294 294 229
Width: 1472
GlyphClass: 1
Flags: W
LayerCount: 2
Fore
SplineSet
1274 0 m 1,0,-1
 1070 0 l 1,1,-1
 1070 617 l 1,2,-1
 401 617 l 1,3,-1
 401 0 l 1,4,-1
 198 0 l 1,5,-1
 198 1057 l 1,6,-1
 89 1057 l 1,7,-1
 89 1172 l 1,8,-1
 198 1172 l 1,9,-1
 198 1413 l 1,10,-1
 401 1413 l 1,11,-1
 401 1172 l 1,12,-1
 1070 1172 l 1,13,-1
 1070 1413 l 1,14,-1
 1274 1413 l 1,15,-1
 1274 1172 l 1,16,-1
 1382 1172 l 1,17,-1
 1382 1057 l 1,18,-1
 1274 1057 l 1,19,-1
 1274 0 l 1,0,-1
1070 797 m 1,20,-1
 1070 1057 l 1,21,-1
 401 1057 l 1,22,-1
 401 797 l 1,23,-1
 1070 797 l 1,20,-1
EndSplineSet
Position2: "'cpsp' Capital Spacing lookup 0 subtable" dx=5 dy=0 dh=10 dv=0
EndChar

StartChar: hbar
Encoding: 295 295 230
Width: 1170
GlyphClass: 1
Flags: W
LayerCount: 2
Fore
SplineSet
1039 0 m 1,0,-1
 842 0 l 1,1,-1
 842 610 l 2,2,3
 842 875 842 875 650 875 c 0,4,5
 566 875 566 875 500.5 831 c 128,-1,6
 435 787 435 787 397.5 718 c 128,-1,7
 360 649 360 649 360 573 c 2,8,-1
 360 0 l 1,9,-1
 166 0 l 1,10,-1
 166 1142 l 1,11,-1
 -4 1142 l 1,12,-1
 -4 1281 l 1,13,-1
 166 1281 l 1,14,-1
 166 1413 l 1,15,-1
 360 1413 l 1,16,-1
 360 1281 l 1,17,-1
 647 1281 l 1,18,-1
 647 1142 l 1,19,-1
 360 1142 l 1,20,-1
 360 897 l 1,21,22
 419 978 419 978 504.5 1017 c 128,-1,23
 590 1056 590 1056 677 1056 c 0,24,25
 801 1056 801 1056 881.5 998 c 128,-1,26
 962 940 962 940 1000.5 843.5 c 128,-1,27
 1039 747 1039 747 1039 633 c 2,28,-1
 1039 0 l 1,0,-1
EndSplineSet
EndChar

StartChar: dotlessi
Encoding: 305 305 240
Width: 508
GlyphClass: 2
Flags: W
LayerCount: 2
Fore
SplineSet
351 0 m 1,0,-1
 158 0 l 1,1,-1
 158 1039 l 1,2,-1
 351 1039 l 1,3,-1
 351 0 l 1,0,-1
EndSplineSet
EndChar

StartChar: kgreenlandic
Encoding: 312 312 247
Width: 1106
GlyphClass: 1
Flags: W
LayerCount: 2
Fore
SplineSet
1101 0 m 1,0,-1
 862 0 l 1,1,-1
 551 517 l 1,2,-1
 357 303 l 1,3,-1
 357 0 l 1,4,-1
 164 0 l 1,5,-1
 164 1039 l 1,6,-1
 357 1039 l 1,7,-1
 357 547 l 1,8,-1
 787 1039 l 1,9,-1
 1045 1039 l 1,10,-1
 682 648 l 1,11,-1
 1101 0 l 1,0,-1
EndSplineSet
EndChar

StartChar: Lcaron
Encoding: 317 317 252
Width: 1074
GlyphClass: 1
Flags: W
LayerCount: 2
Fore
SplineSet
1006 0 m 1,0,-1
 198 0 l 1,1,-1
 198 1413 l 1,2,-1
 401 1413 l 1,3,-1
 401 189 l 1,4,-1
 1006 189 l 1,5,-1
 1006 0 l 1,0,-1
757 990 m 1,6,-1
 633 990 l 1,7,-1
 742 1413 l 1,8,-1
 974 1413 l 1,9,-1
 757 990 l 1,6,-1
EndSplineSet
Position2: "'cpsp' Capital Spacing lookup 0 subtable" dx=5 dy=0 dh=10 dv=0
EndChar

StartChar: lcaron
Encoding: 318 318 253
Width: 631
GlyphClass: 1
Flags: W
LayerCount: 2
Fore
SplineSet
349 -20 m 0,0,1
 252 -20 252 -20 205.5 31 c 128,-1,2
 159 82 159 82 159 200 c 2,3,-1
 159 1413 l 1,4,-1
 353 1413 l 1,5,-1
 353 213 l 2,6,7
 353 194 353 194 369 173 c 128,-1,8
 385 152 385 152 423 152 c 0,9,10
 467 152 467 152 506 160 c 1,11,-1
 506 0 l 1,12,13
 419 -20 419 -20 349 -20 c 0,0,1
619 990 m 1,14,-1
 490 990 l 1,15,-1
 604 1413 l 1,16,-1
 845 1413 l 1,17,-1
 619 990 l 1,14,-1
EndSplineSet
EndChar

StartChar: Lslash
Encoding: 321 321 256
Width: 1073
GlyphClass: 1
Flags: W
LayerCount: 2
Fore
SplineSet
1028 0 m 1,0,-1
 220 0 l 1,1,-1
 220 315 l 1,2,-1
 116 199 l 1,3,-1
 116 424 l 1,4,-1
 220 542 l 1,5,-1
 220 1413 l 1,6,-1
 423 1413 l 1,7,-1
 423 772 l 1,8,-1
 730 1120 l 1,9,-1
 730 885 l 1,10,-1
 423 542 l 1,11,-1
 423 189 l 1,12,-1
 1028 189 l 1,13,-1
 1028 0 l 1,0,-1
EndSplineSet
Position2: "'cpsp' Capital Spacing lookup 0 subtable" dx=5 dy=0 dh=10 dv=0
EndChar

StartChar: lslash
Encoding: 322 322 257
Width: 554
GlyphClass: 1
Flags: W
LayerCount: 2
Fore
SplineSet
349 -20 m 0,0,1
 252 -20 252 -20 205.5 31 c 128,-1,2
 159 82 159 82 159 200 c 2,3,-1
 159 440 l 1,4,-1
 40 310 l 1,5,-1
 40 495 l 1,6,-1
 159 625 l 1,7,-1
 159 1413 l 1,8,-1
 353 1413 l 1,9,-1
 353 843 l 1,10,-1
 504 1007 l 1,11,-1
 504 822 l 1,12,-1
 353 658 l 1,13,-1
 353 213 l 2,14,15
 353 194 353 194 369 173 c 128,-1,16
 385 152 385 152 423 152 c 0,17,18
 467 152 467 152 506 160 c 1,19,-1
 506 0 l 1,20,21
 419 -20 419 -20 349 -20 c 0,0,1
EndSplineSet
EndChar

StartChar: Eng
Encoding: 330 330 265
Width: 1436
GlyphClass: 1
Flags: W
LayerCount: 2
Fore
SplineSet
934 -369 m 2,0,-1
 835 -369 l 1,1,-1
 835 -230 l 1,2,3
 968 -230 968 -230 1019 -174 c 0,4,5
 1044 -146 1044 -146 1044 -110 c 0,6,7
 1044 -86 1044 -86 1032 -59 c 2,8,-1
 396 1120 l 1,9,-1
 396 0 l 1,10,-1
 198 0 l 1,11,-1
 198 1412 l 1,12,-1
 434 1412 l 1,13,-1
 1039 293 l 1,14,-1
 1039 1412 l 1,15,-1
 1236 1412 l 1,16,-1
 1236 0 l 2,17,18
 1236 -148 1236 -148 1174.5 -258.5 c 128,-1,19
 1113 -369 1113 -369 934 -369 c 2,0,-1
EndSplineSet
Position2: "'cpsp' Capital Spacing lookup 0 subtable" dx=5 dy=0 dh=10 dv=0
EndChar

StartChar: eng
Encoding: 331 331 266
Width: 1155
GlyphClass: 1
Flags: W
LayerCount: 2
Fore
SplineSet
734 -369 m 2,0,-1
 631 -369 l 1,1,-1
 631 -206 l 1,2,-1
 699 -206 l 2,3,4
 762 -206 762 -206 791.5 -177.5 c 128,-1,5
 821 -149 821 -149 829.5 -112 c 128,-1,6
 838 -75 838 -75 838 -25 c 2,7,-1
 838 613 l 2,8,9
 838 731 838 731 795.5 804 c 128,-1,10
 753 877 753 877 644 877 c 0,11,12
 560 877 560 877 495 835.5 c 128,-1,13
 430 794 430 794 392.5 727.5 c 128,-1,14
 355 661 355 661 355 588 c 2,15,-1
 355 8 l 1,16,-1
 164 8 l 1,17,-1
 164 1039 l 1,18,-1
 355 1039 l 1,19,-1
 355 896 l 1,20,21
 411 976 411 976 496 1016 c 128,-1,22
 581 1056 581 1056 667 1056 c 0,23,24
 792 1056 792 1056 874 998 c 0,25,26
 957 935 957 935 993 839 c 128,-1,27
 1029 743 1029 743 1029 633 c 2,28,-1
 1029 -67 l 2,29,30
 1029 -137 1029 -137 1011.5 -201 c 128,-1,31
 994 -265 994 -265 929 -317 c 128,-1,32
 864 -369 864 -369 734 -369 c 2,0,-1
EndSplineSet
EndChar

StartChar: OE
Encoding: 338 338 273
Width: 2249
GlyphClass: 1
Flags: W
LayerCount: 2
Fore
SplineSet
760 -20 m 0,0,1
 545 -20 545 -20 398 78 c 0,2,3
 244 183 244 183 174 349.5 c 128,-1,4
 104 516 104 516 104 707 c 256,5,6
 104 898 104 898 174 1064.5 c 128,-1,7
 244 1231 244 1231 398 1336 c 0,8,9
 545 1434 545 1434 760 1434 c 0,10,11
 1073 1434 1073 1434 1214 1208 c 1,12,-1
 1214 1413 l 1,13,-1
 2132 1413 l 1,14,-1
 2132 1231 l 1,15,-1
 1417 1231 l 1,16,-1
 1417 797 l 1,17,-1
 2066 797 l 1,18,-1
 2066 617 l 1,19,-1
 1417 617 l 1,20,-1
 1417 189 l 1,21,-1
 2132 189 l 1,22,-1
 2132 0 l 1,23,-1
 1214 0 l 1,24,-1
 1214 205 l 1,25,26
 1072 -20 1072 -20 760 -20 c 0,0,1
760 169 m 0,27,28
 915 169 915 169 1017 242 c 0,29,30
 1122 319 1122 319 1168 441 c 128,-1,31
 1214 563 1214 563 1214 707 c 0,32,33
 1214 817 1214 817 1188 914 c 128,-1,34
 1162 1011 1162 1011 1107 1085 c 128,-1,35
 1052 1159 1052 1159 966 1201.5 c 128,-1,36
 880 1244 880 1244 760 1244 c 0,37,38
 605 1244 605 1244 504 1172 c 0,39,40
 399 1094 399 1094 353 972.5 c 128,-1,41
 307 851 307 851 307 707 c 0,42,43
 307 598 307 598 332.5 501 c 128,-1,44
 358 404 358 404 412.5 329.5 c 128,-1,45
 467 255 467 255 553 212 c 128,-1,46
 639 169 639 169 760 169 c 0,27,28
EndSplineSet
Position2: "'cpsp' Capital Spacing lookup 0 subtable" dx=5 dy=0 dh=10 dv=0
EndChar

StartChar: oe
Encoding: 339 339 274
Width: 1863
GlyphClass: 1
Flags: W
LayerCount: 2
Fore
SplineSet
578 -20 m 0,0,1
 421 -20 421 -20 307.5 54.5 c 128,-1,2
 194 129 194 129 133 251 c 128,-1,3
 72 373 72 373 72 516 c 0,4,5
 72 656 72 656 132.5 779 c 128,-1,6
 193 902 193 902 314 980 c 0,7,8
 429 1052 429 1052 578 1052 c 0,9,10
 707 1052 707 1052 803.5 999 c 128,-1,11
 900 946 900 946 961 858 c 1,12,13
 1085 1052 1085 1052 1328 1052 c 0,14,15
 1577 1052 1577 1052 1684.5 900 c 128,-1,16
 1792 748 1792 748 1792 514 c 0,17,18
 1792 478 1792 478 1787 454 c 1,19,-1
 1068 454 l 1,20,21
 1073 377 1073 377 1105.5 312 c 128,-1,22
 1138 247 1138 247 1198.5 207 c 128,-1,23
 1259 167 1259 167 1350 167 c 0,24,25
 1444 167 1444 167 1510 194.5 c 128,-1,26
 1576 222 1576 222 1630 281 c 1,27,-1
 1770 158 l 1,28,29
 1687 72 1687 72 1585.5 30 c 128,-1,30
 1484 -12 1484 -12 1352 -12 c 0,31,32
 1216 -12 1216 -12 1119 39.5 c 128,-1,33
 1022 91 1022 91 964 177 c 1,34,35
 903 87 903 87 806.5 33.5 c 128,-1,36
 710 -20 710 -20 578 -20 c 0,0,1
1593 603 m 1,37,38
 1589 687 1589 687 1560 750 c 128,-1,39
 1531 813 1531 813 1474 848 c 128,-1,40
 1417 883 1417 883 1328 883 c 0,41,42
 1210 883 1210 883 1145 805 c 128,-1,43
 1080 727 1080 727 1068 603 c 1,44,-1
 1593 603 l 1,37,38
571 150 m 0,45,46
 722 150 722 150 794 252 c 128,-1,47
 866 354 866 354 866 516 c 256,48,49
 866 678 866 678 795 779.5 c 128,-1,50
 724 881 724 881 574 881 c 0,51,52
 472 881 472 881 407 833 c 128,-1,53
 342 785 342 785 310.5 702 c 128,-1,54
 279 619 279 619 279 514 c 0,55,56
 279 353 279 353 350.5 251.5 c 128,-1,57
 422 150 422 150 571 150 c 0,45,46
EndSplineSet
EndChar

StartChar: uni0163
Encoding: 355 355 290
Width: 723
GlyphClass: 1
Flags: W
LayerCount: 2
Fore
SplineSet
442 -513 m 0,0,1
 376 -513 376 -513 325 -476.5 c 128,-1,2
 274 -440 274 -440 252 -386 c 1,3,-1
 368 -330 l 1,4,5
 374 -356 374 -356 396 -374.5 c 128,-1,6
 418 -393 418 -393 448 -393 c 0,7,8
 491 -393 491 -393 516.5 -366.5 c 128,-1,9
 542 -340 542 -340 542 -302 c 0,10,11
 542 -254 542 -254 496 -216.5 c 128,-1,12
 450 -179 450 -179 359 -179 c 2,13,-1
 304 -179 l 1,14,-1
 406 1 l 1,15,16
 301 23 301 23 251.5 101.5 c 128,-1,17
 202 180 202 180 202 293 c 2,18,-1
 202 878 l 1,19,-1
 36 878 l 1,20,-1
 36 1039 l 1,21,-1
 205 1039 l 1,22,-1
 205 1251 l 1,23,-1
 391 1391 l 1,24,-1
 391 1039 l 1,25,-1
 655 1039 l 1,26,-1
 655 878 l 1,27,-1
 391 878 l 1,28,-1
 391 310 l 2,29,30
 391 230 391 230 428 195.5 c 128,-1,31
 465 161 465 161 519 161 c 0,32,33
 579 161 579 161 641 192 c 1,34,-1
 641 20 l 1,35,36
 603 3 603 3 538 -3 c 1,37,-1
 475 -98 l 1,38,39
 571 -107 571 -107 618.5 -161 c 128,-1,40
 666 -215 666 -215 666 -291 c 0,41,42
 666 -350 666 -350 638.5 -400 c 128,-1,43
 611 -450 611 -450 560.5 -481.5 c 128,-1,44
 510 -513 510 -513 442 -513 c 0,0,1
EndSplineSet
Substitution2: "'aalt' Access All Alternates lookup 0 subtable" uni021B
EndChar

StartChar: tcaron
Encoding: 357 357 292
Width: 740
GlyphClass: 1
Flags: W
LayerCount: 2
Fore
SplineSet
637 1154 m 1,0,-1
 517 1154 l 1,1,-1
 649 1534 l 1,2,-1
 882 1534 l 1,3,-1
 637 1154 l 1,0,-1
477 -20 m 0,4,5
 380 -20 380 -20 319.5 18.5 c 128,-1,6
 259 57 259 57 231 125.5 c 128,-1,7
 203 194 203 194 203 284 c 2,8,-1
 203 869 l 1,9,-1
 37 869 l 1,10,-1
 37 1039 l 1,11,-1
 206 1039 l 1,12,-1
 206 1257 l 1,13,-1
 392 1402 l 1,14,-1
 392 1039 l 1,15,-1
 660 1039 l 1,16,-1
 660 869 l 1,17,-1
 392 869 l 1,18,-1
 392 273 l 2,19,20
 392 150 392 150 497 150 c 0,21,22
 563 150 563 150 601 162 c 128,-1,23
 639 174 639 174 646 179 c 1,24,-1
 646 5 l 1,25,26
 638 1 638 1 595 -9.5 c 128,-1,27
 552 -20 552 -20 477 -20 c 0,4,5
EndSplineSet
EndChar

StartChar: Tbar
Encoding: 358 358 293
Width: 1208
GlyphClass: 1
Flags: W
LayerCount: 2
Fore
SplineSet
706 0 m 1,0,-1
 502 0 l 1,1,-1
 502 637 l 1,2,-1
 289 637 l 1,3,-1
 289 776 l 1,4,-1
 502 776 l 1,5,-1
 502 1237 l 1,6,-1
 41 1237 l 1,7,-1
 41 1413 l 1,8,-1
 1167 1413 l 1,9,-1
 1167 1237 l 1,10,-1
 706 1237 l 1,11,-1
 706 776 l 1,12,-1
 923 776 l 1,13,-1
 923 637 l 1,14,-1
 706 637 l 1,15,-1
 706 0 l 1,0,-1
EndSplineSet
Position2: "'cpsp' Capital Spacing lookup 0 subtable" dx=5 dy=0 dh=10 dv=0
EndChar

StartChar: tbar
Encoding: 359 359 294
Width: 728
GlyphClass: 1
Flags: W
LayerCount: 2
Fore
SplineSet
485 -20 m 0,0,1
 388 -20 388 -20 325 18 c 128,-1,2
 262 56 262 56 232 124.5 c 128,-1,3
 202 193 202 193 202 283 c 2,4,-1
 202 451 l 1,5,-1
 22 451 l 1,6,-1
 22 590 l 1,7,-1
 202 590 l 1,8,-1
 202 878 l 1,9,-1
 36 878 l 1,10,-1
 36 1039 l 1,11,-1
 205 1039 l 1,12,-1
 205 1251 l 1,13,-1
 391 1391 l 1,14,-1
 391 1039 l 1,15,-1
 659 1039 l 1,16,-1
 659 878 l 1,17,-1
 391 878 l 1,18,-1
 391 590 l 1,19,-1
 674 590 l 1,20,-1
 674 451 l 1,21,-1
 391 451 l 1,22,-1
 391 300 l 2,23,24
 391 217 391 217 429 181.5 c 128,-1,25
 467 146 467 146 521 146 c 0,26,27
 582 146 582 146 645 179 c 1,28,-1
 645 5 l 1,29,30
 581 -20 581 -20 485 -20 c 0,0,1
EndSplineSet
EndChar

StartChar: Uogonek
Encoding: 370 370 305
Width: 1366
GlyphClass: 1
Flags: W
LayerCount: 2
Fore
SplineSet
811 -416 m 0,0,1
 722 -416 722 -416 659 -361.5 c 128,-1,2
 596 -307 596 -307 596 -211 c 0,3,4
 596 -100 596 -100 693 -20 c 1,5,6
 334 -20 334 -20 221 251 c 0,7,8
 168 376 168 376 168 534 c 2,9,-1
 168 1413 l 1,10,-1
 371 1413 l 1,11,-1
 371 571 l 2,12,13
 371 379 371 379 440.5 277 c 128,-1,14
 510 175 510 175 682 175 c 256,15,16
 854 175 854 175 924.5 277 c 128,-1,17
 995 379 995 379 995 571 c 2,18,-1
 995 1413 l 1,19,-1
 1199 1413 l 1,20,-1
 1199 544 l 2,21,22
 1199 418 1199 418 1167 311.5 c 128,-1,23
 1135 205 1135 205 1067 128 c 128,-1,24
 999 51 999 51 890 12 c 1,25,26
 825 -20 825 -20 774 -70.5 c 128,-1,27
 723 -121 723 -121 723 -187 c 0,28,29
 723 -239 723 -239 746.5 -262 c 128,-1,30
 770 -285 770 -285 803 -285 c 0,31,32
 873 -285 873 -285 916 -224 c 1,33,-1
 1023 -298 l 1,34,35
 946 -416 946 -416 811 -416 c 0,0,1
EndSplineSet
Position2: "'cpsp' Capital Spacing lookup 0 subtable" dx=5 dy=0 dh=10 dv=0
EndChar

StartChar: uogonek
Encoding: 371 371 306
Width: 1156
GlyphClass: 1
Flags: W
LayerCount: 2
Fore
SplineSet
873 -451 m 0,0,1
 783 -451 783 -451 719.5 -396.5 c 128,-1,2
 656 -342 656 -342 656 -246 c 0,3,4
 656 -175 656 -175 694.5 -121 c 128,-1,5
 733 -67 733 -67 775.5 -37 c 128,-1,6
 818 -7 818 -7 847 0 c 1,7,-1
 807 0 l 1,8,-1
 807 145 l 1,9,10
 763 74 763 74 681.5 25.5 c 128,-1,11
 600 -23 600 -23 498 -23 c 0,12,13
 371 -23 371 -23 291 39 c 128,-1,14
 211 101 211 101 172.5 203 c 128,-1,15
 134 305 134 305 134 426 c 2,16,-1
 134 1039 l 1,17,-1
 330 1039 l 1,18,-1
 330 424 l 2,19,20
 330 154 330 154 532 154 c 0,21,22
 605 154 605 154 667.5 190 c 128,-1,23
 730 226 730 226 768.5 299.5 c 128,-1,24
 807 373 807 373 807 485 c 2,25,-1
 807 1039 l 1,26,-1
 1002 1039 l 1,27,-1
 1002 0 l 1,28,29
 974 -10 974 -10 925 -36 c 128,-1,30
 876 -62 876 -62 829.5 -110.5 c 128,-1,31
 783 -159 783 -159 783 -222 c 0,32,33
 783 -274 783 -274 806.5 -297 c 128,-1,34
 830 -320 830 -320 863 -320 c 0,35,36
 933 -320 933 -320 977 -259 c 1,37,-1
 1087 -333 l 1,38,39
 1009 -451 1009 -451 873 -451 c 0,0,1
EndSplineSet
EndChar

StartChar: longs
Encoding: 383 383 318
Width: 701
GlyphClass: 2
Flags: W
LayerCount: 2
Fore
SplineSet
414 0 m 1,0,-1
 217 0 l 1,1,-1
 217 878 l 1,2,-1
 28 878 l 1,3,-1
 28 1037 l 1,4,-1
 218 1037 l 1,5,-1
 218 1177 l 2,6,7
 218 1261 218 1261 259.5 1318.5 c 128,-1,8
 301 1376 301 1376 369 1405 c 128,-1,9
 437 1434 437 1434 518 1434 c 0,10,11
 609 1434 609 1434 694 1394 c 1,12,-1
 636 1241 l 1,13,14
 580 1265 580 1265 533 1265 c 0,15,16
 482 1265 482 1265 448 1234 c 128,-1,17
 414 1203 414 1203 414 1135 c 2,18,-1
 414 0 l 1,0,-1
EndSplineSet
EndChar

StartChar: florin
Encoding: 402 402 319
Width: 1064
GlyphClass: 1
Flags: W
LayerCount: 2
Fore
SplineSet
94 -457 m 1,0,-1
 94 -289 l 1,1,2
 227 -289 227 -289 302.5 -257.5 c 128,-1,3
 378 -226 378 -226 411.5 -159.5 c 128,-1,4
 445 -93 445 -93 445 23 c 2,5,-1
 445 874 l 1,6,-1
 260 874 l 1,7,-1
 260 1039 l 1,8,-1
 445 1039 l 1,9,-1
 445 1171 l 2,10,11
 445 1255 445 1255 485.5 1317.5 c 128,-1,12
 526 1380 526 1380 592.5 1414.5 c 128,-1,13
 659 1449 659 1449 736 1449 c 0,14,15
 855 1449 855 1449 963 1359 c 1,16,-1
 849 1238 l 1,17,18
 791 1281 791 1281 733 1281 c 0,19,20
 685 1281 685 1281 649 1252.5 c 128,-1,21
 613 1224 613 1224 613 1163 c 2,22,-1
 613 1039 l 1,23,-1
 930 1039 l 1,24,-1
 930 874 l 1,25,-1
 613 874 l 1,26,-1
 613 27 l 2,27,28
 613 -209 613 -209 476 -333 c 128,-1,29
 339 -457 339 -457 94 -457 c 1,0,-1
EndSplineSet
EndChar

StartChar: Ohorn
Encoding: 416 416 320
Width: 1521
GlyphClass: 1
Flags: W
LayerCount: 2
Fore
SplineSet
760 -20 m 256,0,1
 545 -20 545 -20 398 78 c 0,2,3
 244 183 244 183 174 349.5 c 128,-1,4
 104 516 104 516 104 707 c 256,5,6
 104 898 104 898 174 1064.5 c 128,-1,7
 244 1231 244 1231 398 1336 c 0,8,9
 545 1434 545 1434 760 1434 c 0,10,11
 1107 1434 1107 1434 1284 1178 c 1,12,13
 1359 1217 1359 1217 1359 1359 c 2,14,-1
 1359 1434 l 1,15,-1
 1497 1434 l 1,16,-1
 1497 1348 l 2,17,18
 1497 1203 1497 1203 1424 1117 c 0,19,20
 1393 1080 1393 1080 1349 1059 c 1,21,22
 1417 895 1417 895 1417 707 c 0,23,24
 1417 516 1417 516 1347 349.5 c 128,-1,25
 1277 183 1277 183 1123 78 c 0,26,27
 975 -20 975 -20 760 -20 c 256,0,1
760 163 m 0,28,29
 915 163 915 163 1016 237 c 0,30,31
 1120 315 1120 315 1165 438.5 c 128,-1,32
 1210 562 1210 562 1210 707 c 0,33,34
 1210 817 1210 817 1184.5 915.5 c 128,-1,35
 1159 1014 1159 1014 1105 1089 c 128,-1,36
 1051 1164 1051 1164 965.5 1207 c 128,-1,37
 880 1250 880 1250 760 1250 c 0,38,39
 606 1250 606 1250 506 1176 c 0,40,41
 402 1097 402 1097 357 974 c 128,-1,42
 312 851 312 851 312 707 c 0,43,44
 312 596 312 596 337.5 497.5 c 128,-1,45
 363 399 363 399 417 324 c 128,-1,46
 471 249 471 249 556 206 c 128,-1,47
 641 163 641 163 760 163 c 0,28,29
EndSplineSet
EndChar

StartChar: ohorn
Encoding: 417 417 321
Width: 1145
GlyphClass: 1
Flags: W
LayerCount: 2
Fore
SplineSet
575 -20 m 0,0,1
 421 -20 421 -20 308 54.5 c 128,-1,2
 195 129 195 129 133.5 250.5 c 128,-1,3
 72 372 72 372 72 516 c 0,4,5
 72 657 72 657 133 780 c 128,-1,6
 194 903 194 903 314 980 c 0,7,8
 429 1052 429 1052 576 1052 c 0,9,10
 730 1052 730 1052 843 980 c 0,11,12
 948 912 948 912 1009 804 c 1,13,14
 1065 854 1065 854 1065 976 c 2,15,-1
 1065 1052 l 1,16,-1
 1203 1052 l 1,17,-1
 1203 963 l 2,18,19
 1203 813 1203 813 1130 725 c 0,20,21
 1101 689 1101 689 1060 668 c 1,22,23
 1078 596 1078 596 1078 518 c 0,24,25
 1078 369 1078 369 1015 247 c 128,-1,26
 952 125 952 125 838 52.5 c 128,-1,27
 724 -20 724 -20 575 -20 c 0,0,1
575 149 m 0,28,29
 678 149 678 149 743 198 c 128,-1,30
 808 247 808 247 839 330 c 128,-1,31
 870 413 870 413 870 516 c 0,32,33
 870 616 870 616 840 700 c 128,-1,34
 810 784 810 784 744.5 833.5 c 128,-1,35
 679 883 679 883 575 883 c 0,36,37
 472 883 472 883 406.5 833.5 c 128,-1,38
 341 784 341 784 310.5 700 c 128,-1,39
 280 616 280 616 280 516 c 0,40,41
 280 419 280 419 309.5 335 c 128,-1,42
 339 251 339 251 404 200 c 128,-1,43
 469 149 469 149 575 149 c 0,28,29
EndSplineSet
EndChar

StartChar: Uhorn
Encoding: 431 431 322
Width: 1366
GlyphClass: 1
Flags: W
LayerCount: 2
Fore
SplineSet
682 -20 m 0,0,1
 504 -20 504 -20 390.5 51 c 128,-1,2
 277 122 277 122 222.5 247 c 128,-1,3
 168 372 168 372 168 534 c 2,4,-1
 168 1413 l 1,5,-1
 371 1413 l 1,6,-1
 371 571 l 2,7,8
 371 379 371 379 440.5 277 c 128,-1,9
 510 175 510 175 682 175 c 256,10,11
 854 175 854 175 924.5 277 c 128,-1,12
 995 379 995 379 995 571 c 2,13,-1
 995 1413 l 1,14,-1
 1199 1413 l 1,15,-1
 1199 1160 l 1,16,17
 1280 1160 1280 1160 1319 1207.5 c 128,-1,18
 1358 1255 1358 1255 1358 1359 c 2,19,-1
 1358 1434 l 1,20,-1
 1496 1434 l 1,21,-1
 1496 1348 l 2,22,23
 1496 1203 1496 1203 1423 1116.5 c 128,-1,24
 1350 1030 1350 1030 1199 1030 c 1,25,-1
 1199 544 l 2,26,27
 1199 379 1199 379 1145 252 c 128,-1,28
 1091 125 1091 125 976.5 52.5 c 128,-1,29
 862 -20 862 -20 682 -20 c 0,0,1
EndSplineSet
EndChar

StartChar: uhorn
Encoding: 432 432 323
Width: 1164
GlyphClass: 1
Flags: W
LayerCount: 2
Fore
SplineSet
501 -23 m 0,0,1
 374 -23 374 -23 292.5 39 c 128,-1,2
 211 101 211 101 172.5 203 c 128,-1,3
 134 305 134 305 134 426 c 2,4,-1
 134 1038 l 1,5,-1
 330 1038 l 1,6,-1
 330 424 l 2,7,8
 330 154 330 154 534 154 c 0,9,10
 608 154 608 154 671.5 190 c 128,-1,11
 735 226 735 226 773.5 299.5 c 128,-1,12
 812 373 812 373 812 485 c 2,13,-1
 812 1038 l 1,14,-1
 1007 1038 l 1,15,-1
 1007 763 l 1,16,17
 1091 763 1091 763 1131.5 813 c 128,-1,18
 1172 863 1172 863 1172 973 c 2,19,-1
 1172 1052 l 1,20,-1
 1310 1052 l 1,21,-1
 1310 963 l 2,22,23
 1310 813 1310 813 1235.5 723 c 128,-1,24
 1161 633 1161 633 1007 633 c 1,25,-1
 1007 0 l 1,26,-1
 812 0 l 1,27,-1
 812 145 l 1,28,29
 768 74 768 74 686 25.5 c 128,-1,30
 604 -23 604 -23 501 -23 c 0,0,1
EndSplineSet
EndChar

StartChar: uni01C3
Encoding: 451 451 324
Width: 622
GlyphClass: 1
Flags: W
LayerCount: 2
Fore
SplineSet
384 402 m 1,0,-1
 238 402 l 1,1,-1
 209 1434 l 1,2,-1
 413 1434 l 1,3,-1
 384 402 l 1,0,-1
425 0 m 1,4,-1
 197 0 l 1,5,-1
 197 226 l 1,6,-1
 425 226 l 1,7,-1
 425 0 l 1,4,-1
EndSplineSet
EndChar

StartChar: uni01DD
Encoding: 477 477 350
Width: 1062
GlyphClass: 1
Flags: W
LayerCount: 2
Fore
SplineSet
530 -12 m 0,0,1
 284 -12 284 -12 178 140 c 128,-1,2
 72 292 72 292 72 529 c 0,3,4
 72 560 72 560 77 576 c 2,5,-1
 78 584 l 1,6,-1
 789 584 l 1,7,8
 783 715 783 715 713 795.5 c 128,-1,9
 643 876 643 876 512 876 c 0,10,11
 415 876 415 876 351.5 851.5 c 128,-1,12
 288 827 288 827 235 768 c 1,13,-1
 102 888 l 1,14,15
 182 971 182 971 279.5 1011.5 c 128,-1,16
 377 1052 377 1052 508 1052 c 0,17,18
 669 1052 669 1052 777 980 c 128,-1,19
 885 908 885 908 939.5 788.5 c 128,-1,20
 994 669 994 669 994 526 c 0,21,22
 994 388 994 388 945 265 c 128,-1,23
 896 142 896 142 789 63 c 0,24,25
 682 -12 682 -12 530 -12 c 0,0,1
527 154 m 0,26,27
 648 154 648 154 713.5 232.5 c 128,-1,28
 779 311 779 311 789 436 c 1,29,-1
 260 436 l 1,30,31
 264 351 264 351 293.5 288 c 128,-1,32
 323 225 323 225 381 189.5 c 128,-1,33
 439 154 439 154 527 154 c 0,26,27
EndSplineSet
EndChar

StartChar: uni01E3
Encoding: 483 483 352
Width: 1711
GlyphClass: 1
Flags: W
LayerCount: 2
Fore
SplineSet
1130 1173 m 1,0,-1
 570 1173 l 1,1,-1
 570 1302 l 1,2,-1
 1130 1302 l 1,3,-1
 1130 1173 l 1,0,-1
406 -20 m 0,4,5
 314 -20 314 -20 236 18 c 128,-1,6
 158 56 158 56 110 126.5 c 128,-1,7
 62 197 62 197 62 294 c 0,8,9
 62 454 62 454 167.5 529 c 128,-1,10
 273 604 273 604 453 604 c 2,11,-1
 755 604 l 1,12,13
 755 750 755 750 694 822.5 c 128,-1,14
 633 895 633 895 505 895 c 0,15,16
 419 895 419 895 352 852 c 128,-1,17
 285 809 285 809 244 748 c 1,18,-1
 103 853 l 1,19,20
 182 960 182 960 283.5 1008 c 128,-1,21
 385 1056 385 1056 514 1056 c 0,22,23
 639 1056 639 1056 724.5 1007.5 c 128,-1,24
 810 959 810 959 854 877 c 1,25,26
 968 1052 968 1052 1189 1052 c 0,27,28
 1428 1052 1428 1052 1533 899.5 c 128,-1,29
 1638 747 1638 747 1638 511 c 0,30,31
 1638 492 1638 492 1633 456 c 1,32,-1
 921 456 l 1,33,34
 926 370 926 370 958.5 304.5 c 128,-1,35
 991 239 991 239 1051.5 201.5 c 128,-1,36
 1112 164 1112 164 1199 164 c 0,37,38
 1295 164 1295 164 1359.5 189 c 128,-1,39
 1424 214 1424 214 1476 272 c 1,40,-1
 1609 151 l 1,41,42
 1529 68 1529 68 1431 28 c 128,-1,43
 1333 -12 1333 -12 1200 -12 c 0,44,45
 924 -12 924 -12 822 216 c 1,46,47
 764 107 764 107 661 43.5 c 128,-1,48
 558 -20 558 -20 406 -20 c 0,4,5
1451 604 m 1,49,50
 1445 734 1445 734 1379.5 809 c 128,-1,51
 1314 884 1314 884 1183 884 c 0,52,53
 1099 884 1099 884 1043 847 c 128,-1,54
 987 810 987 810 957.5 747.5 c 128,-1,55
 928 685 928 685 922 604 c 1,56,-1
 1451 604 l 1,49,50
444 142 m 0,57,58
 531 142 531 142 599.5 187.5 c 128,-1,59
 668 233 668 233 708.5 304.5 c 128,-1,60
 749 376 749 376 755 456 c 1,61,-1
 465 456 l 2,62,63
 376 456 376 456 314.5 414 c 128,-1,64
 253 372 253 372 253 294 c 0,65,66
 253 247 253 247 281 212.5 c 128,-1,67
 309 178 309 178 352.5 160 c 128,-1,68
 396 142 396 142 444 142 c 0,57,58
EndSplineSet
EndChar

StartChar: uni01EB
Encoding: 491 491 354
Width: 1140
GlyphClass: 1
Flags: W
LayerCount: 2
Fore
SplineSet
580 -451 m 0,0,1
 488 -451 488 -451 423.5 -395 c 128,-1,2
 359 -339 359 -339 359 -241 c 0,3,4
 359 -158 359 -158 405.5 -98.5 c 128,-1,5
 452 -39 452 -39 512 -7 c 1,6,7
 305 20 305 20 188.5 170.5 c 128,-1,8
 72 321 72 321 72 521 c 0,9,10
 72 661 72 661 132.5 783 c 128,-1,11
 193 905 193 905 312 981 c 0,12,13
 426 1052 426 1052 573 1052 c 0,14,15
 726 1052 726 1052 838 978.5 c 128,-1,16
 950 905 950 905 1011.5 784 c 128,-1,17
 1073 663 1073 663 1073 520 c 0,18,19
 1073 332 1073 332 970.5 191 c 128,-1,20
 868 50 868 50 695 4 c 1,21,22
 486 -88 486 -88 486 -219 c 0,23,24
 486 -273 486 -273 510.5 -296.5 c 128,-1,25
 535 -320 535 -320 569 -320 c 0,26,27
 642 -320 642 -320 687 -257 c 1,28,-1
 798 -333 l 1,29,30
 719 -451 719 -451 580 -451 c 0,0,1
573 165 m 0,31,32
 675 165 675 165 739.5 213 c 128,-1,33
 804 261 804 261 834.5 342.5 c 128,-1,34
 865 424 865 424 865 524 c 0,35,36
 865 622 865 622 835.5 704 c 128,-1,37
 806 786 806 786 741 834.5 c 128,-1,38
 676 883 676 883 573 883 c 0,39,40
 471 883 471 883 406 834.5 c 128,-1,41
 341 786 341 786 310.5 704 c 128,-1,42
 280 622 280 622 280 524 c 0,43,44
 280 429 280 429 309.5 346.5 c 128,-1,45
 339 264 339 264 403.5 214.5 c 128,-1,46
 468 165 468 165 573 165 c 0,31,32
EndSplineSet
EndChar

StartChar: uni0237
Encoding: 567 567 368
Width: 525
GlyphClass: 2
Flags: W
LayerCount: 2
Fore
SplineSet
80 -438 m 0,0,1
 40 -438 40 -438 -4.5 -428 c 128,-1,2
 -49 -418 -49 -418 -82 -406 c 1,3,-1
 -36 -242 l 1,4,5
 26 -257 26 -257 76 -257 c 256,6,7
 126 -257 126 -257 146.5 -227 c 128,-1,8
 167 -197 167 -197 167 -138 c 2,9,-1
 167 1039 l 1,10,-1
 362 1039 l 1,11,-1
 362 -126 l 2,12,13
 362 -267 362 -267 291 -352.5 c 128,-1,14
 220 -438 220 -438 80 -438 c 0,0,1
EndSplineSet
EndChar

StartChar: uni0250
Encoding: 592 592 369
Width: 1092
GlyphClass: 1
Flags: W
LayerCount: 2
Fore
SplineSet
580 -20 m 0,0,1
 446 -20 446 -20 353.5 33 c 128,-1,2
 261 86 261 86 212.5 181 c 128,-1,3
 164 276 164 276 164 401 c 2,4,-1
 164 1035 l 1,5,-1
 318 1035 l 1,6,-1
 335 873 l 1,7,8
 398 966 398 966 482 1011 c 128,-1,9
 566 1056 566 1056 687 1056 c 0,10,11
 778 1056 778 1056 858 1017.5 c 128,-1,12
 938 979 938 979 986.5 908 c 128,-1,13
 1035 837 1035 837 1035 738 c 0,14,15
 1035 577 1035 577 928 504 c 128,-1,16
 821 431 821 431 639 431 c 2,17,-1
 344 431 l 1,18,19
 344 293 344 293 403 221.5 c 128,-1,20
 462 150 462 150 588 150 c 0,21,22
 672 150 672 150 739.5 194 c 128,-1,23
 807 238 807 238 845 301 c 1,24,-1
 990 184 l 1,25,26
 912 78 912 78 812 29 c 128,-1,27
 712 -20 712 -20 580 -20 c 0,0,1
628 579 m 2,28,29
 716 579 716 579 776 621.5 c 128,-1,30
 836 664 836 664 836 739 c 0,31,32
 836 815 836 815 781.5 851 c 128,-1,33
 727 887 727 887 647 887 c 0,34,35
 559 887 559 887 491 841.5 c 128,-1,36
 423 796 423 796 384.5 726 c 128,-1,37
 346 656 346 656 344 579 c 1,38,-1
 628 579 l 2,28,29
EndSplineSet
EndChar

StartChar: uni0254
Encoding: 596 596 370
Width: 1010
GlyphClass: 1
Flags: W
LayerCount: 2
Fore
SplineSet
473 -20 m 256,0,1
 321 -20 321 -20 213.5 56 c 128,-1,2
 106 132 106 132 50 261 c 1,3,-1
 241 339 l 1,4,5
 264 255 264 255 325.5 205 c 128,-1,6
 387 155 387 155 476 155 c 0,7,8
 571 155 571 155 630.5 207 c 128,-1,9
 690 259 690 259 717.5 342 c 128,-1,10
 745 425 745 425 745 518 c 256,11,12
 745 611 745 611 718.5 693.5 c 128,-1,13
 692 776 692 776 632.5 828 c 128,-1,14
 573 880 573 880 476 880 c 0,15,16
 387 880 387 880 325.5 829.5 c 128,-1,17
 264 779 264 779 241 696 c 1,18,-1
 62 769 l 1,19,20
 111 906 111 906 217 981 c 128,-1,21
 323 1056 323 1056 471 1056 c 0,22,23
 589 1056 589 1056 676.5 1012.5 c 128,-1,24
 764 969 764 969 823.5 893.5 c 128,-1,25
 883 818 883 818 912.5 721.5 c 128,-1,26
 942 625 942 625 942 518 c 0,27,28
 942 381 942 381 891.5 257.5 c 128,-1,29
 841 134 841 134 730 55 c 0,30,31
 625 -20 625 -20 473 -20 c 256,0,1
EndSplineSet
EndChar

StartChar: uni0258
Encoding: 600 600 371
Width: 1062
GlyphClass: 1
Flags: W
LayerCount: 2
Fore
SplineSet
508 -12 m 0,0,1
 377 -12 377 -12 279.5 28 c 128,-1,2
 182 68 182 68 102 151 c 1,3,-1
 235 273 l 1,4,5
 288 215 288 215 351.5 189.5 c 128,-1,6
 415 164 415 164 512 164 c 0,7,8
 643 164 643 164 713 244.5 c 128,-1,9
 783 325 783 325 789 456 c 1,10,-1
 78 456 l 1,11,12
 72 490 72 490 72 511 c 0,13,14
 72 748 72 748 177 900 c 128,-1,15
 282 1052 282 1052 527 1052 c 0,16,17
 645 1052 645 1052 732 1008.5 c 128,-1,18
 819 965 819 965 877.5 889.5 c 128,-1,19
 936 814 936 814 965 717.5 c 128,-1,20
 994 621 994 621 994 514 c 0,21,22
 994 377 994 377 941.5 256.5 c 128,-1,23
 889 136 889 136 774 60 c 0,24,25
 665 -12 665 -12 508 -12 c 0,0,1
789 604 m 1,26,27
 783 685 783 685 753 748 c 128,-1,28
 723 811 723 811 666.5 848 c 128,-1,29
 610 885 610 885 527 885 c 0,30,31
 439 885 439 885 381 850 c 128,-1,32
 323 815 323 815 293.5 752 c 128,-1,33
 264 689 264 689 260 604 c 1,34,-1
 789 604 l 1,26,27
EndSplineSet
EndChar

StartChar: uni0259
Encoding: 601 601 372
Width: 1062
GlyphClass: 1
Flags: W
LayerCount: 2
Fore
SplineSet
530 -12 m 0,0,1
 284 -12 284 -12 178 140 c 128,-1,2
 72 292 72 292 72 529 c 0,3,4
 72 560 72 560 77 576 c 2,5,-1
 78 584 l 1,6,-1
 789 584 l 1,7,8
 783 715 783 715 713 795.5 c 128,-1,9
 643 876 643 876 512 876 c 0,10,11
 415 876 415 876 351.5 851.5 c 128,-1,12
 288 827 288 827 235 768 c 1,13,-1
 102 888 l 1,14,15
 182 971 182 971 279.5 1011.5 c 128,-1,16
 377 1052 377 1052 508 1052 c 0,17,18
 669 1052 669 1052 777 980 c 128,-1,19
 885 908 885 908 939.5 788.5 c 128,-1,20
 994 669 994 669 994 526 c 0,21,22
 994 388 994 388 945 265 c 128,-1,23
 896 142 896 142 789 63 c 0,24,25
 682 -12 682 -12 530 -12 c 0,0,1
527 154 m 0,26,27
 648 154 648 154 713.5 232.5 c 128,-1,28
 779 311 779 311 789 436 c 1,29,-1
 260 436 l 1,30,31
 264 351 264 351 293.5 288 c 128,-1,32
 323 225 323 225 381 189.5 c 128,-1,33
 439 154 439 154 527 154 c 0,26,27
EndSplineSet
EndChar

StartChar: uni02D0
Encoding: 720 720 377
Width: 545
GlyphClass: 1
Flags: W
LayerCount: 2
Fore
SplineSet
283 583 m 1,0,-1
 43 999 l 1,1,-1
 492 1019 l 1,2,-1
 283 583 l 1,0,-1
53 -20 m 1,3,-1
 262 416 l 1,4,-1
 503 0 l 1,5,-1
 53 -20 l 1,3,-1
EndSplineSet
EndChar

StartChar: uni02D1
Encoding: 721 721 378
Width: 557
GlyphClass: 1
Flags: W
LayerCount: 2
Fore
SplineSet
289 240 m 1,0,-1
 49 657 l 1,1,-1
 499 677 l 1,2,-1
 289 240 l 1,0,-1
EndSplineSet
EndChar

StartChar: uni02F5
Encoding: 757 757 385
Width: 1174
GlyphClass: 1
Flags: W
LayerCount: 2
Fore
SplineSet
640 687 m 1,0,-1
 466 687 l 1,1,-1
 185 997 l 1,2,-1
 419 997 l 1,3,-1
 640 687 l 1,0,-1
989 687 m 1,4,-1
 814 687 l 1,5,-1
 534 997 l 1,6,-1
 768 997 l 1,7,-1
 989 687 l 1,4,-1
EndSplineSet
EndChar

StartChar: uni02F6
Encoding: 758 758 386
Width: 1174
GlyphClass: 1
Flags: W
LayerCount: 2
Fore
SplineSet
358 687 m 1,0,-1
 203 687 l 1,1,-1
 424 997 l 1,2,-1
 627 997 l 1,3,-1
 358 687 l 1,0,-1
696 687 m 1,4,-1
 542 687 l 1,5,-1
 763 997 l 1,6,-1
 987 997 l 1,7,-1
 696 687 l 1,4,-1
EndSplineSet
EndChar

StartChar: gravecomb
Encoding: 768 768 387
Width: 0
GlyphClass: 4
Flags: W
AnchorPoint: "Anchor-1" -145 1050 mark 0
LayerCount: 2
Fore
SplineSet
-51 1164 m 5,0,-1
 -215 1164 l 5,1,-1
 -496 1464 l 5,2,-1
 -272 1464 l 5,3,-1
 -51 1164 l 5,0,-1
EndSplineSet
EndChar

StartChar: acutecomb
Encoding: 769 769 388
Width: 0
GlyphClass: 4
Flags: W
AnchorPoint: "Anchor-1" -342 1039 mark 0
LayerCount: 2
Fore
SplineSet
-329 1164 m 5,0,-1
 -484 1164 l 1,1,-1
 -263 1453 l 1,2,-1
 -38 1453 l 1,3,-1
 -329 1164 l 5,0,-1
EndSplineSet
EndChar

StartChar: uni0302
Encoding: 770 770 389
Width: 0
GlyphClass: 4
Flags: W
AnchorPoint: "Anchor-1" -325 1065 mark 0
LayerCount: 2
Fore
SplineSet
-30 1164 m 5,0,-1
 -203 1164 l 5,1,-1
 -353 1331 l 5,2,-1
 -501 1164 l 5,3,-1
 -676 1164 l 5,4,-1
 -353 1518 l 5,5,-1
 -30 1164 l 5,0,-1
EndSplineSet
EndChar

StartChar: tildecomb
Encoding: 771 771 390
Width: 0
GlyphClass: 4
Flags: W
AnchorPoint: "Anchor-1" -436 1045 mark 0
LayerCount: 2
Fore
SplineSet
-308 1164 m 4,0,1
 -361 1164 -361 1164 -399 1187 c 132,-1,2
 -437 1210 -437 1210 -478 1256 c 4,3,4
 -506 1286 -506 1286 -525 1300 c 132,-1,5
 -544 1314 -544 1314 -565 1314 c 4,6,7
 -601 1314 -601 1314 -617 1275.5 c 132,-1,8
 -633 1237 -633 1237 -633 1177 c 5,9,-1
 -751 1177 l 5,10,11
 -751 1295 -751 1295 -703 1369.5 c 132,-1,12
 -655 1444 -655 1444 -562 1444 c 4,13,14
 -506 1444 -506 1444 -468 1418.5 c 132,-1,15
 -430 1393 -430 1393 -391 1350 c 4,16,17
 -363 1320 -363 1320 -344.5 1306.5 c 132,-1,18
 -326 1293 -326 1293 -306 1293 c 4,19,20
 -272 1293 -272 1293 -255.5 1332 c 132,-1,21
 -239 1371 -239 1371 -239 1438 c 5,22,-1
 -115 1438 l 5,23,24
 -115 1301 -115 1301 -168 1232.5 c 132,-1,25
 -221 1164 -221 1164 -308 1164 c 4,0,1
EndSplineSet
EndChar

StartChar: uni0304
Encoding: 772 772 391
Width: 0
GlyphClass: 4
Flags: W
AnchorPoint: "Anchor-1" -418 1039 mark 0
LayerCount: 2
Fore
SplineSet
-151 1206 m 1,0,-1
 -700 1206 l 1,1,-1
 -700 1340 l 1,2,-1
 -151 1340 l 1,3,-1
 -151 1206 l 1,0,-1
EndSplineSet
EndChar

StartChar: uni0306
Encoding: 774 774 392
Width: 0
GlyphClass: 4
Flags: W
AnchorPoint: "Anchor-1" -405 1039 mark 0
LayerCount: 2
Fore
SplineSet
-410 1183 m 0,0,1
 -560 1183 -560 1183 -640.5 1253 c 128,-1,2
 -721 1323 -721 1323 -721 1453 c 1,3,-1
 -568 1453 l 1,4,5
 -568 1384 -568 1384 -521.5 1347 c 128,-1,6
 -475 1310 -475 1310 -410 1310 c 0,7,8
 -344 1310 -344 1310 -298.5 1347 c 128,-1,9
 -253 1384 -253 1384 -253 1453 c 1,10,-1
 -100 1453 l 1,11,12
 -100 1361 -100 1361 -138.5 1301 c 128,-1,13
 -177 1241 -177 1241 -247 1212 c 128,-1,14
 -317 1183 -317 1183 -410 1183 c 0,0,1
EndSplineSet
EndChar

StartChar: uni0307
Encoding: 775 775 393
Width: 0
GlyphClass: 4
Flags: W
AnchorPoint: "Anchor-1" -269 978 mark 0
LayerCount: 2
Fore
SplineSet
-154 1184 m 5,0,-1
 -366 1184 l 5,1,-1
 -366 1392 l 5,2,-1
 -154 1392 l 5,3,-1
 -154 1184 l 5,0,-1
EndSplineSet
EndChar

StartChar: uni0308
Encoding: 776 776 394
Width: 0
GlyphClass: 4
Flags: W
AnchorPoint: "Anchor-1" -420 978 mark 0
LayerCount: 2
Fore
SplineSet
-498 1184 m 5,0,-1
 -684 1184 l 5,1,-1
 -684 1392 l 5,2,-1
 -498 1392 l 5,3,-1
 -498 1184 l 5,0,-1
-153 1184 m 5,4,-1
 -339 1184 l 5,5,-1
 -339 1392 l 5,6,-1
 -153 1392 l 5,7,-1
 -153 1184 l 5,4,-1
EndSplineSet
EndChar

StartChar: hookabovecomb
Encoding: 777 777 395
Width: 0
GlyphClass: 4
Flags: W
AnchorPoint: "Anchor-1" -300 1026 mark 0
LayerCount: 2
Fore
SplineSet
-345 1077 m 1,0,-1
 -369 1161 l 1,1,-1
 -350 1165 l 2,2,3
 -310 1171 -310 1171 -285.5 1179 c 128,-1,4
 -261 1187 -261 1187 -244.5 1205.5 c 128,-1,5
 -228 1224 -228 1224 -228 1257 c 0,6,7
 -228 1338 -228 1338 -342 1349 c 0,8,9
 -377 1353 -377 1353 -433 1353 c 1,10,-1
 -433 1476 l 1,11,-1
 -401 1476 l 2,12,13
 -310 1476 -310 1476 -239 1453 c 128,-1,14
 -168 1430 -168 1430 -127.5 1384.5 c 128,-1,15
 -87 1339 -87 1339 -87 1271 c 0,16,17
 -87 1150 -87 1150 -212 1108 c 0,18,19
 -263 1090 -263 1090 -345 1077 c 1,0,-1
EndSplineSet
EndChar

StartChar: uni030A
Encoding: 778 778 396
Width: 0
GlyphClass: 4
Flags: W
AnchorPoint: "Anchor-1" -316 1039 mark 0
LayerCount: 2
Fore
SplineSet
-318 1114 m 0,0,1
 -381 1114 -381 1114 -429.5 1144.5 c 128,-1,2
 -478 1175 -478 1175 -505.5 1224.5 c 128,-1,3
 -533 1274 -533 1274 -533 1331 c 0,4,5
 -533 1425 -533 1425 -468.5 1485.5 c 128,-1,6
 -404 1546 -404 1546 -318 1546 c 0,7,8
 -230 1546 -230 1546 -165.5 1484 c 128,-1,9
 -101 1422 -101 1422 -101 1331 c 0,10,11
 -101 1239 -101 1239 -165 1176.5 c 128,-1,12
 -229 1114 -229 1114 -318 1114 c 0,0,1
-318 1231 m 0,13,14
 -275 1231 -275 1231 -246 1260 c 128,-1,15
 -217 1289 -217 1289 -217 1332 c 0,16,17
 -217 1372 -217 1372 -244 1400.5 c 128,-1,18
 -271 1429 -271 1429 -318 1429 c 0,19,20
 -363 1429 -363 1429 -389.5 1402 c 128,-1,21
 -416 1375 -416 1375 -416 1332 c 0,22,23
 -416 1287 -416 1287 -388 1259 c 128,-1,24
 -360 1231 -360 1231 -318 1231 c 0,13,14
EndSplineSet
EndChar

StartChar: uni030B
Encoding: 779 779 397
Width: 0
GlyphClass: 4
Flags: W
AnchorPoint: "Anchor-1" -547 1039 mark 0
LayerCount: 2
Fore
SplineSet
-666 1143 m 1,0,-1
 -821 1143 l 1,1,-1
 -600 1453 l 1,2,-1
 -397 1453 l 1,3,-1
 -666 1143 l 1,0,-1
-328 1143 m 1,4,-1
 -482 1143 l 1,5,-1
 -261 1453 l 1,6,-1
 -37 1453 l 1,7,-1
 -328 1143 l 1,4,-1
EndSplineSet
EndChar

StartChar: uni030C
Encoding: 780 780 398
Width: 0
GlyphClass: 4
Flags: W
AnchorPoint: "Anchor-1" -327 1039 mark 0
LayerCount: 2
Fore
SplineSet
-354 1120 m 1,0,-1
 -676 1452 l 1,1,-1
 -502 1452 l 1,2,-1
 -354 1292 l 1,3,-1
 -204 1452 l 1,4,-1
 -30 1452 l 1,5,-1
 -354 1120 l 1,0,-1
EndSplineSet
EndChar

StartChar: uni030F
Encoding: 783 783 399
Width: 0
GlyphClass: 4
Flags: W
AnchorPoint: "Anchor-1" -342 1039 mark 0
LayerCount: 2
Fore
SplineSet
-401 1143 m 1,0,-1
 -575 1143 l 1,1,-1
 -856 1453 l 1,2,-1
 -622 1453 l 1,3,-1
 -401 1143 l 1,0,-1
-52 1143 m 1,4,-1
 -227 1143 l 1,5,-1
 -507 1453 l 1,6,-1
 -273 1453 l 1,7,-1
 -52 1143 l 1,4,-1
EndSplineSet
EndChar

StartChar: uni0312
Encoding: 786 786 400
Width: 0
GlyphClass: 4
Flags: W
AnchorPoint: "Anchor-1" -291 1039 mark 0
LayerCount: 2
Fore
SplineSet
-223 1161 m 1,0,-1
 -454 1161 l 1,1,-1
 -217 1468 l 1,2,-1
 -94 1468 l 1,3,-1
 -223 1161 l 1,0,-1
EndSplineSet
EndChar

StartChar: uni031B
Encoding: 795 795 401
Width: 0
GlyphClass: 1
Flags: W
LayerCount: 2
Fore
SplineSet
-398 990 m 1,0,-1
 -398 1120 l 1,1,2
 -317 1120 -317 1120 -278 1167.5 c 128,-1,3
 -239 1215 -239 1215 -239 1319 c 2,4,-1
 -239 1394 l 1,5,-1
 -101 1394 l 1,6,-1
 -101 1308 l 2,7,8
 -101 1163 -101 1163 -174 1076.5 c 128,-1,9
 -247 990 -247 990 -398 990 c 1,0,-1
EndSplineSet
EndChar

StartChar: dotbelowcomb
Encoding: 803 803 402
Width: 0
GlyphClass: 4
Flags: W
AnchorPoint: "Anchor-1" -269 -561 mark 0
LayerCount: 2
Fore
SplineSet
-154 -315 m 1,0,-1
 -366 -315 l 1,1,-1
 -366 -107 l 1,2,-1
 -154 -107 l 1,3,-1
 -154 -315 l 1,0,-1
EndSplineSet
EndChar

StartChar: uni0326
Encoding: 806 806 403
Width: 0
GlyphClass: 4
Flags: W
AnchorPoint: "Anchor-3" -244 -459 basemark 0
AnchorPoint: "Anchor-3" -177 0 mark 0
AnchorPoint: "Anchor-0" -177 0 mark 0
LayerCount: 2
Fore
SplineSet
-285 -452 m 1,0,-1
 -408 -452 l 1,1,-1
 -279 -109 l 1,2,-1
 -48 -109 l 1,3,-1
 -285 -452 l 1,0,-1
EndSplineSet
EndChar

StartChar: uni0327
Encoding: 807 807 404
Width: 0
GlyphClass: 4
Flags: W
AnchorPoint: "Anchor-3" -285 -500 basemark 0
AnchorPoint: "Anchor-3" -262 0 mark 0
AnchorPoint: "Anchor-0" -262 0 mark 0
LayerCount: 2
Fore
SplineSet
-309 -513 m 0,0,1
 -374 -513 -374 -513 -424.5 -476.5 c 128,-1,2
 -475 -440 -475 -440 -497 -386 c 1,3,-1
 -381 -332 l 1,4,5
 -375 -357 -375 -357 -353.5 -375 c 128,-1,6
 -332 -393 -332 -393 -303 -393 c 0,7,8
 -261 -393 -261 -393 -237 -367.5 c 128,-1,9
 -213 -342 -213 -342 -213 -305 c 0,10,11
 -213 -259 -213 -259 -257.5 -223 c 128,-1,12
 -302 -187 -302 -187 -391 -187 c 2,13,-1
 -445 -187 l 1,14,-1
 -336 -1 l 1,15,-1
 -205 -1 l 1,16,-1
 -277 -109 l 1,17,18
 -182 -118 -182 -118 -135.5 -170.5 c 128,-1,19
 -89 -223 -89 -223 -89 -297 c 0,20,21
 -89 -354 -89 -354 -116 -403 c 128,-1,22
 -143 -452 -143 -452 -192.5 -482.5 c 128,-1,23
 -242 -513 -242 -513 -309 -513 c 0,0,1
EndSplineSet
EndChar

StartChar: uni0328
Encoding: 808 808 405
Width: 0
GlyphClass: 4
Flags: W
AnchorPoint: "Anchor-2" -169 0 mark 0
LayerCount: 2
Fore
SplineSet
-271 -451 m 0,0,1
 -360 -451 -360 -451 -423 -396.5 c 128,-1,2
 -486 -342 -486 -342 -486 -246 c 0,3,4
 -486 -175 -486 -175 -447.5 -121 c 128,-1,5
 -409 -67 -409 -67 -366.5 -37 c 128,-1,6
 -324 -7 -324 -7 -296 0 c 1,7,-1
 -141 0 l 1,8,9
 -169 -10 -169 -10 -217.5 -36 c 128,-1,10
 -266 -62 -266 -62 -312.5 -110.5 c 128,-1,11
 -359 -159 -359 -159 -359 -222 c 0,12,13
 -359 -274 -359 -274 -335.5 -297 c 128,-1,14
 -312 -320 -312 -320 -279 -320 c 0,15,16
 -209 -320 -209 -320 -166 -259 c 1,17,-1
 -59 -333 l 1,18,19
 -136 -451 -136 -451 -271 -451 c 0,0,1
EndSplineSet
EndChar

StartChar: pi
Encoding: 960 960 406
Width: 1015
GlyphClass: 1
Flags: W
LayerCount: 2
Fore
SplineSet
852 -20 m 0,0,1
 748 -20 748 -20 688 54 c 128,-1,2
 628 128 628 128 628 235 c 2,3,-1
 628 863 l 1,4,-1
 361 863 l 1,5,-1
 361 0 l 1,6,-1
 185 0 l 1,7,-1
 185 863 l 1,8,-1
 100 863 l 1,9,-1
 100 1039 l 1,10,-1
 890 1039 l 1,11,-1
 890 863 l 1,12,-1
 804 863 l 1,13,-1
 804 248 l 2,14,15
 804 187 804 187 821.5 159 c 128,-1,16
 839 131 839 131 866 131 c 0,17,18
 891 131 891 131 916 148 c 1,19,-1
 970 13 l 1,20,21
 917 -20 917 -20 852 -20 c 0,0,1
EndSplineSet
EndChar

StartChar: uni0402
Encoding: 1026 1026 409
Width: 1621
GlyphClass: 1
Flags: W
LayerCount: 2
Fore
SplineSet
1118 -19 m 0,0,1
 1030 -19 1030 -19 943 16.5 c 128,-1,2
 856 52 856 52 799 108 c 1,3,-1
 910 247 l 1,4,5
 981 170 981 170 1096 170 c 0,6,7
 1204 170 1204 170 1267 244 c 128,-1,8
 1330 318 1330 318 1330 435 c 0,9,10
 1330 568 1330 568 1299.5 647 c 128,-1,11
 1269 726 1269 726 1205 765 c 0,12,13
 1136 806 1136 806 1017 806 c 0,14,15
 910 806 910 806 831 767.5 c 128,-1,16
 752 729 752 729 706 673 c 1,17,-1
 706 0 l 1,18,-1
 503 0 l 1,19,-1
 503 1237 l 1,20,-1
 41 1237 l 1,21,-1
 41 1412 l 1,22,-1
 1167 1412 l 1,23,-1
 1167 1237 l 1,24,-1
 706 1237 l 1,25,-1
 706 901 l 1,26,27
 770 947 770 947 848.5 974 c 128,-1,28
 927 1001 927 1001 1017 1001 c 0,29,30
 1281 1001 1281 1001 1407.5 857.5 c 128,-1,31
 1534 714 1534 714 1534 445 c 0,32,33
 1534 296 1534 296 1481 192.5 c 128,-1,34
 1428 89 1428 89 1334.5 35 c 128,-1,35
 1241 -19 1241 -19 1118 -19 c 0,0,1
EndSplineSet
Position2: "'cpsp' Capital Spacing lookup 0 subtable" dx=5 dy=0 dh=10 dv=0
EndChar

StartChar: uni0403
Encoding: 1027 1027 410
Width: 1067
GlyphClass: 1
Flags: W
LayerCount: 2
Fore
SplineSet
606 1537 m 1,0,-1
 460 1537 l 1,1,-1
 679 1826 l 1,2,-1
 892 1826 l 1,3,-1
 606 1537 l 1,0,-1
401 0 m 1,4,-1
 198 0 l 1,5,-1
 198 1412 l 1,6,-1
 1025 1412 l 1,7,-1
 1025 1231 l 1,8,-1
 401 1231 l 1,9,-1
 401 0 l 1,4,-1
EndSplineSet
Position2: "'cpsp' Capital Spacing lookup 0 subtable" dx=5 dy=0 dh=10 dv=0
EndChar

StartChar: uni0404
Encoding: 1028 1028 411
Width: 1425
GlyphClass: 1
Flags: W
LayerCount: 2
Fore
SplineSet
762 -20 m 0,0,1
 547 -20 547 -20 399 78 c 0,2,3
 245 182 245 182 175 348.5 c 128,-1,4
 105 515 105 515 105 707 c 0,5,6
 105 900 105 900 174.5 1066.5 c 128,-1,7
 244 1233 244 1233 398 1338 c 0,8,9
 545 1436 545 1436 760 1436 c 0,10,11
 956 1436 956 1436 1111.5 1340 c 128,-1,12
 1267 1244 1267 1244 1355 1046 c 1,13,-1
 1167 970 l 1,14,15
 1126 1112 1126 1112 1018.5 1178 c 128,-1,16
 911 1244 911 1244 758 1244 c 0,17,18
 618 1244 618 1244 523 1185 c 128,-1,19
 428 1126 428 1126 375.5 1025 c 128,-1,20
 323 924 323 924 311 795 c 1,21,-1
 912 795 l 1,22,-1
 912 624 l 1,23,-1
 312 624 l 1,24,25
 324 492 324 492 376.5 390 c 128,-1,26
 429 288 429 288 524 229.5 c 128,-1,27
 619 171 619 171 762 171 c 0,28,29
 917 171 917 171 1016 240.5 c 128,-1,30
 1115 310 1115 310 1169 449 c 1,31,-1
 1357 371 l 1,32,33
 1270 172 1270 172 1113.5 76 c 128,-1,34
 957 -20 957 -20 762 -20 c 0,0,1
EndSplineSet
Position2: "'cpsp' Capital Spacing lookup 0 subtable" dx=5 dy=0 dh=10 dv=0
EndChar

StartChar: uni0406
Encoding: 1030 1030 413
Width: 599
GlyphClass: 1
Flags: W
LayerCount: 2
Fore
SplineSet
401 0 m 1,0,-1
 198 0 l 1,1,-1
 198 1412 l 1,2,-1
 401 1412 l 1,3,-1
 401 0 l 1,0,-1
EndSplineSet
Position2: "'cpsp' Capital Spacing lookup 0 subtable" dx=5 dy=0 dh=10 dv=0
EndChar

StartChar: uni0407
Encoding: 1031 1031 414
Width: 598
GlyphClass: 1
Flags: W
LayerCount: 2
Fore
SplineSet
216 1583 m 1,0,-1
 37 1583 l 1,1,-1
 37 1763 l 1,2,-1
 216 1763 l 1,3,-1
 216 1583 l 1,0,-1
558 1583 m 1,4,-1
 379 1583 l 1,5,-1
 379 1763 l 1,6,-1
 558 1763 l 1,7,-1
 558 1583 l 1,4,-1
401 0 m 1,8,-1
 198 0 l 1,9,-1
 198 1412 l 1,10,-1
 401 1412 l 1,11,-1
 401 0 l 1,8,-1
EndSplineSet
Position2: "'cpsp' Capital Spacing lookup 0 subtable" dx=5 dy=0 dh=10 dv=0
EndChar

StartChar: uni0409
Encoding: 1033 1033 416
Width: 1980
GlyphClass: 1
Flags: W
LayerCount: 2
Fore
SplineSet
221 -20 m 0,0,1
 120 -20 120 -20 32 31 c 1,2,-1
 98 196 l 1,3,4
 160 173 160 173 210 173 c 0,5,6
 284 173 284 173 314 397 c 128,-1,7
 344 621 344 621 344 887 c 2,8,-1
 344 1412 l 1,9,-1
 1222 1412 l 1,10,-1
 1222 799 l 1,11,-1
 1439 799 l 2,12,13
 1573 799 1573 799 1681 755 c 128,-1,14
 1789 711 1789 711 1853 618 c 0,15,16
 1912 528 1912 528 1912 403 c 0,17,18
 1912 274 1912 274 1851 184 c 128,-1,19
 1790 94 1790 94 1683.5 47 c 128,-1,20
 1577 0 1577 0 1439 0 c 2,21,-1
 1021 0 l 1,22,-1
 1021 1231 l 1,23,-1
 547 1231 l 1,24,-1
 547 888 l 2,25,26
 547 645 547 645 529 457 c 128,-1,27
 511 269 511 269 439.5 124.5 c 128,-1,28
 368 -20 368 -20 221 -20 c 0,0,1
1439 186 m 2,29,30
 1579 186 1579 186 1646 245 c 128,-1,31
 1713 304 1713 304 1713 403 c 0,32,33
 1713 504 1713 504 1645.5 558.5 c 128,-1,34
 1578 613 1578 613 1439 613 c 2,35,-1
 1222 613 l 1,36,-1
 1222 186 l 1,37,-1
 1439 186 l 2,29,30
EndSplineSet
Position2: "'cpsp' Capital Spacing lookup 0 subtable" dx=5 dy=0 dh=10 dv=0
EndChar

StartChar: uni040A
Encoding: 1034 1034 417
Width: 2030
GlyphClass: 1
Flags: W
LayerCount: 2
Fore
SplineSet
1489 0 m 2,0,-1
 1070 0 l 1,1,-1
 1070 616 l 1,2,-1
 401 616 l 1,3,-1
 401 0 l 1,4,-1
 198 0 l 1,5,-1
 198 1412 l 1,6,-1
 401 1412 l 1,7,-1
 401 797 l 1,8,-1
 1070 797 l 1,9,-1
 1070 1412 l 1,10,-1
 1274 1412 l 1,11,-1
 1274 799 l 1,12,-1
 1489 799 l 2,13,14
 1625 799 1625 799 1732 754.5 c 128,-1,15
 1839 710 1839 710 1901 621.5 c 128,-1,16
 1963 533 1963 533 1963 403 c 256,17,18
 1963 273 1963 273 1901.5 183 c 128,-1,19
 1840 93 1840 93 1733 46.5 c 128,-1,20
 1626 0 1626 0 1489 0 c 2,0,-1
1489 186 m 2,21,22
 1629 186 1629 186 1695.5 245 c 128,-1,23
 1762 304 1762 304 1762 403 c 0,24,25
 1762 504 1762 504 1694.5 558.5 c 128,-1,26
 1627 613 1627 613 1489 613 c 2,27,-1
 1274 613 l 1,28,-1
 1274 186 l 1,29,-1
 1489 186 l 2,21,22
EndSplineSet
Position2: "'cpsp' Capital Spacing lookup 0 subtable" dx=5 dy=0 dh=10 dv=0
EndChar

StartChar: uni040B
Encoding: 1035 1035 418
Width: 1643
GlyphClass: 1
Flags: W
LayerCount: 2
Fore
SplineSet
1534 0 m 1,0,-1
 1330 0 l 1,1,-1
 1330 401 l 2,2,3
 1330 533 1330 533 1300.5 623 c 128,-1,4
 1271 713 1271 713 1202.5 759.5 c 128,-1,5
 1134 806 1134 806 1017 806 c 0,6,7
 910 806 910 806 831 767.5 c 128,-1,8
 752 729 752 729 706 673 c 1,9,-1
 706 0 l 1,10,-1
 503 0 l 1,11,-1
 503 1237 l 1,12,-1
 41 1237 l 1,13,-1
 41 1412 l 1,14,-1
 1167 1412 l 1,15,-1
 1167 1237 l 1,16,-1
 706 1237 l 1,17,-1
 706 901 l 1,18,19
 834 1001 834 1001 1017 1001 c 0,20,21
 1280 1001 1280 1001 1407 844 c 128,-1,22
 1534 687 1534 687 1534 412 c 2,23,-1
 1534 0 l 1,0,-1
EndSplineSet
Position2: "'cpsp' Capital Spacing lookup 0 subtable" dx=5 dy=0 dh=10 dv=0
EndChar

StartChar: uni040C
Encoding: 1036 1036 419
Width: 1306
GlyphClass: 1
Flags: W
LayerCount: 2
Fore
SplineSet
665 1537 m 1,0,-1
 519 1537 l 1,1,-1
 738 1826 l 1,2,-1
 952 1826 l 1,3,-1
 665 1537 l 1,0,-1
1259 0 m 1,4,-1
 1011 0 l 1,5,-1
 826 521 l 2,6,7
 815 555 815 555 789.5 592.5 c 128,-1,8
 764 630 764 630 725 657.5 c 128,-1,9
 686 685 686 685 636 685 c 2,10,-1
 401 685 l 1,11,-1
 401 0 l 1,12,-1
 198 0 l 1,13,-1
 198 1412 l 1,14,-1
 401 1412 l 1,15,-1
 401 868 l 1,16,-1
 560 868 l 1,17,-1
 919 1412 l 1,18,-1
 1185 1412 l 1,19,-1
 769 824 l 1,20,21
 825 824 825 824 872.5 790 c 128,-1,22
 920 756 920 756 954.5 708.5 c 128,-1,23
 989 661 989 661 1007 617 c 2,24,-1
 1259 0 l 1,4,-1
EndSplineSet
Position2: "'cpsp' Capital Spacing lookup 0 subtable" dx=5 dy=0 dh=10 dv=0
EndChar

StartChar: uni040D
Encoding: 1037 1037 420
Width: 1471
GlyphClass: 1
Flags: W
LayerCount: 2
Fore
SplineSet
861 1529 m 1,0,-1
 702 1529 l 1,1,-1
 429 1826 l 1,2,-1
 643 1826 l 1,3,-1
 861 1529 l 1,0,-1
1273 0 m 1,4,-1
 1070 0 l 1,5,-1
 1070 1066 l 1,6,-1
 1072 1151 l 1,7,-1
 441 0 l 1,8,-1
 198 0 l 1,9,-1
 198 1412 l 1,10,-1
 401 1412 l 1,11,12
 401 313 401 313 398 260 c 1,13,-1
 1029 1412 l 1,14,-1
 1273 1412 l 1,15,-1
 1273 0 l 1,4,-1
EndSplineSet
Position2: "'cpsp' Capital Spacing lookup 0 subtable" dx=5 dy=0 dh=10 dv=0
EndChar

StartChar: uni040E
Encoding: 1038 1038 421
Width: 1113
GlyphClass: 1
Flags: W
LayerCount: 2
Fore
SplineSet
550 1555 m 256,0,1
 458 1555 458 1555 388.5 1585 c 128,-1,2
 319 1615 319 1615 280.5 1675 c 128,-1,3
 242 1735 242 1735 242 1826 c 1,4,-1
 388 1826 l 1,5,6
 388 1755 388 1755 436 1717 c 128,-1,7
 484 1679 484 1679 550 1679 c 0,8,9
 617 1679 617 1679 665 1717.5 c 128,-1,10
 713 1756 713 1756 713 1826 c 1,11,-1
 859 1826 l 1,12,13
 859 1735 859 1735 820 1674.5 c 128,-1,14
 781 1614 781 1614 711.5 1584.5 c 128,-1,15
 642 1555 642 1555 550 1555 c 256,0,1
457 0 m 1,16,-1
 242 0 l 1,17,-1
 437 457 l 1,18,-1
 39 1412 l 1,19,-1
 257 1412 l 1,20,-1
 544 676 l 1,21,-1
 854 1412 l 1,22,-1
 1073 1412 l 1,23,-1
 457 0 l 1,16,-1
EndSplineSet
Position2: "'cpsp' Capital Spacing lookup 0 subtable" dx=5 dy=0 dh=10 dv=0
EndChar

StartChar: uni040F
Encoding: 1039 1039 422
Width: 1471
GlyphClass: 1
Flags: W
LayerCount: 2
Fore
SplineSet
837 -307 m 1,0,-1
 634 -307 l 1,1,-1
 634 0 l 1,2,-1
 198 0 l 1,3,-1
 198 1412 l 1,4,-1
 401 1412 l 1,5,-1
 401 182 l 1,6,-1
 1070 182 l 1,7,-1
 1070 1412 l 1,8,-1
 1273 1412 l 1,9,-1
 1273 0 l 1,10,-1
 837 0 l 1,11,-1
 837 -307 l 1,0,-1
EndSplineSet
Position2: "'cpsp' Capital Spacing lookup 0 subtable" dx=5 dy=0 dh=10 dv=0
EndChar

StartChar: uni0410
Encoding: 1040 1040 423
Width: 1323
GlyphClass: 1
Flags: W
LayerCount: 2
Fore
SplineSet
1283 0 m 1,0,-1
 1065 0 l 1,1,-1
 955 307 l 1,2,-1
 371 307 l 1,3,-1
 260 0 l 1,4,-1
 39 0 l 1,5,-1
 585 1412 l 1,6,-1
 739 1412 l 1,7,-1
 1283 0 l 1,0,-1
888 486 m 1,8,-1
 663 1114 l 1,9,-1
 438 486 l 1,10,-1
 888 486 l 1,8,-1
EndSplineSet
Position2: "'cpsp' Capital Spacing lookup 0 subtable" dx=5 dy=0 dh=10 dv=0
EndChar

StartChar: uni0411
Encoding: 1041 1041 424
Width: 1258
GlyphClass: 1
Flags: W
LayerCount: 2
Fore
SplineSet
703 0 m 2,0,-1
 198 0 l 1,1,-1
 198 1412 l 1,2,-1
 980 1412 l 1,3,-1
 980 1229 l 1,4,-1
 401 1229 l 1,5,-1
 401 817 l 1,6,-1
 718 817 l 2,7,8
 934 817 934 817 1046 704.5 c 128,-1,9
 1158 592 1158 592 1158 398 c 0,10,11
 1158 272 1158 272 1096.5 183 c 128,-1,12
 1035 94 1035 94 931.5 47 c 128,-1,13
 828 0 828 0 703 0 c 2,0,-1
707 191 m 2,14,15
 776 191 776 191 832.5 217 c 128,-1,16
 889 243 889 243 922.5 293.5 c 128,-1,17
 956 344 956 344 956 418 c 0,18,19
 956 487 956 487 921.5 536 c 128,-1,20
 887 585 887 585 829.5 611 c 128,-1,21
 772 637 772 637 704 637 c 2,22,-1
 401 637 l 1,23,-1
 401 191 l 1,24,-1
 707 191 l 2,14,15
EndSplineSet
Position2: "'cpsp' Capital Spacing lookup 0 subtable" dx=5 dy=0 dh=10 dv=0
EndChar

StartChar: uni0413
Encoding: 1043 1043 426
Width: 1067
GlyphClass: 1
Flags: W
LayerCount: 2
Fore
SplineSet
401 0 m 1,0,-1
 198 0 l 1,1,-1
 198 1412 l 1,2,-1
 1025 1412 l 1,3,-1
 1025 1231 l 1,4,-1
 401 1231 l 1,5,-1
 401 0 l 1,0,-1
EndSplineSet
Position2: "'cpsp' Capital Spacing lookup 0 subtable" dx=5 dy=0 dh=10 dv=0
EndChar

StartChar: uni0414
Encoding: 1044 1044 427
Width: 1458
GlyphClass: 2
Flags: W
LayerCount: 2
Fore
SplineSet
1372 -307 m 1,0,-1
 1170 -307 l 1,1,-1
 1170 0 l 1,2,-1
 245 0 l 1,3,-1
 245 -306 l 1,4,-1
 42 -307 l 1,5,-1
 42 172 l 1,6,-1
 199 172 l 1,7,8
 283 345 283 345 318.5 518.5 c 128,-1,9
 354 692 354 692 354 906 c 2,10,-1
 354 1412 l 1,11,-1
 1231 1412 l 1,12,-1
 1231 172 l 1,13,-1
 1372 172 l 1,14,-1
 1372 -307 l 1,0,-1
1028 172 m 1,15,-1
 1028 1231 l 1,16,-1
 556 1231 l 1,17,-1
 556 907 l 2,18,19
 556 671 556 671 521.5 501 c 128,-1,20
 487 331 487 331 410 172 c 1,21,-1
 1028 172 l 1,15,-1
EndSplineSet
Substitution2: "'ss02' Style Set 2 lookup 18 subtable" uni0414.1
Substitution2: "'ss03' Style Set 3 lookup 17 subtable" uni0431.loclSRB
Substitution2: "'locl' Localized Forms in Cyrillic lookup 10 subtable" uni0414.1
Substitution2: "'locl' Localized Forms in Cyrillic lookup 9 subtable" uni0414.loclSRB
Substitution2: "'locl' Localized Forms in Cyrillic lookup 8 subtable" uni0431.loclSRB
Position2: "'cpsp' Capital Spacing lookup 0 subtable" dx=5 dy=0 dh=10 dv=0
EndChar

StartChar: uni0416
Encoding: 1046 1046 429
Width: 2019
GlyphClass: 1
Flags: W
LayerCount: 2
Fore
SplineSet
1969 0 m 1,0,-1
 1721 0 l 1,1,-1
 1537 521 l 2,2,3
 1515 584 1515 584 1465.5 634.5 c 128,-1,4
 1416 685 1416 685 1347 685 c 2,5,-1
 1111 685 l 1,6,-1
 1111 0 l 1,7,-1
 908 0 l 1,8,-1
 908 685 l 1,9,-1
 673 685 l 2,10,11
 603 685 603 685 555 636 c 128,-1,12
 507 587 507 587 483 521 c 2,13,-1
 298 0 l 1,14,-1
 50 0 l 1,15,-1
 302 617 l 2,16,17
 320 662 320 662 354.5 709.5 c 128,-1,18
 389 757 389 757 436.5 790.5 c 128,-1,19
 484 824 484 824 540 824 c 1,20,-1
 124 1412 l 1,21,-1
 389 1412 l 1,22,-1
 749 868 l 1,23,-1
 908 868 l 1,24,-1
 908 1412 l 1,25,-1
 1111 1412 l 1,26,-1
 1111 868 l 1,27,-1
 1270 868 l 1,28,-1
 1629 1412 l 1,29,-1
 1895 1412 l 1,30,-1
 1479 824 l 1,31,32
 1535 824 1535 824 1582.5 790 c 128,-1,33
 1630 756 1630 756 1664.5 708.5 c 128,-1,34
 1699 661 1699 661 1718 617 c 2,35,-1
 1969 0 l 1,0,-1
EndSplineSet
Position2: "'cpsp' Capital Spacing lookup 0 subtable" dx=5 dy=0 dh=10 dv=0
EndChar

StartChar: uni0417
Encoding: 1047 1047 430
Width: 1113
GlyphClass: 1
Flags: W
LayerCount: 2
Fore
SplineSet
513 -20 m 0,0,1
 371 -20 371 -20 250.5 34 c 128,-1,2
 130 88 130 88 66 201 c 1,3,-1
 230 310 l 1,4,5
 266 229 266 229 342 192.5 c 128,-1,6
 418 156 418 156 513 156 c 0,7,8
 591 156 591 156 658.5 184.5 c 128,-1,9
 726 213 726 213 768 270 c 128,-1,10
 810 327 810 327 810 414 c 0,11,12
 810 497 810 497 770 552 c 128,-1,13
 730 607 730 607 662.5 634.5 c 128,-1,14
 595 662 595 662 513 662 c 2,15,-1
 363 662 l 1,16,-1
 361 838 l 1,17,-1
 519 838 l 2,18,19
 616 838 616 838 682.5 890.5 c 128,-1,20
 749 943 749 943 749 1040 c 0,21,22
 749 1108 749 1108 717.5 1155.5 c 128,-1,23
 686 1203 686 1203 633.5 1228 c 128,-1,24
 581 1253 581 1253 517 1253 c 0,25,26
 434 1253 434 1253 366 1207.5 c 128,-1,27
 298 1162 298 1162 289 1074 c 1,28,-1
 90 1074 l 1,29,30
 101 1249 101 1249 226 1341.5 c 128,-1,31
 351 1434 351 1434 515 1434 c 0,32,33
 624 1434 624 1434 721.5 1391.5 c 128,-1,34
 819 1349 819 1349 881 1260 c 0,35,36
 939 1175 939 1175 939 1060 c 0,37,38
 939 961 939 961 895 883.5 c 128,-1,39
 851 806 851 806 768 763 c 1,40,41
 838 738 838 738 892.5 689.5 c 128,-1,42
 947 641 947 641 979 568.5 c 128,-1,43
 1011 496 1011 496 1011 399 c 0,44,45
 1011 258 1011 258 942.5 165 c 128,-1,46
 874 72 874 72 760.5 26 c 128,-1,47
 647 -20 647 -20 513 -20 c 0,0,1
EndSplineSet
Position2: "'cpsp' Capital Spacing lookup 0 subtable" dx=5 dy=0 dh=10 dv=0
EndChar

StartChar: uni0418
Encoding: 1048 1048 431
Width: 1435
GlyphClass: 1
Flags: W
LayerCount: 2
Fore
SplineSet
1237 0 m 1,0,-1
 1039 0 l 1,1,-1
 1039 1127 l 1,2,-1
 441 0 l 1,3,-1
 198 0 l 1,4,-1
 198 1413 l 1,5,-1
 396 1413 l 1,6,-1
 396 288 l 1,7,-1
 997 1413 l 1,8,-1
 1237 1413 l 1,9,-1
 1237 0 l 1,0,-1
EndSplineSet
Position2: "'cpsp' Capital Spacing lookup 0 subtable" dx=5 dy=0 dh=10 dv=0
EndChar

StartChar: uni0419
Encoding: 1049 1049 432
Width: 1471
GlyphClass: 1
Flags: W
LayerCount: 2
Fore
SplineSet
756 1555 m 256,0,1
 664 1555 664 1555 594.5 1585 c 128,-1,2
 525 1615 525 1615 486.5 1675 c 128,-1,3
 448 1735 448 1735 448 1826 c 1,4,-1
 594 1826 l 1,5,6
 594 1755 594 1755 642 1717 c 128,-1,7
 690 1679 690 1679 756 1679 c 0,8,9
 823 1679 823 1679 871 1717.5 c 128,-1,10
 919 1756 919 1756 919 1826 c 1,11,-1
 1065 1826 l 1,12,13
 1065 1735 1065 1735 1026 1674.5 c 128,-1,14
 987 1614 987 1614 917.5 1584.5 c 128,-1,15
 848 1555 848 1555 756 1555 c 256,0,1
1273 0 m 1,16,-1
 1070 0 l 1,17,-1
 1070 1066 l 1,18,-1
 1072 1151 l 1,19,-1
 441 0 l 1,20,-1
 198 0 l 1,21,-1
 198 1412 l 1,22,-1
 401 1412 l 1,23,24
 401 313 401 313 398 260 c 1,25,-1
 1029 1412 l 1,26,-1
 1273 1412 l 1,27,-1
 1273 0 l 1,16,-1
EndSplineSet
Position2: "'cpsp' Capital Spacing lookup 0 subtable" dx=5 dy=0 dh=10 dv=0
EndChar

StartChar: uni041A
Encoding: 1050 1050 433
Width: 1306
GlyphClass: 1
Flags: W
LayerCount: 2
Fore
SplineSet
1259 0 m 1,0,-1
 1011 0 l 1,1,-1
 826 521 l 2,2,3
 815 555 815 555 789.5 592.5 c 128,-1,4
 764 630 764 630 725 657.5 c 128,-1,5
 686 685 686 685 636 685 c 2,6,-1
 401 685 l 1,7,-1
 401 0 l 1,8,-1
 198 0 l 1,9,-1
 198 1412 l 1,10,-1
 401 1412 l 1,11,-1
 401 868 l 1,12,-1
 560 868 l 1,13,-1
 919 1412 l 1,14,-1
 1185 1412 l 1,15,-1
 769 824 l 1,16,17
 825 824 825 824 872.5 790 c 128,-1,18
 920 756 920 756 954.5 708.5 c 128,-1,19
 989 661 989 661 1007 617 c 2,20,-1
 1259 0 l 1,0,-1
EndSplineSet
Position2: "'cpsp' Capital Spacing lookup 0 subtable" dx=5 dy=0 dh=10 dv=0
EndChar

StartChar: uni041B
Encoding: 1051 1051 434
Width: 1427
GlyphClass: 2
Flags: W
LayerCount: 2
Fore
SplineSet
224 -20 m 0,0,1
 127 -20 127 -20 39 31 c 1,2,-1
 109 212 l 1,3,4
 153 182 153 182 190 182 c 0,5,6
 264 182 264 182 299 300 c 0,7,8
 333 411 333 411 342 588.5 c 128,-1,9
 351 766 351 766 351 1078 c 2,10,-1
 351 1412 l 1,11,-1
 1230 1412 l 1,12,-1
 1230 0 l 1,13,-1
 1028 0 l 1,14,-1
 1028 1231 l 1,15,-1
 554 1231 l 1,16,-1
 554 1023 l 2,17,18
 554 686 554 686 538 479.5 c 128,-1,19
 522 273 522 273 450 126.5 c 128,-1,20
 378 -20 378 -20 224 -20 c 0,0,1
EndSplineSet
Substitution2: "'ss02' Style Set 2 lookup 18 subtable" uni041B.1
Substitution2: "'ss03' Style Set 3 lookup 17 subtable" uni0414.loclSRB
Substitution2: "'locl' Localized Forms in Cyrillic lookup 10 subtable" uni041B.1
Substitution2: "'locl' Localized Forms in Cyrillic lookup 9 subtable" uni041B.loclSRB
Substitution2: "'locl' Localized Forms in Cyrillic lookup 8 subtable" uni0414.loclSRB
Position2: "'cpsp' Capital Spacing lookup 0 subtable" dx=5 dy=0 dh=10 dv=0
EndChar

StartChar: uni041F
Encoding: 1055 1055 438
Width: 1471
GlyphClass: 1
Flags: W
LayerCount: 2
Fore
SplineSet
1273 0 m 1,0,-1
 1070 0 l 1,1,-1
 1070 1231 l 1,2,-1
 401 1231 l 1,3,-1
 401 0 l 1,4,-1
 198 0 l 1,5,-1
 198 1412 l 1,6,-1
 1273 1412 l 1,7,-1
 1273 0 l 1,0,-1
EndSplineSet
Position2: "'cpsp' Capital Spacing lookup 0 subtable" dx=5 dy=0 dh=10 dv=0
EndChar

StartChar: uni0420
Encoding: 1056 1056 439
Width: 1157
GlyphClass: 1
Flags: W
LayerCount: 2
Fore
SplineSet
400 0 m 1,0,-1
 198 0 l 1,1,-1
 198 1412 l 1,2,-1
 616 1412 l 2,3,4
 752 1412 752 1412 859 1366.5 c 128,-1,5
 966 1321 966 1321 1028 1231.5 c 128,-1,6
 1090 1142 1090 1142 1090 1010 c 0,7,8
 1090 882 1090 882 1029.5 793.5 c 128,-1,9
 969 705 969 705 862.5 659 c 128,-1,10
 756 613 756 613 616 613 c 2,11,-1
 400 613 l 1,12,-1
 400 0 l 1,0,-1
616 800 m 2,13,14
 755 800 755 800 822.5 854.5 c 128,-1,15
 890 909 890 909 890 1010 c 0,16,17
 890 1108 890 1108 823 1167.5 c 128,-1,18
 756 1227 756 1227 616 1227 c 2,19,-1
 400 1227 l 1,20,-1
 400 800 l 1,21,-1
 616 800 l 2,13,14
EndSplineSet
Position2: "'cpsp' Capital Spacing lookup 0 subtable" dx=5 dy=0 dh=10 dv=0
EndChar

StartChar: uni0421
Encoding: 1057 1057 440
Width: 1425
GlyphClass: 1
Flags: W
LayerCount: 2
Fore
SplineSet
762 -20 m 0,0,1
 547 -20 547 -20 399 78 c 0,2,3
 245 182 245 182 175 348.5 c 128,-1,4
 105 515 105 515 105 707 c 0,5,6
 105 900 105 900 174.5 1066.5 c 128,-1,7
 244 1233 244 1233 398 1338 c 0,8,9
 545 1436 545 1436 760 1436 c 0,10,11
 956 1436 956 1436 1111.5 1340 c 128,-1,12
 1267 1244 1267 1244 1355 1046 c 1,13,-1
 1167 970 l 1,14,15
 1126 1112 1126 1112 1018.5 1178 c 128,-1,16
 911 1244 911 1244 758 1244 c 0,17,18
 602 1244 602 1244 502 1173.5 c 128,-1,19
 402 1103 402 1103 354 983.5 c 128,-1,20
 306 864 306 864 306 717 c 0,21,22
 306 476 306 476 414 330 c 0,23,24
 532 171 532 171 762 171 c 0,25,26
 917 171 917 171 1016 240.5 c 128,-1,27
 1115 310 1115 310 1169 449 c 1,28,-1
 1357 371 l 1,29,30
 1270 172 1270 172 1113.5 76 c 128,-1,31
 957 -20 957 -20 762 -20 c 0,0,1
EndSplineSet
Position2: "'cpsp' Capital Spacing lookup 0 subtable" dx=5 dy=0 dh=10 dv=0
EndChar

StartChar: uni0422
Encoding: 1058 1058 441
Width: 1208
GlyphClass: 1
Flags: W
LayerCount: 2
Fore
SplineSet
705 0 m 1,0,-1
 503 0 l 1,1,-1
 503 1237 l 1,2,-1
 41 1237 l 1,3,-1
 41 1412 l 1,4,-1
 1167 1412 l 1,5,-1
 1167 1237 l 1,6,-1
 705 1237 l 1,7,-1
 705 0 l 1,0,-1
EndSplineSet
Position2: "'cpsp' Capital Spacing lookup 0 subtable" dx=5 dy=0 dh=10 dv=0
EndChar

StartChar: uni0423
Encoding: 1059 1059 442
Width: 1113
GlyphClass: 1
Flags: W
LayerCount: 2
Fore
SplineSet
457 0 m 1,0,-1
 242 0 l 1,1,-1
 437 457 l 1,2,-1
 39 1412 l 1,3,-1
 257 1412 l 1,4,-1
 544 676 l 1,5,-1
 854 1412 l 1,6,-1
 1073 1412 l 1,7,-1
 457 0 l 1,0,-1
EndSplineSet
Position2: "'cpsp' Capital Spacing lookup 0 subtable" dx=5 dy=0 dh=10 dv=0
EndChar

StartChar: uni0424
Encoding: 1060 1060 443
Width: 1733
GlyphClass: 1
Flags: W
LayerCount: 2
Fore
SplineSet
968 0 m 1,0,-1
 765 0 l 1,1,-1
 765 109 l 1,2,3
 538 109 538 109 393 183 c 128,-1,4
 248 257 248 257 178 386 c 0,5,6
 104 519 104 519 104 705 c 0,7,8
 104 884 104 884 175.5 1021.5 c 128,-1,9
 247 1159 247 1159 401 1238 c 0,10,11
 549 1312 549 1312 765 1312 c 1,12,-1
 765 1412 l 1,13,-1
 968 1412 l 1,14,-1
 968 1312 l 1,15,16
 1194 1312 1194 1312 1339 1236 c 128,-1,17
 1484 1160 1484 1160 1555 1028 c 0,18,19
 1629 892 1629 892 1629 705 c 0,20,21
 1629 523 1629 523 1557 389 c 128,-1,22
 1485 255 1485 255 1338.5 182 c 128,-1,23
 1192 109 1192 109 968 109 c 1,24,-1
 968 0 l 1,0,-1
765 292 m 1,25,-1
 765 1129 l 1,26,27
 608 1129 608 1129 508 1076.5 c 128,-1,28
 408 1024 408 1024 360 928.5 c 128,-1,29
 312 833 312 833 312 705 c 0,30,31
 312 578 312 578 360 485.5 c 128,-1,32
 408 393 408 393 508 342.5 c 128,-1,33
 608 292 608 292 765 292 c 1,25,-1
968 292 m 1,34,35
 1124 292 1124 292 1224.5 342.5 c 128,-1,36
 1325 393 1325 393 1373 485.5 c 128,-1,37
 1421 578 1421 578 1421 705 c 0,38,39
 1421 833 1421 833 1372.5 928.5 c 128,-1,40
 1324 1024 1324 1024 1224 1076.5 c 128,-1,41
 1124 1129 1124 1129 968 1129 c 1,42,-1
 968 292 l 1,34,35
EndSplineSet
Position2: "'cpsp' Capital Spacing lookup 0 subtable" dx=5 dy=0 dh=10 dv=0
EndChar

StartChar: uni0425
Encoding: 1061 1061 444
Width: 1299
GlyphClass: 1
Flags: W
LayerCount: 2
Fore
SplineSet
1249 0 m 1,0,-1
 1008 0 l 1,1,-1
 647 558 l 1,2,-1
 292 0 l 1,3,-1
 50 0 l 1,4,-1
 519 707 l 1,5,-1
 52 1413 l 1,6,-1
 294 1413 l 1,7,-1
 649 846 l 1,8,-1
 1006 1413 l 1,9,-1
 1247 1413 l 1,10,-1
 781 707 l 1,11,-1
 1249 0 l 1,0,-1
EndSplineSet
Position2: "'cpsp' Capital Spacing lookup 0 subtable" dx=5 dy=0 dh=10 dv=0
EndChar

StartChar: uni0426
Encoding: 1062 1062 445
Width: 1502
GlyphClass: 1
Flags: W
LayerCount: 2
Fore
SplineSet
1420 -278 m 1,0,-1
 1218 -278 l 1,1,-1
 1218 0 l 1,2,-1
 198 0 l 1,3,-1
 198 1412 l 1,4,-1
 401 1412 l 1,5,-1
 401 182 l 1,6,-1
 1070 182 l 1,7,-1
 1070 1412 l 1,8,-1
 1273 1412 l 1,9,-1
 1273 182 l 1,10,-1
 1420 182 l 1,11,-1
 1420 -278 l 1,0,-1
EndSplineSet
Position2: "'cpsp' Capital Spacing lookup 0 subtable" dx=5 dy=0 dh=10 dv=0
EndChar

StartChar: uni0427
Encoding: 1063 1063 446
Width: 1338
GlyphClass: 1
Flags: W
LayerCount: 2
Fore
SplineSet
1140 0 m 1,0,-1
 936 0 l 1,1,-1
 936 511 l 1,2,3
 809 410 809 410 624 410 c 0,4,5
 362 410 362 410 235.5 567.5 c 128,-1,6
 109 725 109 725 109 1000 c 2,7,-1
 109 1412 l 1,8,-1
 312 1412 l 1,9,-1
 312 1011 l 2,10,11
 312 812 312 812 381.5 709 c 128,-1,12
 451 606 451 606 624 606 c 0,13,14
 733 606 733 606 812 644.5 c 128,-1,15
 891 683 891 683 936 739 c 1,16,-1
 936 1412 l 1,17,-1
 1140 1412 l 1,18,-1
 1140 0 l 1,0,-1
EndSplineSet
Position2: "'cpsp' Capital Spacing lookup 0 subtable" dx=5 dy=0 dh=10 dv=0
EndChar

StartChar: uni0428
Encoding: 1064 1064 447
Width: 1772
GlyphClass: 1
Flags: W
LayerCount: 2
Fore
SplineSet
1574 0 m 1,0,-1
 198 0 l 1,1,-1
 198 1412 l 1,2,-1
 401 1412 l 1,3,-1
 401 182 l 1,4,-1
 783 182 l 1,5,-1
 783 1412 l 1,6,-1
 986 1412 l 1,7,-1
 986 182 l 1,8,-1
 1371 182 l 1,9,-1
 1371 1412 l 1,10,-1
 1574 1412 l 1,11,-1
 1574 0 l 1,0,-1
EndSplineSet
Position2: "'cpsp' Capital Spacing lookup 0 subtable" dx=5 dy=0 dh=10 dv=0
EndChar

StartChar: uni0429
Encoding: 1065 1065 448
Width: 1803
GlyphClass: 1
Flags: W
LayerCount: 2
Fore
SplineSet
1721 -278 m 1,0,-1
 1519 -278 l 1,1,-1
 1519 0 l 1,2,-1
 198 0 l 1,3,-1
 198 1412 l 1,4,-1
 401 1412 l 1,5,-1
 401 182 l 1,6,-1
 783 182 l 1,7,-1
 783 1412 l 1,8,-1
 986 1412 l 1,9,-1
 986 182 l 1,10,-1
 1371 182 l 1,11,-1
 1371 1412 l 1,12,-1
 1574 1412 l 1,13,-1
 1574 182 l 1,14,-1
 1721 182 l 1,15,-1
 1721 -278 l 1,0,-1
EndSplineSet
Position2: "'cpsp' Capital Spacing lookup 0 subtable" dx=5 dy=0 dh=10 dv=0
EndChar

StartChar: uni042A
Encoding: 1066 1066 449
Width: 1386
GlyphClass: 1
Flags: W
LayerCount: 2
Fore
SplineSet
845 0 m 2,0,-1
 427 0 l 1,1,-1
 427 1238 l 1,2,-1
 41 1238 l 1,3,-1
 41 1412 l 1,4,-1
 628 1412 l 1,5,-1
 628 799 l 1,6,-1
 845 799 l 2,7,8
 979 799 979 799 1087 755 c 128,-1,9
 1195 711 1195 711 1259 618 c 0,10,11
 1318 528 1318 528 1318 403 c 0,12,13
 1318 274 1318 274 1257 184 c 128,-1,14
 1196 94 1196 94 1089.5 47 c 128,-1,15
 983 0 983 0 845 0 c 2,0,-1
845 186 m 2,16,17
 985 186 985 186 1052 245 c 128,-1,18
 1119 304 1119 304 1119 403 c 0,19,20
 1119 504 1119 504 1051.5 558.5 c 128,-1,21
 984 613 984 613 845 613 c 2,22,-1
 628 613 l 1,23,-1
 628 186 l 1,24,-1
 845 186 l 2,16,17
EndSplineSet
Position2: "'cpsp' Capital Spacing lookup 0 subtable" dx=5 dy=0 dh=10 dv=0
EndChar

StartChar: uni042B
Encoding: 1067 1067 450
Width: 1682
GlyphClass: 1
Flags: W
LayerCount: 2
Fore
SplineSet
616 0 m 2,0,-1
 198 0 l 1,1,-1
 198 1412 l 1,2,-1
 400 1412 l 1,3,-1
 400 799 l 1,4,-1
 616 799 l 2,5,6
 751 799 751 799 859 755 c 128,-1,7
 967 711 967 711 1031 618 c 0,8,9
 1090 528 1090 528 1090 403 c 0,10,11
 1090 274 1090 274 1029.5 184 c 128,-1,12
 969 94 969 94 862 47 c 128,-1,13
 755 0 755 0 616 0 c 2,0,-1
1484 0 m 1,14,-1
 1282 0 l 1,15,-1
 1282 1412 l 1,16,-1
 1484 1412 l 1,17,-1
 1484 0 l 1,14,-1
616 186 m 2,18,19
 756 186 756 186 823 245 c 128,-1,20
 890 304 890 304 890 403 c 0,21,22
 890 504 890 504 822.5 558.5 c 128,-1,23
 755 613 755 613 616 613 c 2,24,-1
 400 613 l 1,25,-1
 400 186 l 1,26,-1
 616 186 l 2,18,19
EndSplineSet
Position2: "'cpsp' Capital Spacing lookup 0 subtable" dx=5 dy=0 dh=10 dv=0
EndChar

StartChar: uni042C
Encoding: 1068 1068 451
Width: 1157
GlyphClass: 1
Flags: W
LayerCount: 2
Fore
SplineSet
616 0 m 2,0,-1
 198 0 l 1,1,-1
 198 1412 l 1,2,-1
 400 1412 l 1,3,-1
 400 799 l 1,4,-1
 616 799 l 2,5,6
 751 799 751 799 859 755 c 128,-1,7
 967 711 967 711 1031 618 c 0,8,9
 1090 528 1090 528 1090 403 c 0,10,11
 1090 274 1090 274 1029.5 184 c 128,-1,12
 969 94 969 94 862 47 c 128,-1,13
 755 0 755 0 616 0 c 2,0,-1
616 186 m 2,14,15
 756 186 756 186 823 245 c 128,-1,16
 890 304 890 304 890 403 c 0,17,18
 890 504 890 504 822.5 558.5 c 128,-1,19
 755 613 755 613 616 613 c 2,20,-1
 400 613 l 1,21,-1
 400 186 l 1,22,-1
 616 186 l 2,14,15
EndSplineSet
Position2: "'cpsp' Capital Spacing lookup 0 subtable" dx=5 dy=0 dh=10 dv=0
EndChar

StartChar: uni042D
Encoding: 1069 1069 452
Width: 1425
GlyphClass: 1
Flags: W
LayerCount: 2
Fore
SplineSet
663 -20 m 0,0,1
 468 -20 468 -20 311.5 76 c 128,-1,2
 155 172 155 172 68 371 c 1,3,-1
 257 449 l 1,4,5
 310 310 310 310 409 240.5 c 128,-1,6
 508 171 508 171 663 171 c 0,7,8
 868 171 868 171 980.5 295 c 128,-1,9
 1093 419 1093 419 1114 624 c 1,10,-1
 514 624 l 1,11,-1
 514 795 l 1,12,-1
 1114 795 l 1,13,14
 1102 924 1102 924 1050.5 1025 c 128,-1,15
 999 1126 999 1126 904 1185 c 128,-1,16
 809 1244 809 1244 667 1244 c 0,17,18
 515 1244 515 1244 407.5 1178 c 128,-1,19
 300 1112 300 1112 259 970 c 1,20,-1
 70 1046 l 1,21,22
 158 1244 158 1244 313.5 1340 c 128,-1,23
 469 1436 469 1436 665 1436 c 0,24,25
 881 1436 881 1436 1029 1338 c 0,26,27
 1182 1233 1182 1233 1251.5 1066.5 c 128,-1,28
 1321 900 1321 900 1321 707 c 0,29,30
 1321 579 1321 579 1290.5 460.5 c 128,-1,31
 1260 342 1260 342 1195 244 c 128,-1,32
 1130 146 1130 146 1027 78 c 0,33,34
 878 -20 878 -20 663 -20 c 0,0,1
EndSplineSet
Position2: "'cpsp' Capital Spacing lookup 0 subtable" dx=5 dy=0 dh=10 dv=0
EndChar

StartChar: uni042E
Encoding: 1070 1070 453
Width: 1945
GlyphClass: 2
Flags: W
LayerCount: 2
Fore
SplineSet
1183 -20 m 0,0,1
 980 -20 980 -20 840.5 64 c 128,-1,2
 701 148 701 148 623.5 291 c 128,-1,3
 546 434 546 434 530 616 c 1,4,-1
 401 616 l 1,5,-1
 401 0 l 1,6,-1
 198 0 l 1,7,-1
 198 1412 l 1,8,-1
 401 1412 l 1,9,-1
 401 797 l 1,10,-1
 530 797 l 1,11,12
 544 972 544 972 619.5 1116 c 128,-1,13
 695 1260 695 1260 843 1350 c 0,14,15
 984 1434 984 1434 1183 1434 c 0,16,17
 1399 1434 1399 1434 1547 1336 c 0,18,19
 1650 1267 1650 1267 1715 1169 c 128,-1,20
 1780 1071 1780 1071 1810 953 c 128,-1,21
 1840 835 1840 835 1840 707 c 256,22,23
 1840 579 1840 579 1810 461 c 128,-1,24
 1780 343 1780 343 1715 245 c 128,-1,25
 1650 147 1650 147 1547 78 c 0,26,27
 1399 -20 1399 -20 1183 -20 c 0,0,1
1183 163 m 0,28,29
 1337 163 1337 163 1438 237 c 0,30,31
 1541 315 1541 315 1586 438.5 c 128,-1,32
 1631 562 1631 562 1631 707 c 0,33,34
 1631 943 1631 943 1527 1089 c 0,35,36
 1411 1250 1411 1250 1183 1250 c 0,37,38
 1029 1250 1029 1250 929 1177 c 0,39,40
 825 1099 825 1099 780 975.5 c 128,-1,41
 735 852 735 852 735 707 c 0,42,43
 735 471 735 471 839 325 c 0,44,45
 954 163 954 163 1183 163 c 0,28,29
EndSplineSet
Substitution2: "'ss02' Style Set 2 lookup 18 subtable" uni042E.1
Substitution2: "'ss03' Style Set 3 lookup 17 subtable" uni041B.loclSRB
Substitution2: "'locl' Localized Forms in Cyrillic lookup 10 subtable" uni042E.1
Substitution2: "'locl' Localized Forms in Cyrillic lookup 8 subtable" uni041B.loclSRB
Position2: "'cpsp' Capital Spacing lookup 0 subtable" dx=5 dy=0 dh=10 dv=0
EndChar

StartChar: uni042F
Encoding: 1071 1071 454
Width: 1242
GlyphClass: 1
Flags: W
LayerCount: 2
Fore
SplineSet
1044 -2 m 1,0,-1
 841 -2 l 1,1,-1
 841 619 l 1,2,-1
 638 619 l 1,3,-1
 287 -2 l 1,4,-1
 52 -2 l 1,5,-1
 440 642 l 1,6,7
 309 678 309 678 229.5 774 c 128,-1,8
 150 870 150 870 150 1009 c 0,9,10
 150 1137 150 1137 213.5 1227 c 128,-1,11
 277 1317 277 1317 382.5 1364.5 c 128,-1,12
 488 1412 488 1412 615 1412 c 2,13,-1
 1044 1412 l 1,14,-1
 1044 -2 l 1,0,-1
839 794 m 1,15,-1
 839 1231 l 1,16,-1
 613 1231 l 2,17,18
 500 1231 500 1231 425.5 1173.5 c 128,-1,19
 351 1116 351 1116 351 1007 c 0,20,21
 351 906 351 906 417.5 852.5 c 128,-1,22
 484 799 484 799 591 794 c 1,23,-1
 839 794 l 1,15,-1
EndSplineSet
Position2: "'cpsp' Capital Spacing lookup 0 subtable" dx=5 dy=0 dh=10 dv=0
EndChar

StartChar: uni0431
Encoding: 1073 1073 456
Width: 1179
GlyphClass: 1
Flags: W
LayerCount: 2
Fore
SplineSet
612 -20 m 0,0,1
 459 -20 459 -20 348 46 c 128,-1,2
 237 112 237 112 177.5 228 c 128,-1,3
 118 344 118 344 118 494 c 2,4,-1
 118 751 l 2,5,6
 118 951 118 951 184 1065.5 c 128,-1,7
 250 1180 250 1180 343 1239 c 0,8,9
 444 1304 444 1304 576.5 1347.5 c 128,-1,10
 709 1391 709 1391 901 1434 c 1,11,-1
 901 1244 l 1,12,13
 758 1211 758 1211 637 1173.5 c 128,-1,14
 516 1136 516 1136 458 1105 c 0,15,16
 372 1061 372 1061 332 990.5 c 128,-1,17
 292 920 292 920 292 777 c 1,18,19
 348 856 348 856 443 908 c 128,-1,20
 538 960 538 960 664 960 c 0,21,22
 812 960 812 960 911.5 896.5 c 128,-1,23
 1011 833 1011 833 1062 724.5 c 128,-1,24
 1113 616 1113 616 1113 483 c 0,25,26
 1113 344 1113 344 1049 230 c 128,-1,27
 985 116 985 116 871 48 c 128,-1,28
 757 -20 757 -20 612 -20 c 0,0,1
612 144 m 0,29,30
 710 144 710 144 774 188 c 128,-1,31
 838 232 838 232 870 306.5 c 128,-1,32
 902 381 902 381 902 473 c 0,33,34
 902 616 902 616 831 705 c 128,-1,35
 760 794 760 794 612 794 c 0,36,37
 515 794 515 794 450.5 747 c 128,-1,38
 386 700 386 700 354.5 626.5 c 128,-1,39
 323 553 323 553 323 473 c 0,40,41
 323 327 323 327 393.5 235.5 c 128,-1,42
 464 144 464 144 612 144 c 0,29,30
EndSplineSet
Substitution2: "'aalt' Access All Alternates lookup 0 subtable" uni0431.loclSRB
EndChar

StartChar: uni0432
Encoding: 1074 1074 457
Width: 1084
GlyphClass: 2
Flags: W
LayerCount: 2
Fore
SplineSet
597 0 m 2,0,-1
 159 0 l 1,1,-1
 159 1039 l 1,2,-1
 599 1039 l 2,3,4
 713 1039 713 1039 795 1014.5 c 128,-1,5
 877 990 877 990 920.5 929 c 128,-1,6
 964 868 964 868 964 760 c 0,7,8
 964 688 964 688 926.5 627.5 c 128,-1,9
 889 567 889 567 805 545 c 1,10,11
 1009 518 1009 518 1009 307 c 0,12,13
 1009 192 1009 192 966.5 124.5 c 128,-1,14
 924 57 924 57 833 28.5 c 128,-1,15
 742 0 742 0 597 0 c 2,0,-1
605 620 m 2,16,17
 685 620 685 620 728 656.5 c 128,-1,18
 771 693 771 693 771 744 c 0,19,20
 771 809 771 809 731 837 c 128,-1,21
 691 865 691 865 604 865 c 2,22,-1
 349 865 l 1,23,-1
 349 620 l 1,24,-1
 605 620 l 2,16,17
600 177 m 2,25,26
 718 177 718 177 764 207.5 c 128,-1,27
 810 238 810 238 810 319 c 0,28,29
 810 389 810 389 757.5 419.5 c 128,-1,30
 705 450 705 450 600 450 c 2,31,-1
 349 450 l 1,32,-1
 349 177 l 1,33,-1
 600 177 l 2,25,26
EndSplineSet
Substitution2: "'ss02' Style Set 2 lookup 18 subtable" uni0432.1
Substitution2: "'ss03' Style Set 3 lookup 17 subtable" uni0432.loclSRB
Substitution2: "'locl' Localized Forms in Cyrillic lookup 10 subtable" uni0432.1
Substitution2: "'locl' Localized Forms in Cyrillic lookup 9 subtable" uni0432.loclSRB
Substitution2: "'locl' Localized Forms in Cyrillic lookup 8 subtable" uni0432.loclSRB
EndChar

StartChar: uni0433
Encoding: 1075 1075 458
Width: 794
GlyphClass: 2
Flags: W
LayerCount: 2
Fore
SplineSet
355 0 m 1,0,-1
 159 0 l 1,1,-1
 159 1039 l 1,2,-1
 789 1039 l 1,3,-1
 789 891 l 1,4,-1
 355 891 l 1,5,-1
 355 0 l 1,0,-1
EndSplineSet
Substitution2: "'ss02' Style Set 2 lookup 18 subtable" uni0433.1
Substitution2: "'ss03' Style Set 3 lookup 17 subtable" uni0433.loclSRB
Substitution2: "'locl' Localized Forms in Cyrillic lookup 10 subtable" uni0433.1
Substitution2: "'locl' Localized Forms in Cyrillic lookup 9 subtable" uni0433.loclSRB
Substitution2: "'locl' Localized Forms in Cyrillic lookup 8 subtable" uni0433.loclSRB
EndChar

StartChar: uni0434
Encoding: 1076 1076 459
Width: 1178
GlyphClass: 2
Flags: W
LayerCount: 2
Fore
SplineSet
1111 -307 m 1,0,-1
 915 -307 l 1,1,-1
 915 0 l 1,2,-1
 210 0 l 1,3,-1
 210 -307 l 1,4,-1
 14 -307 l 1,5,-1
 14 149 l 1,6,-1
 140 149 l 1,7,8
 208 228 208 228 235.5 354 c 128,-1,9
 263 480 263 480 263 638 c 2,10,-1
 263 1039 l 1,11,-1
 991 1039 l 1,12,-1
 991 149 l 1,13,-1
 1111 149 l 1,14,-1
 1111 -307 l 1,0,-1
795 149 m 1,15,-1
 795 891 l 1,16,-1
 458 891 l 1,17,-1
 458 644 l 2,18,19
 458 286 458 286 346 149 c 1,20,-1
 795 149 l 1,15,-1
EndSplineSet
Substitution2: "'ss02' Style Set 2 lookup 18 subtable" uni0434.1
Substitution2: "'ss03' Style Set 3 lookup 17 subtable" uni0434.loclSRB
Substitution2: "'locl' Localized Forms in Cyrillic lookup 10 subtable" uni0434.1
Substitution2: "'locl' Localized Forms in Cyrillic lookup 9 subtable" uni0434.loclSRB
Substitution2: "'locl' Localized Forms in Cyrillic lookup 8 subtable" uni0434.loclSRB
EndChar

StartChar: uni0435
Encoding: 1077 1077 460
Width: 1071
GlyphClass: 1
Flags: W
LayerCount: 2
Fore
SplineSet
561 -12 m 0,0,1
 399 -12 399 -12 291.5 60.5 c 128,-1,2
 184 133 184 133 130.5 252.5 c 128,-1,3
 77 372 77 372 77 514 c 0,4,5
 77 650 77 650 127.5 773 c 128,-1,6
 178 896 178 896 288 977 c 0,7,8
 393 1052 393 1052 543 1052 c 0,9,10
 786 1052 786 1052 892.5 900 c 128,-1,11
 999 748 999 748 999 513 c 0,12,13
 999 484 999 484 993 456 c 1,14,-1
 282 456 l 1,15,16
 285 375 285 375 315.5 310 c 128,-1,17
 346 245 346 245 406.5 205 c 128,-1,18
 467 165 467 165 558 165 c 0,19,20
 656 165 656 165 719.5 189 c 128,-1,21
 783 213 783 213 835 270 c 1,22,-1
 969 150 l 1,23,24
 888 68 888 68 791 28 c 128,-1,25
 694 -12 694 -12 561 -12 c 0,0,1
811 603 m 1,26,27
 808 688 808 688 778.5 751 c 128,-1,28
 749 814 749 814 690.5 849.5 c 128,-1,29
 632 885 632 885 543 885 c 0,30,31
 460 885 460 885 404.5 848 c 128,-1,32
 349 811 349 811 318.5 747.5 c 128,-1,33
 288 684 288 684 282 603 c 1,34,-1
 811 603 l 1,26,27
EndSplineSet
EndChar

